TwilioSansMono-RegularItalic.ufo
<glyph name="dollar" format="2">
	<unicode hex="0024"/>
	<advance width="600"/>
	<outline>
		<contour>
			<point x="144" y="-93" type="line"/>
			<point x="213" y="-93" type="line"/>
			<point x="238" y="-9" type="line"/>
			<point x="253" y="-10"/>
			<point x="268" y="-11"/>
			<point x="283" y="-11" type="curve" smooth="yes"/>
			<point x="430" y="-11"/>
			<point x="536" y="71"/>
			<point x="536" y="208" type="curve" smooth="yes"/>
			<point x="536" y="317"/>
			<point x="464" y="347"/>
			<point x="351" y="375" type="curve"/>
			<point x="423" y="616" type="line"/>
			<point x="478" y="604"/>
			<point x="530" y="580"/>
			<point x="566" y="548" type="curve"/>
			<point x="577" y="624" type="line"/>
			<point x="543" y="650"/>
			<point x="499" y="671"/>
			<point x="446" y="683" type="curve"/>
			<point x="473" y="774" type="line"/>
			<point x="404" y="774" type="line"/>
			<point x="380" y="693" type="line"/>
			<point x="367" y="694"/>
			<point x="354" y="695"/>
			<point x="340" y="695" type="curve" smooth="yes"/>
			<point x="184" y="695"/>
			<point x="91" y="611"/>
			<point x="91" y="482" type="curve" smooth="yes"/>
			<point x="91" y="364"/>
			<point x="174" y="331"/>
			<point x="267" y="310" type="curve"/>
			<point x="196" y="72" type="line"/>
			<point x="143" y="87"/>
			<point x="93" y="116"/>
			<point x="53" y="157" type="curve"/>
			<point x="41" y="75" type="line"/>
			<point x="75" y="43"/>
			<point x="121" y="18"/>
			<point x="173" y="4" type="curve"/>
		</contour>
		<contour>
			<point x="175" y="495" type="curve" smooth="yes"/>
			<point x="175" y="577"/>
			<point x="235" y="625"/>
			<point x="337" y="625" type="curve" smooth="yes"/>
			<point x="345" y="625"/>
			<point x="352" y="625"/>
			<point x="360" y="624" type="curve"/>
			<point x="290" y="390" type="line"/>
			<point x="218" y="408"/>
			<point x="175" y="428"/>
		</contour>
		<contour>
			<point x="451" y="193" type="curve" smooth="yes"/>
			<point x="451" y="109"/>
			<point x="385" y="60"/>
			<point x="285" y="60" type="curve" smooth="yes"/>
			<point x="276" y="60"/>
			<point x="267" y="60"/>
			<point x="259" y="61" type="curve"/>
			<point x="328" y="297" type="line"/>
			<point x="403" y="280"/>
			<point x="451" y="263"/>
		</contour>
	</outline>
</glyph>
<glyph name="percent" format="2">
	<unicode hex="0025"/>
	<advance width="600"/>
	<outline>
		<contour>
			<point x="188" y="338" type="curve" smooth="yes"/>
			<point x="270" y="338"/>
			<point x="324" y="396"/>
			<point x="339" y="505" type="curve" smooth="yes"/>
			<point x="355" y="620"/>
			<point x="317" y="696"/>
			<point x="220" y="696" type="curve" smooth="yes"/>
			<point x="138" y="696"/>
			<point x="84" y="636"/>
			<point x="69" y="529" type="curve" smooth="yes"/>
			<point x="52" y="410"/>
			<point x="92" y="338"/>
		</contour>
		<contour>
			<point x="411" y="417" type="line"/>
			<point x="480" y="417" type="line"/>
			<point x="633" y="684" type="line"/>
			<point x="548" y="684" type="line"/>
		</contour>
		<contour>
			<point x="190" y="386" type="curve" smooth="yes"/>
			<point x="140" y="386"/>
			<point x="121" y="439"/>
			<point x="133" y="525" type="curve" smooth="yes"/>
			<point x="144" y="607"/>
			<point x="174" y="648"/>
			<point x="218" y="648" type="curve" smooth="yes"/>
			<point x="268" y="648"/>
			<point x="287" y="594"/>
			<point x="275" y="509" type="curve" smooth="yes"/>
			<point x="264" y="426"/>
			<point x="234" y="386"/>
		</contour>
		<contour>
			<point x="403" y="-12" type="curve" smooth="yes"/>
			<point x="485" y="-12"/>
			<point x="539" y="46"/>
			<point x="554" y="155" type="curve" smooth="yes"/>
			<point x="570" y="270"/>
			<point x="533" y="346"/>
			<point x="435" y="346" type="curve" smooth="yes"/>
			<point x="353" y="346"/>
			<point x="299" y="286"/>
			<point x="284" y="179" type="curve" smooth="yes"/>
			<point x="268" y="60"/>
			<point x="308" y="-12"/>
		</contour>
		<contour>
			<point x="405" y="36" type="curve" smooth="yes"/>
			<point x="355" y="36"/>
			<point x="336" y="89"/>
			<point x="348" y="175" type="curve" smooth="yes"/>
			<point x="359" y="257"/>
			<point x="389" y="298"/>
			<point x="433" y="298" type="curve" smooth="yes"/>
			<point x="483" y="298"/>
			<point x="502" y="244"/>
			<point x="490" y="159" type="curve" smooth="yes"/>
			<point x="479" y="76"/>
			<point x="449" y="36"/>
		</contour>
		<contour>
			<point x="-11" y="0" type="line"/>
			<point x="75" y="0" type="line"/>
			<point x="213" y="266" type="line"/>
			<point x="142" y="266" type="line"/>
		</contour>
	</outline>
</glyph>
<glyph name="ampersand" format="2">
	<unicode hex="0026"/>
	<advance width="600"/>
	<outline>
		<contour>
			<point x="215" y="-14" type="curve" smooth="yes"/>
			<point x="294" y="-14"/>
			<point x="362" y="15"/>
			<point x="417" y="67" type="curve"/>
			<point x="470" y="0" type="line"/>
			<point x="572" y="0" type="line"/>
			<point x="470" y="128" type="line"/>
			<point x="519" y="196"/>
			<point x="554" y="285"/>
			<point x="577" y="387" type="curve"/>
			<point x="500" y="387" type="line"/>
			<point x="481" y="304"/>
			<point x="455" y="237"/>
			<point x="424" y="186" type="curve"/>
			<point x="274" y="375" type="line" smooth="yes"/>
			<point x="238" y="420"/>
			<point x="214" y="454"/>
			<point x="214" y="506" type="curve" smooth="yes"/>
			<point x="214" y="579"/>
			<point x="262" y="627"/>
			<point x="346" y="627" type="curve" smooth="yes"/>
			<point x="409" y="627"/>
			<point x="480" y="600"/>
			<point x="523" y="565" type="curve"/>
			<point x="534" y="640" type="line"/>
			<point x="492" y="670"/>
			<point x="420" y="698"/>
			<point x="345" y="698" type="curve" smooth="yes"/>
			<point x="211" y="698"/>
			<point x="131" y="611"/>
			<point x="131" y="499" type="curve" smooth="yes"/>
			<point x="131" y="464"/>
			<point x="141" y="433"/>
			<point x="156" y="404" type="curve"/>
			<point x="78" y="364"/>
			<point x="7" y="288"/>
			<point x="7" y="178" type="curve" smooth="yes"/>
			<point x="7" y="62"/>
			<point x="83" y="-14"/>
		</contour>
		<contour>
			<point x="89" y="185" type="curve" smooth="yes"/>
			<point x="87" y="263"/>
			<point x="134" y="320"/>
			<point x="195" y="346" type="curve"/>
			<point x="197" y="343"/>
			<point x="200" y="340"/>
			<point x="202" y="337" type="curve" smooth="yes"/>
			<point x="374" y="120" type="line"/>
			<point x="332" y="78"/>
			<point x="284" y="57"/>
			<point x="230" y="57" type="curve" smooth="yes"/>
			<point x="138" y="57"/>
			<point x="91" y="109"/>
		</contour>
	</outline>
</glyph>
<glyph name="quotesingle" format="2">
	<unicode hex="0027"/>
	<advance width="600"/>
	<outline>
		<contour>
			<point x="301" y="499" type="line"/>
			<point x="364" y="499" type="line"/>
			<point x="424" y="750" type="line"/>
			<point x="314" y="750" type="line"/>
		</contour>
	</outline>
</glyph>
<glyph name="hyphen" format="2">
	<unicode hex="002D"/>
	<advance width="600"/>
	<outline>
		<contour>
			<point x="485" y="339" type="line"/>
			<point x="136" y="339" type="line"/>
			<point x="125" y="262" type="line"/>
			<point x="474" y="262" type="line"/>
		</contour>
	</outline>
</glyph>
<glyph name="period" format="2">
	<unicode hex="002E"/>
	<advance width="600"/>
	<outline>
		<contour>
			<point x="267" y="-12" type="curve" smooth="yes"/>
			<point x="316" y="-12"/>
			<point x="338" y="9"/>
			<point x="343" y="49" type="curve" smooth="yes"/>
			<point x="350" y="94"/>
			<point x="331" y="121"/>
			<point x="276" y="121" type="curve" smooth="yes"/>
			<point x="226" y="121"/>
			<point x="204" y="100"/>
			<point x="199" y="59" type="curve" smooth="yes"/>
			<point x="192" y="14"/>
			<point x="211" y="-12"/>
		</contour>
	</outline>
</glyph>
<glyph name="slash" format="2">
	<unicode hex="002F"/>
	<advance width="600"/>
	<outline>
		<contour>
			<point x="518" y="792" type="line"/>
			<point x="8" y="-163" type="line"/>
			<point x="96" y="-163" type="line"/>
			<point x="607" y="792" type="line"/>
		</contour>
	</outline>
</glyph>
<glyph name="two" format="2">
	<unicode hex="0032"/>
	<advance width="600"/>
	<outline>
		<contour>
			<point x="36" y="0" type="line"/>
			<point x="487" y="0" type="line"/>
			<point x="496" y="76" type="line"/>
			<point x="172" y="76" type="line"/>
			<point x="246" y="124" type="line" smooth="yes"/>
			<point x="393" y="220"/>
			<point x="542" y="323"/>
			<point x="542" y="504" type="curve" smooth="yes"/>
			<point x="542" y="625"/>
			<point x="470" y="698"/>
			<point x="331" y="698" type="curve" smooth="yes"/>
			<point x="237" y="698"/>
			<point x="168" y="662"/>
			<point x="126" y="630" type="curve"/>
			<point x="115" y="545" type="line"/>
			<point x="175" y="595"/>
			<point x="242" y="624"/>
			<point x="315" y="624" type="curve" smooth="yes"/>
			<point x="408" y="624"/>
			<point x="454" y="574"/>
			<point x="454" y="492" type="curve" smooth="yes"/>
			<point x="454" y="352"/>
			<point x="334" y="270"/>
			<point x="182" y="164" type="curve" smooth="yes"/>
			<point x="46" y="68" type="line"/>
		</contour>
	</outline>
</glyph>
<glyph name="six" format="2">
	<unicode hex="0036"/>
	<advance width="600"/>
	<outline>
		<contour>
			<point x="288" y="-14" type="curve" smooth="yes"/>
			<point x="438" y="-14"/>
			<point x="537" y="90"/>
			<point x="537" y="252" type="curve" smooth="yes"/>
			<point x="537" y="371"/>
			<point x="466" y="443"/>
			<point x="345" y="443" type="curve" smooth="yes"/>
			<point x="264" y="443"/>
			<point x="196" y="409"/>
			<point x="153" y="322" type="curve"/>
			<point x="183" y="532"/>
			<point x="242" y="627"/>
			<point x="381" y="627" type="curve" smooth="yes"/>
			<point x="457" y="627"/>
			<point x="528" y="599"/>
			<point x="572" y="562" type="curve"/>
			<point x="582" y="638" type="line"/>
			<point x="544" y="667"/>
			<point x="471" y="698"/>
			<point x="377" y="698" type="curve" smooth="yes"/>
			<point x="187" y="698"/>
			<point x="98" y="562"/>
			<point x="71" y="372" type="curve" smooth="yes"/>
			<point x="69" y="358" type="line" smooth="yes"/>
			<point x="37" y="136"/>
			<point x="85" y="-14"/>
		</contour>
		<contour>
			<point x="293" y="57" type="curve" smooth="yes"/>
			<point x="204" y="57"/>
			<point x="149" y="112"/>
			<point x="149" y="205" type="curve" smooth="yes"/>
			<point x="149" y="311"/>
			<point x="211" y="377"/>
			<point x="314" y="377" type="curve" smooth="yes"/>
			<point x="401" y="377"/>
			<point x="451" y="331"/>
			<point x="451" y="239" type="curve" smooth="yes"/>
			<point x="451" y="126"/>
			<point x="390" y="57"/>
		</contour>
	</outline>
</glyph>
<glyph name="nine" format="2">
	<unicode hex="0039"/>
	<advance width="600"/>
	<outline>
		<contour>
			<point x="246" y="-13" type="curve" smooth="yes"/>
			<point x="437" y="-13"/>
			<point x="522" y="113"/>
			<point x="551" y="313" type="curve" smooth="yes"/>
			<point x="553" y="327" type="line" smooth="yes"/>
			<point x="587" y="568"/>
			<point x="528" y="698"/>
			<point x="336" y="698" type="curve" smooth="yes"/>
			<point x="187" y="698"/>
			<point x="86" y="593"/>
			<point x="86" y="434" type="curve" smooth="yes"/>
			<point x="86" y="311"/>
			<point x="159" y="239"/>
			<point x="280" y="239" type="curve" smooth="yes"/>
			<point x="359" y="239"/>
			<point x="428" y="273"/>
			<point x="470" y="364" type="curve"/>
			<point x="440" y="149"/>
			<point x="385" y="59"/>
			<point x="244" y="59" type="curve" smooth="yes"/>
			<point x="169" y="59"/>
			<point x="100" y="85"/>
			<point x="51" y="138" type="curve"/>
			<point x="41" y="61" type="line"/>
			<point x="83" y="16"/>
			<point x="159" y="-13"/>
		</contour>
		<contour>
			<point x="311" y="307" type="curve" smooth="yes"/>
			<point x="229" y="307"/>
			<point x="172" y="348"/>
			<point x="172" y="445" type="curve" smooth="yes"/>
			<point x="172" y="558"/>
			<point x="232" y="627"/>
			<point x="332" y="627" type="curve" smooth="yes"/>
			<point x="420" y="627"/>
			<point x="473" y="574"/>
			<point x="473" y="479" type="curve" smooth="yes"/>
			<point x="473" y="374"/>
			<point x="408" y="307"/>
		</contour>
	</outline>
</glyph>
<glyph name="greater" format="2">
	<unicode hex="003E"/>
	<advance width="600"/>
	<outline>
		<contour>
			<point x="45" y="40" type="line"/>
			<point x="524" y="256" type="line"/>
			<point x="537" y="348" type="line"/>
			<point x="119" y="565" type="line"/>
			<point x="107" y="483" type="line"/>
			<point x="459" y="305" type="line"/>
			<point x="57" y="129" type="line"/>
		</contour>
	</outline>
</glyph>
<glyph name="question" format="2">
	<unicode hex="003F"/>
	<advance width="600"/>
	<outline>
		<contour>
			<point x="228" y="198" type="curve"/>
			<point x="303" y="198" type="line"/>
			<point x="306" y="230" type="line" smooth="yes"/>
			<point x="322" y="374"/>
			<point x="532" y="376"/>
			<point x="532" y="542" type="curve" smooth="yes"/>
			<point x="532" y="632"/>
			<point x="470" y="698"/>
			<point x="337" y="698" type="curve" smooth="yes"/>
			<point x="265" y="698"/>
			<point x="203" y="679"/>
			<point x="152" y="648" type="curve"/>
			<point x="141" y="567" type="line"/>
			<point x="189" y="601"/>
			<point x="252" y="625"/>
			<point x="323" y="625" type="curve" smooth="yes"/>
			<point x="404" y="625"/>
			<point x="446" y="592"/>
			<point x="446" y="531" type="curve" smooth="yes"/>
			<point x="446" y="408"/>
			<point x="249" y="413"/>
			<point x="229" y="239" type="curve" smooth="yes"/>
			<point x="227" y="218"/>
			<point x="227" y="202"/>
		</contour>
		<contour>
			<point x="246" y="-12" type="curve" smooth="yes"/>
			<point x="292" y="-12"/>
			<point x="312" y="7"/>
			<point x="316" y="43" type="curve" smooth="yes"/>
			<point x="321" y="84"/>
			<point x="303" y="108"/>
			<point x="254" y="108" type="curve" smooth="yes"/>
			<point x="208" y="108"/>
			<point x="189" y="89"/>
			<point x="185" y="53" type="curve" smooth="yes"/>
			<point x="179" y="11"/>
			<point x="197" y="-12"/>
		</contour>
	</outline>
</glyph>
<glyph name="A" format="2">
	<unicode hex="0041"/>
	<advance width="600"/>
	<outline>
		<contour>
			<point x="-13" y="0" type="line"/>
			<point x="78" y="0" type="line"/>
			<point x="156" y="176" type="line"/>
			<point x="422" y="176" type="line"/>
			<point x="451" y="0" type="line"/>
			<point x="539" y="0" type="line"/>
			<point x="415" y="687" type="line"/>
			<point x="301" y="687" type="line"/>
		</contour>
		<contour>
			<point x="187" y="247" type="line"/>
			<point x="349" y="613" type="line"/>
			<point x="410" y="247" type="line"/>
		</contour>
	</outline>
	<anchor name="ogonek" x="539" y="0"/>
	<anchor name="bottom" x="277" y="0"/>
	<anchor name="top" x="358" y="684"/>
</glyph>
<glyph name="C" format="2">
	<unicode hex="0043"/>
	<advance width="600"/>
	<outline>
		<contour>
			<point x="363" y="-12" type="curve" smooth="yes"/>
			<point x="422" y="-12"/>
			<point x="464" y="-1"/>
			<point x="499" y="15" type="curve"/>
			<point x="510" y="91" type="line"/>
			<point x="469" y="71"/>
			<point x="423" y="61"/>
			<point x="375" y="61" type="curve" smooth="yes"/>
			<point x="200" y="61"/>
			<point x="145" y="212"/>
			<point x="168" y="370" type="curve" smooth="yes"/>
			<point x="169" y="377" type="line" smooth="yes"/>
			<point x="191" y="531"/>
			<point x="271" y="622"/>
			<point x="413" y="622" type="curve" smooth="yes"/>
			<point x="473" y="622"/>
			<point x="530" y="606"/>
			<point x="575" y="574" type="curve"/>
			<point x="586" y="652" type="line"/>
			<point x="545" y="676"/>
			<point x="483" y="695"/>
			<point x="411" y="695" type="curve" smooth="yes"/>
			<point x="217" y="695"/>
			<point x="108" y="571"/>
			<point x="82" y="391" type="curve" smooth="yes"/>
			<point x="80" y="377" type="line" smooth="yes"/>
			<point x="52" y="179"/>
			<point x="125" y="-12"/>
		</contour>
	</outline>
	<anchor name="top" x="427" y="684"/>
	<anchor name="bottom" x="325" y="0"/>
</glyph>
<glyph name="D" format="2">
	<unicode hex="0044"/>
	<advance width="600"/>
	<outline>
		<contour>
			<point x="36" y="0" type="line"/>
			<point x="261" y="0" type="line" smooth="yes"/>
			<point x="417" y="0"/>
			<point x="526" y="92"/>
			<point x="555" y="299" type="curve" smooth="yes"/>
			<point x="558" y="319" type="line" smooth="yes"/>
			<point x="590" y="546"/>
			<point x="497" y="684"/>
			<point x="318" y="684" type="curve" smooth="yes"/>
			<point x="132" y="684" type="line"/>
		</contour>
		<contour>
			<point x="307" y="612" type="line" smooth="yes"/>
			<point x="429" y="612"/>
			<point x="497" y="521"/>
			<point x="470" y="325" type="curve" smooth="yes"/>
			<point x="468" y="312" type="line" smooth="yes"/>
			<point x="447" y="158"/>
			<point x="382" y="72"/>
			<point x="260" y="72" type="curve" smooth="yes"/>
			<point x="131" y="72" type="line"/>
			<point x="207" y="612" type="line"/>
		</contour>
	</outline>
	<anchor name="center" x="168" y="342"/>
	<anchor name="bottom" x="283" y="0"/>
	<anchor name="top" x="324" y="684"/>
</glyph>
<glyph name="E" format="2">
	<unicode hex="0045"/>
	<advance width="600"/>
	<outline>
		<contour>
			<point x="151" y="684" type="line"/>
			<point x="55" y="0" type="line"/>
			<point x="493" y="0" type="line"/>
			<point x="504" y="73" type="line"/>
			<point x="150" y="73" type="line"/>
			<point x="184" y="307" type="line"/>
			<point x="493" y="307" type="line"/>
			<point x="504" y="379" type="line"/>
			<point x="194" y="379" type="line"/>
			<point x="226" y="612" type="line"/>
			<point x="572" y="612" type="line"/>
			<point x="583" y="684" type="line"/>
		</contour>
	</outline>
	<anchor name="ogonek" x="493" y="0"/>
	<anchor name="bottom" x="292" y="0"/>
	<anchor name="top" x="365" y="684"/>
</glyph>
<glyph name="I" format="2">
	<unicode hex="0049"/>
	<advance width="600"/>
	<outline>
		<contour>
			<point x="47" y="0" type="line"/>
			<point x="478" y="0" type="line"/>
			<point x="489" y="71" type="line"/>
			<point x="315" y="71" type="line"/>
			<point x="392" y="613" type="line"/>
			<point x="564" y="613" type="line"/>
			<point x="574" y="684" type="line"/>
			<point x="143" y="684" type="line"/>
			<point x="133" y="613" type="line"/>
			<point x="306" y="613" type="line"/>
			<point x="230" y="71" type="line"/>
			<point x="57" y="71" type="line"/>
		</contour>
	</outline>
	<anchor name="ogonek" x="478" y="0"/>
	<anchor name="bottom" x="12694" y="0"/>
	<anchor name="top" x="359" y="684"/>
</glyph>
<glyph name="K" format="2">
	<unicode hex="004B"/>
	<advance width="600"/>
	<outline>
		<contour>
			<point x="47" y="0" type="line"/>
			<point x="133" y="0" type="line"/>
			<point x="160" y="188" type="line"/>
			<point x="300" y="344" type="line"/>
			<point x="437" y="0" type="line"/>
			<point x="533" y="0" type="line"/>
			<point x="371" y="401" type="line"/>
			<point x="615" y="684" type="line"/>
			<point x="511" y="684" type="line"/>
			<point x="174" y="293" type="line"/>
			<point x="229" y="684" type="line"/>
			<point x="143" y="684" type="line"/>
		</contour>
	</outline>
	<anchor name="top" x="407" y="684"/>
	<anchor name="bottom" x="284" y="0"/>
</glyph>
<glyph name="O" format="2">
	<unicode hex="004F"/>
	<advance width="600"/>
	<outline>
		<contour>
			<point x="279" y="-14" type="curve" smooth="yes"/>
			<point x="434" y="-14"/>
			<point x="523" y="112"/>
			<point x="550" y="304" type="curve" smooth="yes"/>
			<point x="552" y="318" type="line" smooth="yes"/>
			<point x="588" y="566"/>
			<point x="514" y="698"/>
			<point x="346" y="698" type="curve" smooth="yes"/>
			<point x="195" y="698"/>
			<point x="100" y="571"/>
			<point x="72" y="378" type="curve" smooth="yes"/>
			<point x="70" y="364" type="line" smooth="yes"/>
			<point x="35" y="118"/>
			<point x="109" y="-14"/>
		</contour>
		<contour>
			<point x="282" y="58" type="curve" smooth="yes"/>
			<point x="168" y="58"/>
			<point x="130" y="167"/>
			<point x="158" y="360" type="curve" smooth="yes"/>
			<point x="159" y="367" type="line" smooth="yes"/>
			<point x="184" y="541"/>
			<point x="247" y="626"/>
			<point x="343" y="626" type="curve" smooth="yes"/>
			<point x="455" y="626"/>
			<point x="493" y="517"/>
			<point x="465" y="326" type="curve" smooth="yes"/>
			<point x="464" y="319" type="line" smooth="yes"/>
			<point x="439" y="143"/>
			<point x="380" y="58"/>
		</contour>
	</outline>
	<anchor name="center" x="318" y="351"/>
	<anchor name="bottom" x="274" y="0"/>
	<anchor name="top" x="362" y="684"/>
</glyph>
<glyph name="P" format="2">
	<unicode hex="0050"/>
	<advance width="600"/>
	<outline>
		<contour>
			<point x="48" y="0" type="line"/>
			<point x="133" y="0" type="line"/>
			<point x="165" y="227" type="line"/>
			<point x="333" y="227" type="line" smooth="yes"/>
			<point x="485" y="227"/>
			<point x="586" y="323"/>
			<point x="586" y="479" type="curve" smooth="yes"/>
			<point x="586" y="600"/>
			<point x="509" y="684"/>
			<point x="369" y="684" type="curve" smooth="yes"/>
			<point x="144" y="684" type="line"/>
		</contour>
		<contour>
			<point x="355" y="612" type="line" smooth="yes"/>
			<point x="457" y="612"/>
			<point x="499" y="549"/>
			<point x="499" y="472" type="curve" smooth="yes"/>
			<point x="499" y="363"/>
			<point x="433" y="298"/>
			<point x="328" y="298" type="curve" smooth="yes"/>
			<point x="175" y="298" type="line"/>
			<point x="219" y="612" type="line"/>
		</contour>
	</outline>
	<anchor name="top" x="397" y="684"/>
	<anchor name="bottom" x="150" y="0"/>
</glyph>
<glyph name="Q" format="2">
	<unicode hex="0051"/>
	<advance width="600"/>
	<outline>
		<contour>
			<point x="282" y="-60" type="curve" smooth="yes"/>
			<point x="445" y="-121" type="line"/>
			<point x="492" y="-56" type="line"/>
			<point x="306" y="5" type="line"/>
			<point x="436" y="13"/>
			<point x="523" y="115"/>
			<point x="551" y="309" type="curve" smooth="yes"/>
			<point x="553" y="323" type="line" smooth="yes"/>
			<point x="587" y="563"/>
			<point x="513" y="698"/>
			<point x="341" y="698" type="curve" smooth="yes"/>
			<point x="193" y="698"/>
			<point x="100" y="572"/>
			<point x="72" y="378" type="curve" smooth="yes"/>
			<point x="70" y="364" type="line" smooth="yes"/>
			<point x="35" y="119"/>
			<point x="107" y="6"/>
		</contour>
		<contour>
			<point x="283" y="58" type="curve" smooth="yes"/>
			<point x="169" y="58"/>
			<point x="130" y="168"/>
			<point x="158" y="360" type="curve" smooth="yes"/>
			<point x="159" y="367" type="line" smooth="yes"/>
			<point x="184" y="541"/>
			<point x="244" y="627"/>
			<point x="339" y="627" type="curve" smooth="yes"/>
			<point x="452" y="627"/>
			<point x="492" y="517"/>
			<point x="465" y="326" type="curve" smooth="yes"/>
			<point x="464" y="319" type="line" smooth="yes"/>
			<point x="439" y="144"/>
			<point x="381" y="58"/>
		</contour>
	</outline>
	<anchor name="top" x="343" y="684"/>
	<anchor name="bottom" x="253" y="6"/>
</glyph>
<glyph name="R" format="2">
	<unicode hex="0052"/>
	<advance width="600"/>
	<outline>
		<contour>
			<point x="41" y="0" type="line"/>
			<point x="126" y="0" type="line"/>
			<point x="163" y="269" type="line"/>
			<point x="303" y="269" type="line" smooth="yes"/>
			<point x="387" y="269"/>
			<point x="406" y="230"/>
			<point x="413" y="158" type="curve" smooth="yes"/>
			<point x="427" y="0" type="line"/>
			<point x="515" y="0" type="line"/>
			<point x="497" y="173" type="line" smooth="yes"/>
			<point x="490" y="247"/>
			<point x="465" y="292"/>
			<point x="407" y="304" type="curve"/>
			<point x="507" y="319"/>
			<point x="578" y="382"/>
			<point x="577" y="504" type="curve" smooth="yes"/>
			<point x="577" y="613"/>
			<point x="506" y="684"/>
			<point x="382" y="684" type="curve" smooth="yes"/>
			<point x="137" y="684" type="line"/>
		</contour>
		<contour>
			<point x="366" y="613" type="line" smooth="yes"/>
			<point x="447" y="613"/>
			<point x="491" y="566"/>
			<point x="491" y="492" type="curve" smooth="yes"/>
			<point x="491" y="393"/>
			<point x="434" y="341"/>
			<point x="338" y="341" type="curve" smooth="yes"/>
			<point x="174" y="341" type="line"/>
			<point x="212" y="613" type="line"/>
		</contour>
	</outline>
	<anchor name="top" x="340" y="684"/>
	<anchor name="bottom" x="275" y="0"/>
</glyph>
<glyph name="S" format="2">
	<unicode hex="0053"/>
	<advance width="600"/>
	<outline>
		<contour>
			<point x="285" y="-14" type="curve" smooth="yes"/>
			<point x="427" y="-14"/>
			<point x="528" y="72"/>
			<point x="528" y="208" type="curve" smooth="yes"/>
			<point x="528" y="328"/>
			<point x="445" y="355"/>
			<point x="327" y="382" type="curve" smooth="yes"/>
			<point x="238" y="403"/>
			<point x="184" y="421"/>
			<point x="184" y="497" type="curve" smooth="yes"/>
			<point x="184" y="578"/>
			<point x="240" y="627"/>
			<point x="336" y="627" type="curve" smooth="yes"/>
			<point x="417" y="627"/>
			<point x="504" y="597"/>
			<point x="558" y="548" type="curve"/>
			<point x="569" y="626" type="line"/>
			<point x="517" y="668"/>
			<point x="441" y="697"/>
			<point x="336" y="697" type="curve" smooth="yes"/>
			<point x="189" y="697"/>
			<point x="98" y="611"/>
			<point x="98" y="481" type="curve" smooth="yes"/>
			<point x="98" y="349"/>
			<point x="197" y="323"/>
			<point x="299" y="301" type="curve" smooth="yes"/>
			<point x="384" y="282"/>
			<point x="442" y="271"/>
			<point x="442" y="193" type="curve" smooth="yes"/>
			<point x="442" y="110"/>
			<point x="379" y="58"/>
			<point x="285" y="58" type="curve" smooth="yes"/>
			<point x="202" y="58"/>
			<point x="122" y="89"/>
			<point x="61" y="156" type="curve"/>
			<point x="49" y="74" type="line"/>
			<point x="106" y="19"/>
			<point x="186" y="-14"/>
		</contour>
	</outline>
	<anchor name="top" x="364" y="684"/>
	<anchor name="bottom" x="277" y="0"/>
</glyph>
<glyph name="T" format="2">
	<unicode hex="0054"/>
	<advance width="600"/>
	<outline>
		<contour>
			<point x="219" y="0" type="line"/>
			<point x="305" y="0" type="line"/>
			<point x="391" y="609" type="line"/>
			<point x="601" y="609" type="line"/>
			<point x="612" y="684" type="line"/>
			<point x="106" y="684" type="line"/>
			<point x="96" y="609" type="line"/>
			<point x="305" y="609" type="line"/>
		</contour>
	</outline>
	<anchor name="center" x="312" y="360"/>
	<anchor name="bottom" x="262" y="0"/>
	<anchor name="top" x="359" y="684"/>
</glyph>
<glyph name="W" format="2">
	<unicode hex="0057"/>
	<advance width="600"/>
	<outline>
		<contour>
			<point x="68" y="0" type="line"/>
			<point x="186" y="0" type="line"/>
			<point x="318" y="420" type="line"/>
			<point x="325" y="420" type="line"/>
			<point x="340" y="0" type="line"/>
			<point x="458" y="0" type="line"/>
			<point x="623" y="684" type="line"/>
			<point x="541" y="684" type="line"/>
			<point x="407" y="94" type="line"/>
			<point x="400" y="94" type="line"/>
			<point x="386" y="525" type="line"/>
			<point x="287" y="525" type="line"/>
			<point x="152" y="94" type="line"/>
			<point x="144" y="94" type="line"/>
			<point x="175" y="684" type="line"/>
			<point x="95" y="684" type="line"/>
		</contour>
	</outline>
	<anchor name="top" x="359" y="684"/>
</glyph>
<glyph name="Z" format="2">
	<unicode hex="005A"/>
	<advance width="600"/>
	<outline>
		<contour>
			<point x="26" y="0" type="line"/>
			<point x="501" y="0" type="line"/>
			<point x="511" y="73" type="line"/>
			<point x="145" y="73" type="line"/>
			<point x="586" y="614" type="line"/>
			<point x="596" y="684" type="line"/>
			<point x="138" y="684" type="line"/>
			<point x="127" y="612" type="line"/>
			<point x="485" y="612" type="line"/>
			<point x="35" y="66" type="line"/>
		</contour>
	</outline>
	<anchor name="top" x="366" y="684"/>
	<anchor name="bottom" x="261" y="0"/>
</glyph>
<glyph name="bracketleft" format="2">
	<unicode hex="005B"/>
	<advance width="600"/>
	<outline>
		<contour>
			<point x="431" y="-99" type="line"/>
			<point x="226" y="-99" type="line"/>
			<point x="342" y="728" type="line"/>
			<point x="547" y="728" type="line"/>
			<point x="556" y="792" type="line"/>
			<point x="272" y="792" type="line"/>
			<point x="137" y="-163" type="line"/>
			<point x="421" y="-163" type="line"/>
		</contour>
	</outline>
</glyph>
<glyph name="backslash" format="2">
	<unicode hex="005C"/>
	<advance width="600"/>
	<outline>
		<contour>
			<point x="391" y="-163" type="line"/>
			<point x="472" y="-163" type="line"/>
			<point x="224" y="792" type="line"/>
			<point x="143" y="792" type="line"/>
		</contour>
	</outline>
</glyph>
<glyph name="asciicircum" format="2">
	<unicode hex="005E"/>
	<advance width="600"/>
	<outline>
		<contour>
			<point x="73" y="233" type="line"/>
			<point x="156" y="233" type="line"/>
			<point x="338" y="505" type="line"/>
			<point x="438" y="233" type="line"/>
			<point x="519" y="233" type="line"/>
			<point x="385" y="575" type="line"/>
			<point x="304" y="575" type="line"/>
		</contour>
	</outline>
</glyph>
<glyph name="underscore" format="2">
	<unicode hex="005F"/>
	<advance width="600"/>
	<outline>
		<contour>
			<point x="-20" y="-102" type="line"/>
			<point x="-31" y="-171" type="line"/>
			<point x="508" y="-171" type="line"/>
			<point x="519" y="-102" type="line"/>
		</contour>
	</outline>
</glyph>
<glyph name="grave" format="2">
	<unicode hex="0060"/>
	<advance width="600"/>
	<outline>
		<contour>
			<point x="268" y="750" type="line"/>
			<point x="354" y="605" type="line"/>
			<point x="425" y="605" type="line"/>
			<point x="366" y="750" type="line"/>
		</contour>
	</outline>
	<anchor name="_top" x="382" y="523"/>
</glyph>
<glyph name="a" format="2">
	<unicode hex="0061"/>
	<advance width="600"/>
	<outline>
		<contour>
			<point x="216" y="-14" type="curve" smooth="yes"/>
			<point x="296" y="-14"/>
			<point x="351" y="28"/>
			<point x="390" y="93" type="curve"/>
			<point x="377" y="0" type="line"/>
			<point x="459" y="0" type="line"/>
			<point x="505" y="320" type="line" smooth="yes"/>
			<point x="526" y="474"/>
			<point x="446" y="537"/>
			<point x="318" y="537" type="curve" smooth="yes"/>
			<point x="243" y="537"/>
			<point x="177" y="517"/>
			<point x="130" y="491" type="curve"/>
			<point x="118" y="413" type="line"/>
			<point x="178" y="453"/>
			<point x="241" y="467"/>
			<point x="301" y="467" type="curve" smooth="yes"/>
			<point x="396" y="467"/>
			<point x="435" y="418"/>
			<point x="422" y="326" type="curve"/>
			<point x="302" y="308" type="line" smooth="yes"/>
			<point x="146" y="285"/>
			<point x="66" y="229"/>
			<point x="67" y="115" type="curve" smooth="yes"/>
			<point x="68" y="35"/>
			<point x="123" y="-14"/>
		</contour>
		<contour>
			<point x="247" y="50" type="curve" smooth="yes"/>
			<point x="190" y="50"/>
			<point x="150" y="81"/>
			<point x="150" y="132" type="curve" smooth="yes"/>
			<point x="149" y="199"/>
			<point x="199" y="234"/>
			<point x="307" y="251" type="curve" smooth="yes"/>
			<point x="414" y="267" type="line"/>
			<point x="404" y="200" type="line" smooth="yes"/>
			<point x="391" y="114"/>
			<point x="332" y="50"/>
		</contour>
	</outline>
	<anchor name="ogonek" x="459" y="0"/>
	<anchor name="bottom" x="256" y="-1"/>
	<anchor name="top" x="338" y="524"/>
</glyph>
<glyph name="d" format="2">
	<unicode hex="0064"/>
	<advance width="600"/>
	<outline>
		<contour>
			<point x="230" y="-14" type="curve" smooth="yes"/>
			<point x="301" y="-14"/>
			<point x="363" y="21"/>
			<point x="403" y="106" type="curve"/>
			<point x="388" y="0" type="line"/>
			<point x="470" y="0" type="line"/>
			<point x="576" y="750" type="line"/>
			<point x="492" y="750" type="line"/>
			<point x="460" y="523" type="line"/>
			<point x="379" y="523" type="line" smooth="yes"/>
			<point x="206" y="523"/>
			<point x="93" y="424"/>
			<point x="70" y="263" type="curve" smooth="yes"/>
			<point x="68" y="249" type="line" smooth="yes"/>
			<point x="44" y="81"/>
			<point x="111" y="-14"/>
		</contour>
		<contour>
			<point x="154" y="252" type="curve" smooth="yes"/>
			<point x="155" y="259" type="line"/>
			<point x="174" y="390"/>
			<point x="249" y="454"/>
			<point x="370" y="454" type="curve" smooth="yes"/>
			<point x="451" y="454" type="line"/>
			<point x="418" y="220" type="line" smooth="yes"/>
			<point x="404" y="126"/>
			<point x="350" y="56"/>
			<point x="266" y="56" type="curve" smooth="yes"/>
			<point x="181" y="56"/>
			<point x="136" y="126"/>
		</contour>
	</outline>
	<anchor name="caron" x="704" y="774"/>
	<anchor name="ogonek" x="526" y="6"/>
	<anchor name="top" x="400" y="550"/>
	<anchor name="center" x="471" y="626"/>
</glyph>
<glyph name="g" format="2">
	<unicode hex="0067"/>
	<advance width="600"/>
	<outline>
		<contour>
			<point x="207" y="-206" type="curve" smooth="yes"/>
			<point x="233" y="-206" type="line" smooth="yes"/>
			<point x="405" y="-206"/>
			<point x="511" y="-139"/>
			<point x="511" y="-35" type="curve" smooth="yes"/>
			<point x="511" y="39"/>
			<point x="453" y="75"/>
			<point x="341" y="75" type="curve" smooth="yes"/>
			<point x="215" y="75" type="line" smooth="yes"/>
			<point x="165" y="75"/>
			<point x="138" y="86"/>
			<point x="138" y="111" type="curve" smooth="yes"/>
			<point x="138" y="146"/>
			<point x="188" y="165"/>
			<point x="255" y="165" type="curve" smooth="yes"/>
			<point x="276" y="165" type="line" smooth="yes"/>
			<point x="401" y="165"/>
			<point x="491" y="241"/>
			<point x="491" y="353" type="curve" smooth="yes"/>
			<point x="491" y="395"/>
			<point x="473" y="432"/>
			<point x="449" y="453" type="curve"/>
			<point x="569" y="453" type="line"/>
			<point x="581" y="523" type="line"/>
			<point x="304" y="523" type="line" smooth="yes"/>
			<point x="180" y="523"/>
			<point x="87" y="442"/>
			<point x="87" y="328" type="curve" smooth="yes"/>
			<point x="87" y="255"/>
			<point x="124" y="205"/>
			<point x="184" y="182" type="curve"/>
			<point x="104" y="167"/>
			<point x="56" y="133"/>
			<point x="56" y="84" type="curve" smooth="yes"/>
			<point x="56" y="48"/>
			<point x="81" y="23"/>
			<point x="133" y="14" type="curve"/>
			<point x="44" y="-4"/>
			<point x="-3" y="-47"/>
			<point x="-3" y="-99" type="curve" smooth="yes"/>
			<point x="-3" y="-167"/>
			<point x="62" y="-206"/>
		</contour>
		<contour>
			<point x="412" y="354" type="curve" smooth="yes"/>
			<point x="412" y="277"/>
			<point x="362" y="223"/>
			<point x="281" y="223" type="curve" smooth="yes"/>
			<point x="209" y="223"/>
			<point x="168" y="266"/>
			<point x="168" y="331" type="curve" smooth="yes"/>
			<point x="168" y="410"/>
			<point x="218" y="464"/>
			<point x="299" y="464" type="curve" smooth="yes"/>
			<point x="371" y="464"/>
			<point x="412" y="422"/>
		</contour>
		<contour>
			<point x="246" y="-142" type="curve" smooth="yes"/>
			<point x="222" y="-142" type="line"/>
			<point x="130" y="-142"/>
			<point x="81" y="-124"/>
			<point x="81" y="-76" type="curve" smooth="yes"/>
			<point x="81" y="-29"/>
			<point x="141" y="4"/>
			<point x="218" y="4" type="curve" smooth="yes"/>
			<point x="317" y="4" type="line" smooth="yes"/>
			<point x="394" y="4"/>
			<point x="427" y="-14"/>
			<point x="427" y="-52" type="curve" smooth="yes"/>
			<point x="427" y="-109"/>
			<point x="359" y="-142"/>
		</contour>
	</outline>
	<anchor name="top" x="334" y="523"/>
	<anchor name="bottom" x="260" y="-54"/>
</glyph>
<glyph name="i" format="2">
	<unicode hex="0069"/>
	<advance width="600"/>
	<outline>
		<contour>
			<point x="373" y="636" type="curve" smooth="yes"/>
			<point x="417" y="636"/>
			<point x="434" y="654"/>
			<point x="438" y="689" type="curve" smooth="yes"/>
			<point x="442" y="724"/>
			<point x="424" y="743"/>
			<point x="381" y="743" type="curve" smooth="yes"/>
			<point x="335" y="743"/>
			<point x="318" y="725"/>
			<point x="315" y="690" type="curve" smooth="yes"/>
			<point x="311" y="654"/>
			<point x="328" y="636"/>
		</contour>
		<contour>
			<point x="49" y="0" type="line"/>
			<point x="505" y="0" type="line"/>
			<point x="515" y="70" type="line"/>
			<point x="334" y="70" type="line"/>
			<point x="398" y="523" type="line"/>
			<point x="124" y="523" type="line"/>
			<point x="114" y="453" type="line"/>
			<point x="304" y="453" type="line"/>
			<point x="250" y="70" type="line"/>
			<point x="60" y="70" type="line"/>
		</contour>
	</outline>
	<anchor name="ogonek" x="505" y="0"/>
</glyph>
<glyph name="l" format="2">
	<unicode hex="006C"/>
	<advance width="600"/>
	<outline>
		<contour>
			<point x="39" y="0" type="line"/>
			<point x="494" y="0" type="line"/>
			<point x="505" y="70" type="line"/>
			<point x="323" y="70" type="line"/>
			<point x="421" y="750" type="line"/>
			<point x="147" y="750" type="line"/>
			<point x="137" y="680" type="line"/>
			<point x="328" y="680" type="line"/>
			<point x="239" y="70" type="line"/>
			<point x="49" y="70" type="line"/>
		</contour>
	</outline>
	<anchor name="bottom" x="271" y="-1"/>
	<anchor name="caron" x="551" y="750"/>
	<anchor name="top" x="379" y="732"/>
	<anchor name="center" x="325" y="375"/>
</glyph>
<glyph name="m" format="2">
	<unicode hex="006D"/>
	<advance width="600"/>
	<outline>
		<contour>
			<point x="20" y="0" type="line"/>
			<point x="96" y="0" type="line"/>
			<point x="148" y="369" type="line" smooth="yes"/>
			<point x="152" y="395"/>
			<point x="160" y="421"/>
			<point x="174" y="440" type="curve" smooth="yes"/>
			<point x="187" y="458"/>
			<point x="207" y="470"/>
			<point x="230" y="470" type="curve" smooth="yes"/>
			<point x="268" y="470"/>
			<point x="289" y="443"/>
			<point x="280" y="385" type="curve" smooth="yes"/>
			<point x="226" y="0" type="line"/>
			<point x="301" y="0" type="line"/>
			<point x="354" y="377" type="line"/>
			<point x="358" y="400"/>
			<point x="366" y="424"/>
			<point x="379" y="441" type="curve" smooth="yes"/>
			<point x="393" y="459"/>
			<point x="412" y="470"/>
			<point x="435" y="470" type="curve" smooth="yes"/>
			<point x="472" y="470"/>
			<point x="493" y="443"/>
			<point x="485" y="385" type="curve" smooth="yes"/>
			<point x="431" y="0" type="line"/>
			<point x="507" y="0" type="line"/>
			<point x="562" y="395" type="line" smooth="yes"/>
			<point x="576" y="491"/>
			<point x="537" y="537"/>
			<point x="476" y="537" type="curve" smooth="yes"/>
			<point x="426" y="537"/>
			<point x="385" y="505"/>
			<point x="357" y="449" type="curve"/>
			<point x="351" y="507"/>
			<point x="318" y="537"/>
			<point x="270" y="537" type="curve" smooth="yes"/>
			<point x="221" y="537"/>
			<point x="185" y="508"/>
			<point x="159" y="455" type="curve"/>
			<point x="169" y="523" type="line"/>
			<point x="94" y="523" type="line"/>
		</contour>
	</outline>
	<anchor name="top" x="367" y="524"/>
	<anchor name="bottom" x="246" y="0"/>
</glyph>
<glyph name="r" format="2">
	<unicode hex="0072"/>
	<advance width="600"/>
	<outline>
		<contour>
			<point x="40" y="0" type="line"/>
			<point x="464" y="0" type="line"/>
			<point x="474" y="70" type="line"/>
			<point x="277" y="70" type="line"/>
			<point x="306" y="278" type="line" smooth="yes"/>
			<point x="319" y="367"/>
			<point x="383" y="452"/>
			<point x="479" y="452" type="curve" smooth="yes"/>
			<point x="513" y="452"/>
			<point x="539" y="445"/>
			<point x="558" y="435" type="curve"/>
			<point x="570" y="516" type="line"/>
			<point x="556" y="524"/>
			<point x="535" y="531"/>
			<point x="500" y="531" type="curve" smooth="yes"/>
			<point x="421" y="531"/>
			<point x="360" y="482"/>
			<point x="321" y="397" type="curve"/>
			<point x="339" y="523" type="line"/>
			<point x="114" y="523" type="line"/>
			<point x="104" y="453" type="line"/>
			<point x="246" y="453" type="line"/>
			<point x="193" y="70" type="line"/>
			<point x="49" y="70" type="line"/>
		</contour>
	</outline>
	<anchor name="top" x="380" y="523"/>
	<anchor name="bottom" x="223" y="0"/>
</glyph>
<glyph name="s" format="2">
	<unicode hex="0073"/>
	<advance width="600"/>
	<outline>
		<contour>
			<point x="273" y="-14" type="curve" smooth="yes"/>
			<point x="412" y="-14"/>
			<point x="492" y="51"/>
			<point x="492" y="159" type="curve" smooth="yes"/>
			<point x="492" y="260"/>
			<point x="415" y="279"/>
			<point x="312" y="300" type="curve" smooth="yes"/>
			<point x="230" y="318"/>
			<point x="191" y="327"/>
			<point x="191" y="380" type="curve" smooth="yes"/>
			<point x="191" y="437"/>
			<point x="237" y="471"/>
			<point x="317" y="471" type="curve" smooth="yes"/>
			<point x="387" y="471"/>
			<point x="475" y="447"/>
			<point x="523" y="405" type="curve"/>
			<point x="533" y="482" type="line"/>
			<point x="481" y="518"/>
			<point x="400" y="538"/>
			<point x="325" y="538" type="curve" smooth="yes"/>
			<point x="185" y="538"/>
			<point x="108" y="466"/>
			<point x="108" y="364" type="curve" smooth="yes"/>
			<point x="108" y="267"/>
			<point x="182" y="244"/>
			<point x="288" y="224" type="curve" smooth="yes"/>
			<point x="374" y="209"/>
			<point x="411" y="198"/>
			<point x="411" y="145" type="curve" smooth="yes"/>
			<point x="411" y="84"/>
			<point x="362" y="54"/>
			<point x="280" y="54" type="curve" smooth="yes"/>
			<point x="217" y="54"/>
			<point x="136" y="71"/>
			<point x="76" y="125" type="curve"/>
			<point x="66" y="49" type="line"/>
			<point x="111" y="12"/>
			<point x="188" y="-14"/>
		</contour>
	</outline>
	<anchor name="top" x="351" y="523"/>
	<anchor name="bottom" x="273" y="0"/>
</glyph>
<glyph name="t" format="2">
	<unicode hex="0074"/>
	<advance width="600"/>
	<outline>
		<contour>
			<point x="356" y="-12" type="curve" smooth="yes"/>
			<point x="404" y="-12"/>
			<point x="448" y="-1"/>
			<point x="470" y="11" type="curve"/>
			<point x="479" y="78" type="line"/>
			<point x="456" y="68"/>
			<point x="416" y="58"/>
			<point x="379" y="58" type="curve" smooth="yes"/>
			<point x="297" y="58"/>
			<point x="266" y="92"/>
			<point x="278" y="185" type="curve" smooth="yes"/>
			<point x="315" y="453" type="line"/>
			<point x="532" y="453" type="line"/>
			<point x="542" y="523" type="line"/>
			<point x="325" y="523" type="line"/>
			<point x="349" y="692" type="line"/>
			<point x="280" y="692" type="line"/>
			<point x="257" y="582" type="line" smooth="yes"/>
			<point x="245" y="528"/>
			<point x="222" y="519"/>
			<point x="186" y="519" type="curve" smooth="yes"/>
			<point x="98" y="519" type="line"/>
			<point x="89" y="453" type="line"/>
			<point x="232" y="453" type="line"/>
			<point x="193" y="176" type="line" smooth="yes"/>
			<point x="174" y="36"/>
			<point x="245" y="-12"/>
		</contour>
	</outline>
	<anchor name="caron" x="501" y="780"/>
	<anchor name="bottom" x="322" y="0"/>
	<anchor name="center" x="288" y="293"/>
</glyph>
<glyph name="x" format="2">
	<unicode hex="0078"/>
	<advance width="600"/>
	<outline>
		<contour>
			<point x="29" y="0" type="line"/>
			<point x="128" y="0" type="line"/>
			<point x="292" y="216" type="line"/>
			<point x="404" y="0" type="line"/>
			<point x="497" y="0" type="line"/>
			<point x="353" y="274" type="line"/>
			<point x="559" y="523" type="line"/>
			<point x="462" y="523" type="line"/>
			<point x="307" y="329" type="line"/>
			<point x="207" y="523" type="line"/>
			<point x="113" y="523" type="line"/>
			<point x="248" y="273" type="line"/>
		</contour>
	</outline>
	<anchor name="top" x="368" y="523"/>
	<anchor name="bottom" x="299" y="0"/>
</glyph>
<glyph name="z" format="2">
	<unicode hex="007A"/>
	<advance width="600"/>
	<outline>
		<contour>
			<point x="58" y="0" type="line"/>
			<point x="468" y="0" type="line"/>
			<point x="477" y="70" type="line"/>
			<point x="178" y="70" type="line"/>
			<point x="531" y="457" type="line"/>
			<point x="540" y="523" type="line"/>
			<point x="136" y="523" type="line"/>
			<point x="126" y="453" type="line"/>
			<point x="422" y="453" type="line"/>
			<point x="66" y="61" type="line"/>
		</contour>
	</outline>
	<anchor name="top" x="338" y="523"/>
	<anchor name="bottom" x="263" y="0"/>
</glyph>
<glyph name="currency" format="2">
	<unicode hex="00A4"/>
	<advance width="600"/>
	<outline>
		<contour>
			<point x="85" y="76" type="line"/>
			<point x="169" y="158" type="line"/>
			<point x="200" y="132"/>
			<point x="242" y="117"/>
			<point x="293" y="117" type="curve" smooth="yes"/>
			<point x="336" y="117"/>
			<point x="375" y="128"/>
			<point x="407" y="149" type="curve"/>
			<point x="472" y="64" type="line"/>
			<point x="527" y="109" type="line"/>
			<point x="459" y="197" type="line"/>
			<point x="491" y="239"/>
			<point x="510" y="295"/>
			<point x="512" y="360" type="curve" smooth="yes"/>
			<point x="514" y="403"/>
			<point x="506" y="440"/>
			<point x="490" y="471" type="curve"/>
			<point x="579" y="556" type="line"/>
			<point x="534" y="604" type="line"/>
			<point x="449" y="523" type="line"/>
			<point x="419" y="549"/>
			<point x="378" y="563"/>
			<point x="329" y="563" type="curve" smooth="yes"/>
			<point x="286" y="563"/>
			<point x="248" y="552"/>
			<point x="216" y="532" type="curve"/>
			<point x="150" y="618" type="line"/>
			<point x="96" y="573" type="line"/>
			<point x="164" y="486" type="line"/>
			<point x="130" y="444"/>
			<point x="109" y="387"/>
			<point x="107" y="320" type="curve" smooth="yes"/>
			<point x="105" y="278"/>
			<point x="113" y="240"/>
			<point x="128" y="209" type="curve"/>
			<point x="40" y="125" type="line"/>
		</contour>
		<contour>
			<point x="297" y="185" type="curve" smooth="yes"/>
			<point x="221" y="185"/>
			<point x="177" y="235"/>
			<point x="179" y="323" type="curve" smooth="yes"/>
			<point x="181" y="430"/>
			<point x="233" y="495"/>
			<point x="324" y="495" type="curve" smooth="yes"/>
			<point x="399" y="495"/>
			<point x="443" y="444"/>
			<point x="441" y="357" type="curve" smooth="yes"/>
			<point x="439" y="250"/>
			<point x="386" y="185"/>
		</contour>
	</outline>
</glyph>
<glyph name="yen" format="2">
	<unicode hex="00A5"/>
	<advance width="600"/>
	<outline>
		<contour>
			<point x="76" y="185" type="line"/>
			<point x="242" y="185" type="line"/>
			<point x="216" y="0" type="line"/>
			<point x="302" y="0" type="line"/>
			<point x="328" y="185" type="line"/>
			<point x="495" y="185" type="line"/>
			<point x="503" y="243" type="line"/>
			<point x="343" y="243" type="line"/>
			<point x="390" y="316" type="line"/>
			<point x="513" y="316" type="line"/>
			<point x="521" y="375" type="line"/>
			<point x="428" y="375" type="line"/>
			<point x="628" y="684" type="line"/>
			<point x="533" y="684" type="line"/>
			<point x="304" y="317" type="line"/>
			<point x="182" y="684" type="line"/>
			<point x="90" y="684" type="line"/>
			<point x="197" y="375" type="line"/>
			<point x="102" y="375" type="line"/>
			<point x="94" y="316" type="line"/>
			<point x="218" y="316" type="line"/>
			<point x="243" y="243" type="line"/>
			<point x="84" y="243" type="line"/>
		</contour>
	</outline>
</glyph>
<glyph name="section" format="2">
	<unicode hex="00A7"/>
	<advance width="600"/>
	<outline>
		<contour>
			<point x="275" y="-85" type="curve" smooth="yes"/>
			<point x="386" y="-85"/>
			<point x="469" y="-19"/>
			<point x="469" y="90" type="curve" smooth="yes"/>
			<point x="469" y="139"/>
			<point x="446" y="178"/>
			<point x="404" y="202" type="curve"/>
			<point x="470" y="215"/>
			<point x="522" y="258"/>
			<point x="522" y="328" type="curve" smooth="yes"/>
			<point x="522" y="413"/>
			<point x="436" y="433"/>
			<point x="343" y="450" type="curve" smooth="yes"/>
			<point x="272" y="462"/>
			<point x="221" y="473"/>
			<point x="221" y="537" type="curve" smooth="yes"/>
			<point x="221" y="597"/>
			<point x="266" y="635"/>
			<point x="342" y="635" type="curve" smooth="yes"/>
			<point x="418" y="635"/>
			<point x="485" y="611"/>
			<point x="528" y="575" type="curve"/>
			<point x="538" y="644" type="line"/>
			<point x="501" y="670"/>
			<point x="437" y="698"/>
			<point x="342" y="698" type="curve" smooth="yes"/>
			<point x="229" y="698"/>
			<point x="145" y="634"/>
			<point x="145" y="526" type="curve" smooth="yes"/>
			<point x="145" y="463"/>
			<point x="173" y="427"/>
			<point x="212" y="406" type="curve"/>
			<point x="139" y="391"/>
			<point x="91" y="351"/>
			<point x="91" y="284" type="curve" smooth="yes"/>
			<point x="91" y="199"/>
			<point x="175" y="178"/>
			<point x="279" y="161" type="curve" smooth="yes"/>
			<point x="342" y="151"/>
			<point x="392" y="135"/>
			<point x="392" y="78" type="curve" smooth="yes"/>
			<point x="392" y="17"/>
			<point x="348" y="-20"/>
			<point x="273" y="-20" type="curve" smooth="yes"/>
			<point x="201" y="-20"/>
			<point x="133" y="7"/>
			<point x="81" y="52" type="curve"/>
			<point x="71" y="-19" type="line"/>
			<point x="114" y="-54"/>
			<point x="181" y="-85"/>
		</contour>
		<contour>
			<point x="313" y="229" type="curve" smooth="yes"/>
			<point x="241" y="243"/>
			<point x="162" y="250"/>
			<point x="162" y="313" type="curve" smooth="yes"/>
			<point x="162" y="362"/>
			<point x="205" y="390"/>
			<point x="272" y="387" type="curve"/>
			<point x="273" y="386"/>
			<point x="275" y="386"/>
			<point x="276" y="386" type="curve"/>
			<point x="275" y="386" type="line"/>
			<point x="285" y="386"/>
			<point x="294" y="385"/>
			<point x="304" y="383" type="curve" smooth="yes"/>
			<point x="378" y="370"/>
			<point x="452" y="362"/>
			<point x="452" y="301" type="curve" smooth="yes"/>
			<point x="452" y="246"/>
			<point x="402" y="211"/>
		</contour>
	</outline>
</glyph>
<glyph name="dieresis" format="2">
	<unicode hex="00A8"/>
	<advance width="600"/>
	<outline>
		<contour>
			<point x="451" y="630" type="curve" smooth="yes"/>
			<point x="494" y="630"/>
			<point x="508" y="648"/>
			<point x="512" y="681" type="curve" smooth="yes"/>
			<point x="516" y="712"/>
			<point x="503" y="732"/>
			<point x="460" y="732" type="curve" smooth="yes"/>
			<point x="417" y="732"/>
			<point x="403" y="714"/>
			<point x="399" y="681" type="curve" smooth="yes"/>
			<point x="396" y="650"/>
			<point x="408" y="630"/>
		</contour>
		<contour>
			<point x="258" y="630" type="curve" smooth="yes"/>
			<point x="300" y="630"/>
			<point x="315" y="648"/>
			<point x="318" y="681" type="curve" smooth="yes"/>
			<point x="322" y="712"/>
			<point x="309" y="732"/>
			<point x="266" y="732" type="curve" smooth="yes"/>
			<point x="224" y="732"/>
			<point x="209" y="714"/>
			<point x="206" y="681" type="curve" smooth="yes"/>
			<point x="202" y="650"/>
			<point x="215" y="630"/>
		</contour>
	</outline>
	<anchor name="_top" x="337" y="523"/>
</glyph>
<glyph name="ordfeminine" format="2">
	<unicode hex="00AA"/>
	<advance width="600"/>
	<outline>
		<contour>
			<point x="249" y="224" type="curve" smooth="yes"/>
			<point x="320" y="224"/>
			<point x="373" y="257"/>
			<point x="409" y="323" type="curve"/>
			<point x="396" y="235" type="line"/>
			<point x="467" y="235" type="line"/>
			<point x="505" y="505" type="line" smooth="yes"/>
			<point x="524" y="636"/>
			<point x="454" y="696"/>
			<point x="332" y="696" type="curve" smooth="yes"/>
			<point x="258" y="696"/>
			<point x="205" y="675"/>
			<point x="171" y="656" type="curve"/>
			<point x="162" y="588" type="line"/>
			<point x="211" y="623"/>
			<point x="262" y="638"/>
			<point x="318" y="638" type="curve" smooth="yes"/>
			<point x="397" y="638"/>
			<point x="447" y="608"/>
			<point x="434" y="515" type="curve"/>
			<point x="325" y="499" type="line" smooth="yes"/>
			<point x="189" y="479"/>
			<point x="117" y="429"/>
			<point x="117" y="339" type="curve" smooth="yes"/>
			<point x="117" y="269"/>
			<point x="167" y="224"/>
		</contour>
		<contour>
			<point x="274" y="280" type="curve" smooth="yes"/>
			<point x="222" y="280"/>
			<point x="188" y="305"/>
			<point x="188" y="349" type="curve" smooth="yes"/>
			<point x="188" y="415"/>
			<point x="244" y="437"/>
			<point x="334" y="451" type="curve" smooth="yes"/>
			<point x="428" y="466" type="line"/>
			<point x="422" y="424" type="line" smooth="yes"/>
			<point x="408" y="326"/>
			<point x="347" y="280"/>
		</contour>
	</outline>
	<anchor name="ogonek" x="386" y="235"/>
	<anchor name="top" x="273" y="685"/>
	<anchor name="right" x="404" y="235"/>
	<anchor name="bottom" x="207" y="234"/>
</glyph>
<glyph name="guillemetleft" format="2">
	<unicode hex="00AB"/>
	<advance width="600"/>
	<outline>
		<contour>
			<point x="299" y="77" type="line"/>
			<point x="163" y="284" type="line"/>
			<point x="359" y="497" type="line"/>
			<point x="264" y="497" type="line"/>
			<point x="72" y="287" type="line"/>
			<point x="210" y="77" type="line"/>
		</contour>
		<contour>
			<point x="500" y="77" type="line"/>
			<point x="364" y="284" type="line"/>
			<point x="560" y="497" type="line"/>
			<point x="465" y="497" type="line"/>
			<point x="273" y="287" type="line"/>
			<point x="411" y="77" type="line"/>
		</contour>
	</outline>
</glyph>
<glyph name="degree" format="2">
	<unicode hex="00B0"/>
	<advance width="600"/>
	<outline>
		<contour>
			<point x="325" y="304" type="curve" smooth="yes"/>
			<point x="439" y="304"/>
			<point x="523" y="399"/>
			<point x="523" y="514" type="curve" smooth="yes"/>
			<point x="523" y="622"/>
			<point x="452" y="696"/>
			<point x="344" y="696" type="curve" smooth="yes"/>
			<point x="229" y="696"/>
			<point x="145" y="605"/>
			<point x="145" y="489" type="curve" smooth="yes"/>
			<point x="145" y="381"/>
			<point x="214" y="304"/>
		</contour>
		<contour>
			<point x="325" y="367" type="curve" smooth="yes"/>
			<point x="255" y="367"/>
			<point x="210" y="419"/>
			<point x="210" y="493" type="curve" smooth="yes"/>
			<point x="210" y="576"/>
			<point x="269" y="632"/>
			<point x="341" y="632" type="curve" smooth="yes"/>
			<point x="415" y="632"/>
			<point x="458" y="584"/>
			<point x="458" y="509" type="curve" smooth="yes"/>
			<point x="458" y="427"/>
			<point x="402" y="367"/>
		</contour>
	</outline>
</glyph>
<glyph name="mu" format="2">
	<unicode hex="00B5"/>
	<advance width="600"/>
	<outline>
		<contour>
			<point x="26" y="-191" type="line"/>
			<point x="110" y="-191" type="line"/>
			<point x="139" y="18" type="line"/>
			<point x="161" y="-4"/>
			<point x="195" y="-14"/>
			<point x="232" y="-14" type="curve" smooth="yes"/>
			<point x="306" y="-14"/>
			<point x="365" y="26"/>
			<point x="401" y="96" type="curve"/>
			<point x="387" y="0" type="line"/>
			<point x="469" y="0" type="line"/>
			<point x="543" y="523" type="line"/>
			<point x="459" y="523" type="line"/>
			<point x="417" y="221" type="line" smooth="yes"/>
			<point x="411" y="181"/>
			<point x="399" y="146"/>
			<point x="381" y="119" type="curve" smooth="yes"/>
			<point x="356" y="79"/>
			<point x="318" y="56"/>
			<point x="266" y="56" type="curve" smooth="yes"/>
			<point x="192" y="56"/>
			<point x="152" y="103"/>
			<point x="165" y="201" type="curve" smooth="yes"/>
			<point x="211" y="523" type="line"/>
			<point x="127" y="523" type="line"/>
			<point x="81" y="197" type="line"/>
		</contour>
	</outline>
	<anchor name="ogonek" x="490" y="0"/>
	<anchor name="bottom" x="280" y="0"/>
	<anchor name="top" x="348" y="534"/>
</glyph>
<glyph name="cedilla" format="2">
	<unicode hex="00B8"/>
	<advance width="600"/>
	<outline>
		<contour>
			<point x="224" y="-219" type="curve" smooth="yes"/>
			<point x="294" y="-219"/>
			<point x="338" y="-185"/>
			<point x="340" y="-124" type="curve" smooth="yes"/>
			<point x="341" y="-77"/>
			<point x="315" y="-51"/>
			<point x="262" y="-47" type="curve"/>
			<point x="291" y="0" type="line"/>
			<point x="236" y="0" type="line"/>
			<point x="182" y="-91" type="line"/>
			<point x="194" y="-89"/>
			<point x="206" y="-87"/>
			<point x="219" y="-87" type="curve" smooth="yes"/>
			<point x="256" y="-87"/>
			<point x="278" y="-97"/>
			<point x="278" y="-124" type="curve" smooth="yes"/>
			<point x="278" y="-156"/>
			<point x="255" y="-168"/>
			<point x="219" y="-168" type="curve" smooth="yes"/>
			<point x="192" y="-168"/>
			<point x="165" y="-160"/>
			<point x="145" y="-148" type="curve"/>
			<point x="138" y="-198" type="line"/>
			<point x="157" y="-211"/>
			<point x="191" y="-219"/>
		</contour>
	</outline>
	<anchor name="_bottom" x="262" y="0"/>
</glyph>
<glyph name="ordmasculine" format="2">
	<unicode hex="00BA"/>
	<advance width="600"/>
	<outline>
		<contour>
			<point x="312" y="224" type="curve" smooth="yes"/>
			<point x="433" y="224"/>
			<point x="521" y="307"/>
			<point x="540" y="441" type="curve" smooth="yes"/>
			<point x="561" y="594"/>
			<point x="481" y="696"/>
			<point x="345" y="696" type="curve" smooth="yes"/>
			<point x="222" y="696"/>
			<point x="135" y="614"/>
			<point x="116" y="479" type="curve" smooth="yes"/>
			<point x="95" y="326"/>
			<point x="175" y="224"/>
		</contour>
		<contour>
			<point x="316" y="281" type="curve" smooth="yes"/>
			<point x="218" y="281"/>
			<point x="173" y="359"/>
			<point x="190" y="475" type="curve" smooth="yes"/>
			<point x="204" y="579"/>
			<point x="255" y="639"/>
			<point x="341" y="639" type="curve" smooth="yes"/>
			<point x="438" y="639"/>
			<point x="482" y="561"/>
			<point x="466" y="445" type="curve" smooth="yes"/>
			<point x="452" y="341"/>
			<point x="401" y="281"/>
		</contour>
	</outline>
</glyph>
<glyph name="guillemetright" format="2">
	<unicode hex="00BB"/>
	<advance width="600"/>
	<outline>
		<contour>
			<point x="249" y="77" type="line"/>
			<point x="343" y="77" type="line"/>
			<point x="536" y="287" type="line"/>
			<point x="399" y="497" type="line"/>
			<point x="309" y="497" type="line"/>
			<point x="446" y="291" type="line"/>
		</contour>
		<contour>
			<point x="47" y="77" type="line"/>
			<point x="141" y="77" type="line"/>
			<point x="334" y="287" type="line"/>
			<point x="196" y="497" type="line"/>
			<point x="107" y="497" type="line"/>
			<point x="243" y="290" type="line"/>
		</contour>
	</outline>
</glyph>
<glyph name="questiondown" format="2">
	<unicode hex="00BF"/>
	<advance width="600"/>
	<outline>
		<contour>
			<point x="354" y="535" type="curve" smooth="yes"/>
			<point x="308" y="535"/>
			<point x="288" y="516"/>
			<point x="284" y="480" type="curve" smooth="yes"/>
			<point x="279" y="439"/>
			<point x="297" y="415"/>
			<point x="346" y="415" type="curve" smooth="yes"/>
			<point x="392" y="415"/>
			<point x="411" y="434"/>
			<point x="415" y="470" type="curve" smooth="yes"/>
			<point x="421" y="512"/>
			<point x="403" y="535"/>
		</contour>
		<contour>
			<point x="372" y="325" type="curve"/>
			<point x="297" y="325" type="line"/>
			<point x="294" y="293" type="line" smooth="yes"/>
			<point x="278" y="149"/>
			<point x="68" y="147"/>
			<point x="68" y="-19" type="curve" smooth="yes"/>
			<point x="68" y="-109"/>
			<point x="130" y="-175"/>
			<point x="263" y="-175" type="curve" smooth="yes"/>
			<point x="335" y="-175"/>
			<point x="397" y="-156"/>
			<point x="448" y="-125" type="curve"/>
			<point x="459" y="-44" type="line"/>
			<point x="411" y="-78"/>
			<point x="348" y="-102"/>
			<point x="277" y="-102" type="curve" smooth="yes"/>
			<point x="196" y="-102"/>
			<point x="154" y="-69"/>
			<point x="154" y="-8" type="curve" smooth="yes"/>
			<point x="154" y="115"/>
			<point x="351" y="110"/>
			<point x="371" y="284" type="curve" smooth="yes"/>
			<point x="373" y="305"/>
			<point x="373" y="321"/>
		</contour>
	</outline>
</glyph>
<glyph name="Ccedilla" format="2">
	<unicode hex="00C7"/>
	<advance width="600"/>
	<outline>
		<contour>
			<point x="287" y="-219" type="curve" smooth="yes"/>
			<point x="357" y="-219"/>
			<point x="401" y="-185"/>
			<point x="403" y="-124" type="curve" smooth="yes"/>
			<point x="404" y="-77"/>
			<point x="378" y="-51"/>
			<point x="325" y="-47" type="curve"/>
			<point x="347" y="-12" type="line"/>
			<point x="363" y="-12" type="line" smooth="yes"/>
			<point x="422" y="-12"/>
			<point x="464" y="-1"/>
			<point x="499" y="15" type="curve"/>
			<point x="510" y="91" type="line"/>
			<point x="469" y="71"/>
			<point x="423" y="61"/>
			<point x="375" y="61" type="curve" smooth="yes"/>
			<point x="200" y="61"/>
			<point x="145" y="212"/>
			<point x="168" y="370" type="curve" smooth="yes"/>
			<point x="169" y="377" type="line" smooth="yes"/>
			<point x="191" y="531"/>
			<point x="271" y="622"/>
			<point x="413" y="622" type="curve" smooth="yes"/>
			<point x="473" y="622"/>
			<point x="530" y="606"/>
			<point x="575" y="574" type="curve"/>
			<point x="586" y="652" type="line"/>
			<point x="545" y="676"/>
			<point x="483" y="695"/>
			<point x="411" y="695" type="curve" smooth="yes"/>
			<point x="217" y="695"/>
			<point x="108" y="571"/>
			<point x="82" y="391" type="curve" smooth="yes"/>
			<point x="80" y="377" type="line" smooth="yes"/>
			<point x="55" y="199"/>
			<point x="111" y="27"/>
			<point x="295" y="-6" type="curve"/>
			<point x="245" y="-91" type="line"/>
			<point x="257" y="-89"/>
			<point x="269" y="-87"/>
			<point x="282" y="-87" type="curve" smooth="yes"/>
			<point x="319" y="-87"/>
			<point x="341" y="-97"/>
			<point x="341" y="-124" type="curve" smooth="yes"/>
			<point x="341" y="-156"/>
			<point x="318" y="-168"/>
			<point x="282" y="-168" type="curve" smooth="yes"/>
			<point x="255" y="-168"/>
			<point x="228" y="-160"/>
			<point x="208" y="-148" type="curve"/>
			<point x="201" y="-198" type="line"/>
			<point x="220" y="-211"/>
			<point x="254" y="-219"/>
		</contour>
	</outline>
</glyph>
<glyph name="multiply" format="2">
	<unicode hex="00D7"/>
	<advance width="600"/>
	<outline>
		<contour>
			<point x="121" y="98" type="line"/>
			<point x="302" y="260" type="line"/>
			<point x="435" y="102" type="line"/>
			<point x="490" y="150" type="line"/>
			<point x="357" y="308" type="line"/>
			<point x="539" y="471" type="line"/>
			<point x="493" y="524" type="line"/>
			<point x="311" y="362" type="line"/>
			<point x="179" y="520" type="line"/>
			<point x="123" y="472" type="line"/>
			<point x="257" y="314" type="line"/>
			<point x="75" y="152" type="line"/>
		</contour>
	</outline>
</glyph>
<glyph name="Thorn" format="2">
	<unicode hex="00DE"/>
	<advance width="600"/>
	<outline>
		<contour>
			<point x="146" y="699" type="line"/>
			<point x="48" y="0" type="line"/>
			<point x="133" y="0" type="line"/>
			<point x="151" y="127" type="line"/>
			<point x="319" y="127" type="line" smooth="yes"/>
			<point x="470" y="127"/>
			<point x="572" y="224"/>
			<point x="572" y="380" type="curve" smooth="yes"/>
			<point x="572" y="500"/>
			<point x="495" y="584"/>
			<point x="355" y="584" type="curve" smooth="yes"/>
			<point x="215" y="584" type="line"/>
			<point x="232" y="699" type="line"/>
		</contour>
		<contour>
			<point x="341" y="513" type="line" smooth="yes"/>
			<point x="443" y="513"/>
			<point x="485" y="450"/>
			<point x="485" y="372" type="curve" smooth="yes"/>
			<point x="485" y="263"/>
			<point x="419" y="198"/>
			<point x="314" y="198" type="curve" smooth="yes"/>
			<point x="162" y="198" type="line"/>
			<point x="205" y="513" type="line"/>
		</contour>
	</outline>
</glyph>
<glyph name="germandbls" format="2">
	<unicode hex="00DF"/>
	<advance width="600"/>
	<outline>
		<contour>
			<point x="318" y="-9" type="curve" smooth="yes"/>
			<point x="451" y="-9"/>
			<point x="539" y="78"/>
			<point x="539" y="209" type="curve" smooth="yes"/>
			<point x="539" y="300"/>
			<point x="485" y="359"/>
			<point x="402" y="377" type="curve"/>
			<point x="484" y="389"/>
			<point x="566" y="454"/>
			<point x="566" y="578" type="curve" smooth="yes"/>
			<point x="566" y="685"/>
			<point x="499" y="760"/>
			<point x="358" y="760" type="curve" smooth="yes"/>
			<point x="203" y="760"/>
			<point x="127" y="663"/>
			<point x="108" y="526" type="curve" smooth="yes"/>
			<point x="35" y="0" type="line"/>
			<point x="119" y="0" type="line"/>
			<point x="195" y="529" type="line" smooth="yes"/>
			<point x="210" y="637"/>
			<point x="262" y="691"/>
			<point x="353" y="691" type="curve" smooth="yes"/>
			<point x="435" y="691"/>
			<point x="481" y="648"/>
			<point x="481" y="570" type="curve" smooth="yes"/>
			<point x="481" y="470"/>
			<point x="425" y="409"/>
			<point x="329" y="409" type="curve" smooth="yes"/>
			<point x="229" y="409" type="line"/>
			<point x="219" y="340" type="line"/>
			<point x="307" y="340" type="line" smooth="yes"/>
			<point x="404" y="340"/>
			<point x="454" y="297"/>
			<point x="454" y="209" type="curve" smooth="yes"/>
			<point x="454" y="116"/>
			<point x="396" y="57"/>
			<point x="307" y="57" type="curve" smooth="yes"/>
			<point x="256" y="57"/>
			<point x="217" y="71"/>
			<point x="188" y="91" type="curve"/>
			<point x="177" y="26" type="line"/>
			<point x="205" y="7"/>
			<point x="253" y="-9"/>
		</contour>
	</outline>
</glyph>
<glyph name="ae" format="2">
	<unicode hex="00E6"/>
	<advance width="600"/>
	<outline>
		<contour>
			<point x="110" y="-14" type="curve" smooth="yes"/>
			<point x="167" y="-14"/>
			<point x="220" y="19"/>
			<point x="252" y="110" type="curve"/>
			<point x="269" y="33"/>
			<point x="316" y="-14"/>
			<point x="417" y="-14" type="curve" smooth="yes"/>
			<point x="466" y="-14"/>
			<point x="515" y="7"/>
			<point x="536" y="24" type="curve"/>
			<point x="545" y="94" type="line"/>
			<point x="513" y="69"/>
			<point x="474" y="53"/>
			<point x="431" y="53" type="curve" smooth="yes"/>
			<point x="334" y="53"/>
			<point x="306" y="123"/>
			<point x="322" y="240" type="curve"/>
			<point x="579" y="240" type="line"/>
			<point x="586" y="280" type="line" smooth="yes"/>
			<point x="609" y="422"/>
			<point x="578" y="537"/>
			<point x="459" y="537" type="curve" smooth="yes"/>
			<point x="406" y="537"/>
			<point x="360" y="509"/>
			<point x="326" y="458" type="curve"/>
			<point x="310" y="508"/>
			<point x="270" y="537"/>
			<point x="202" y="537" type="curve" smooth="yes"/>
			<point x="136" y="537"/>
			<point x="84" y="510"/>
			<point x="58" y="493" type="curve"/>
			<point x="48" y="419" type="line"/>
			<point x="93" y="456"/>
			<point x="143" y="470"/>
			<point x="185" y="470" type="curve" smooth="yes"/>
			<point x="253" y="470"/>
			<point x="275" y="429"/>
			<point x="263" y="341" type="curve" smooth="yes"/>
			<point x="261" y="324" type="line"/>
			<point x="198" y="312" type="line" smooth="yes"/>
			<point x="73" y="287"/>
			<point x="-2" y="228"/>
			<point x="-2" y="110" type="curve" smooth="yes"/>
			<point x="-2" y="32"/>
			<point x="43" y="-14"/>
		</contour>
		<contour>
			<point x="448" y="474" type="curve" smooth="yes"/>
			<point x="514" y="474"/>
			<point x="526" y="399"/>
			<point x="514" y="298" type="curve"/>
			<point x="329" y="298" type="line"/>
			<point x="348" y="417"/>
			<point x="388" y="474"/>
		</contour>
		<contour>
			<point x="71" y="125" type="curve" smooth="yes"/>
			<point x="71" y="205"/>
			<point x="122" y="241"/>
			<point x="203" y="256" type="curve" smooth="yes"/>
			<point x="252" y="265" type="line"/>
			<point x="238" y="169" type="line" smooth="yes"/>
			<point x="227" y="89"/>
			<point x="185" y="48"/>
			<point x="136" y="48" type="curve" smooth="yes"/>
			<point x="97" y="48"/>
			<point x="71" y="79"/>
		</contour>
	</outline>
	<anchor name="top" x="333" y="523"/>
</glyph>
<glyph name="thorn" format="2">
	<unicode hex="00FE"/>
	<advance width="600"/>
	<outline>
		<contour>
			<point x="162" y="750" type="line"/>
			<point x="29" y="-204" type="line"/>
			<point x="113" y="-204" type="line"/>
			<point x="140" y="0" type="line"/>
			<point x="221" y="0" type="line" smooth="yes"/>
			<point x="397" y="0"/>
			<point x="507" y="99"/>
			<point x="530" y="260" type="curve" smooth="yes"/>
			<point x="532" y="274" type="line" smooth="yes"/>
			<point x="556" y="442"/>
			<point x="485" y="537"/>
			<point x="369" y="537" type="curve" smooth="yes"/>
			<point x="303" y="537"/>
			<point x="244" y="505"/>
			<point x="200" y="426" type="curve"/>
			<point x="246" y="750" type="line"/>
		</contour>
		<contour>
			<point x="335" y="468" type="curve" smooth="yes"/>
			<point x="418" y="468"/>
			<point x="464" y="400"/>
			<point x="446" y="272" type="curve" smooth="yes"/>
			<point x="445" y="265" type="line" smooth="yes"/>
			<point x="426" y="134"/>
			<point x="352" y="68"/>
			<point x="230" y="68" type="curve" smooth="yes"/>
			<point x="150" y="68" type="line"/>
			<point x="183" y="300" type="line" smooth="yes"/>
			<point x="198" y="397"/>
			<point x="250" y="468"/>
		</contour>
	</outline>
</glyph>
<glyph name="aogonek" format="2">
	<unicode hex="0105"/>
	<advance width="600"/>
	<outline>
		<contour>
			<point x="216" y="-14" type="curve" smooth="yes"/>
			<point x="296" y="-14"/>
			<point x="351" y="28"/>
			<point x="390" y="93" type="curve"/>
			<point x="377" y="0" type="line"/>
			<point x="390" y="0" type="line"/>
			<point x="318" y="-23"/>
			<point x="276" y="-69"/>
			<point x="276" y="-122" type="curve" smooth="yes"/>
			<point x="276" y="-180"/>
			<point x="317" y="-203"/>
			<point x="383" y="-203" type="curve" smooth="yes"/>
			<point x="405" y="-203"/>
			<point x="429" y="-198"/>
			<point x="441" y="-193" type="curve"/>
			<point x="449" y="-134" type="line"/>
			<point x="439" y="-138"/>
			<point x="422" y="-141"/>
			<point x="405" y="-141" type="curve" smooth="yes"/>
			<point x="373" y="-141"/>
			<point x="350" y="-130"/>
			<point x="350" y="-100" type="curve" smooth="yes"/>
			<point x="350" y="-63"/>
			<point x="379" y="-28"/>
			<point x="459" y="0" type="curve"/>
			<point x="505" y="320" type="line" smooth="yes"/>
			<point x="526" y="474"/>
			<point x="446" y="537"/>
			<point x="318" y="537" type="curve" smooth="yes"/>
			<point x="243" y="537"/>
			<point x="177" y="517"/>
			<point x="130" y="491" type="curve"/>
			<point x="118" y="413" type="line"/>
			<point x="178" y="453"/>
			<point x="241" y="467"/>
			<point x="301" y="467" type="curve" smooth="yes"/>
			<point x="396" y="467"/>
			<point x="435" y="418"/>
			<point x="422" y="326" type="curve"/>
			<point x="302" y="308" type="line" smooth="yes"/>
			<point x="146" y="285"/>
			<point x="66" y="229"/>
			<point x="67" y="115" type="curve" smooth="yes"/>
			<point x="68" y="35"/>
			<point x="123" y="-14"/>
		</contour>
		<contour>
			<point x="247" y="50" type="curve" smooth="yes"/>
			<point x="190" y="50"/>
			<point x="150" y="81"/>
			<point x="150" y="132" type="curve" smooth="yes"/>
			<point x="149" y="199"/>
			<point x="199" y="234"/>
			<point x="307" y="251" type="curve" smooth="yes"/>
			<point x="414" y="267" type="line"/>
			<point x="404" y="200" type="line" smooth="yes"/>
			<point x="391" y="114"/>
			<point x="332" y="50"/>
		</contour>
	</outline>
</glyph>
<glyph name="dcaron" format="2">
	<unicode hex="010F"/>
	<advance width="600"/>
	<outline>
		<contour>
			<point x="223" y="-14" type="curve" smooth="yes"/>
			<point x="291" y="-14"/>
			<point x="352" y="20"/>
			<point x="392" y="104" type="curve"/>
			<point x="377" y="0" type="line"/>
			<point x="456" y="0" type="line"/>
			<point x="562" y="750" type="line"/>
			<point x="480" y="750" type="line"/>
			<point x="448" y="523" type="line"/>
			<point x="369" y="523" type="line" smooth="yes"/>
			<point x="199" y="523"/>
			<point x="90" y="424"/>
			<point x="67" y="263" type="curve" smooth="yes"/>
			<point x="65" y="249" type="line" smooth="yes"/>
			<point x="41" y="83"/>
			<point x="107" y="-14"/>
		</contour>
		<contour>
			<point x="591" y="574" type="line"/>
			<point x="643" y="574" type="line"/>
			<point x="722" y="750" type="line"/>
			<point x="641" y="750" type="line"/>
		</contour>
		<contour>
			<point x="259" y="53" type="curve" smooth="yes"/>
			<point x="176" y="53"/>
			<point x="131" y="126"/>
			<point x="149" y="252" type="curve" smooth="yes"/>
			<point x="150" y="259" type="line" smooth="yes"/>
			<point x="169" y="392"/>
			<point x="241" y="457"/>
			<point x="360" y="457" type="curve" smooth="yes"/>
			<point x="439" y="457" type="line"/>
			<point x="406" y="218" type="line" smooth="yes"/>
			<point x="393" y="124"/>
			<point x="338" y="53"/>
		</contour>
	</outline>
</glyph>
<glyph name="Eogonek" format="2">
	<unicode hex="0118"/>
	<advance width="600"/>
	<outline>
		<contour>
			<point x="417" y="-203" type="curve" smooth="yes"/>
			<point x="439" y="-203"/>
			<point x="463" y="-198"/>
			<point x="475" y="-193" type="curve"/>
			<point x="483" y="-134" type="line"/>
			<point x="473" y="-138"/>
			<point x="456" y="-141"/>
			<point x="439" y="-141" type="curve" smooth="yes"/>
			<point x="407" y="-141"/>
			<point x="384" y="-130"/>
			<point x="384" y="-100" type="curve" smooth="yes"/>
			<point x="384" y="-63"/>
			<point x="413" y="-28"/>
			<point x="493" y="0" type="curve"/>
			<point x="504" y="73" type="line"/>
			<point x="150" y="73" type="line"/>
			<point x="184" y="307" type="line"/>
			<point x="493" y="307" type="line"/>
			<point x="504" y="379" type="line"/>
			<point x="194" y="379" type="line"/>
			<point x="226" y="612" type="line"/>
			<point x="572" y="612" type="line"/>
			<point x="583" y="684" type="line"/>
			<point x="151" y="684" type="line"/>
			<point x="55" y="0" type="line"/>
			<point x="424" y="0" type="line"/>
			<point x="352" y="-23"/>
			<point x="310" y="-69"/>
			<point x="310" y="-122" type="curve" smooth="yes"/>
			<point x="310" y="-180"/>
			<point x="351" y="-203"/>
		</contour>
	</outline>
</glyph>
<glyph name="Hbar" format="2">
	<unicode hex="0126"/>
	<advance width="600"/>
	<outline>
		<contour>
			<point x="39" y="0" type="line"/>
			<point x="124" y="0" type="line"/>
			<point x="167" y="303" type="line"/>
			<point x="445" y="303" type="line"/>
			<point x="402" y="0" type="line"/>
			<point x="487" y="0" type="line"/>
			<point x="556" y="491" type="line"/>
			<point x="633" y="491" type="line"/>
			<point x="641" y="549" type="line"/>
			<point x="564" y="549" type="line"/>
			<point x="583" y="684" type="line"/>
			<point x="498" y="684" type="line"/>
			<point x="479" y="549" type="line"/>
			<point x="201" y="549" type="line"/>
			<point x="220" y="684" type="line"/>
			<point x="135" y="684" type="line"/>
			<point x="116" y="549" type="line"/>
			<point x="41" y="549" type="line"/>
			<point x="33" y="491" type="line"/>
			<point x="108" y="491" type="line"/>
		</contour>
		<contour>
			<point x="177" y="376" type="line"/>
			<point x="193" y="491" type="line"/>
			<point x="471" y="491" type="line"/>
			<point x="455" y="376" type="line"/>
		</contour>
	</outline>
	<anchor name="center" x="337" y="523"/>
	<anchor name="bottom" x="275" y="0"/>
	<anchor name="top" x="359" y="684"/>
</glyph>
<glyph name="iogonek" format="2">
	<unicode hex="012F"/>
	<advance width="600"/>
	<outline>
		<contour>
			<point x="373" y="636" type="curve" smooth="yes"/>
			<point x="417" y="636"/>
			<point x="434" y="654"/>
			<point x="438" y="689" type="curve" smooth="yes"/>
			<point x="442" y="724"/>
			<point x="424" y="743"/>
			<point x="381" y="743" type="curve" smooth="yes"/>
			<point x="335" y="743"/>
			<point x="318" y="725"/>
			<point x="315" y="690" type="curve" smooth="yes"/>
			<point x="311" y="654"/>
			<point x="328" y="636"/>
		</contour>
		<contour>
			<point x="49" y="0" type="line"/>
			<point x="436" y="0" type="line"/>
			<point x="364" y="-23"/>
			<point x="322" y="-69"/>
			<point x="322" y="-122" type="curve" smooth="yes"/>
			<point x="322" y="-180"/>
			<point x="363" y="-203"/>
			<point x="429" y="-203" type="curve" smooth="yes"/>
			<point x="451" y="-203"/>
			<point x="475" y="-198"/>
			<point x="487" y="-193" type="curve"/>
			<point x="495" y="-134" type="line"/>
			<point x="485" y="-138"/>
			<point x="468" y="-141"/>
			<point x="451" y="-141" type="curve" smooth="yes"/>
			<point x="419" y="-141"/>
			<point x="396" y="-130"/>
			<point x="396" y="-100" type="curve" smooth="yes"/>
			<point x="396" y="-63"/>
			<point x="425" y="-28"/>
			<point x="505" y="0" type="curve"/>
			<point x="515" y="70" type="line"/>
			<point x="334" y="70" type="line"/>
			<point x="398" y="523" type="line"/>
			<point x="124" y="523" type="line"/>
			<point x="114" y="453" type="line"/>
			<point x="304" y="453" type="line"/>
			<point x="250" y="70" type="line"/>
			<point x="60" y="70" type="line"/>
		</contour>
	</outline>
</glyph>
<glyph name="Lslash" format="2">
	<unicode hex="0141"/>
	<advance width="600"/>
	<outline>
		<contour>
			<point x="63" y="0" type="line"/>
			<point x="500" y="0" type="line"/>
			<point x="512" y="78" type="line"/>
			<point x="159" y="78" type="line"/>
			<point x="191" y="312" type="line"/>
			<point x="383" y="384" type="line"/>
			<point x="392" y="453" type="line"/>
			<point x="201" y="381" type="line"/>
			<point x="243" y="684" type="line"/>
			<point x="159" y="684" type="line"/>
			<point x="112" y="347" type="line"/>
			<point x="27" y="315" type="line"/>
			<point x="18" y="246" type="line"/>
			<point x="102" y="278" type="line"/>
		</contour>
	</outline>
</glyph>
<glyph name="lslash" format="2">
	<unicode hex="0142"/>
	<advance width="600"/>
	<outline>
		<contour>
			<point x="39" y="0" type="line"/>
			<point x="494" y="0" type="line"/>
			<point x="505" y="70" type="line"/>
			<point x="323" y="70" type="line"/>
			<point x="365" y="358" type="line"/>
			<point x="543" y="423" type="line"/>
			<point x="552" y="492" type="line"/>
			<point x="374" y="427" type="line"/>
			<point x="421" y="750" type="line"/>
			<point x="147" y="750" type="line"/>
			<point x="137" y="680" type="line"/>
			<point x="328" y="680" type="line"/>
			<point x="286" y="394" type="line"/>
			<point x="111" y="330" type="line"/>
			<point x="101" y="262" type="line"/>
			<point x="276" y="326" type="line"/>
			<point x="239" y="70" type="line"/>
			<point x="49" y="70" type="line"/>
		</contour>
	</outline>
</glyph>
<glyph name="Eng" format="2">
	<unicode hex="014A"/>
	<advance width="600"/>
	<outline>
		<contour>
			<point x="277" y="-212" type="curve" smooth="yes"/>
			<point x="390" y="-212"/>
			<point x="465" y="-160"/>
			<point x="485" y="-20" type="curve" smooth="yes"/>
			<point x="583" y="685" type="line"/>
			<point x="507" y="685" type="line"/>
			<point x="458" y="331" type="line" smooth="yes"/>
			<point x="444" y="232"/>
			<point x="438" y="171"/>
			<point x="434" y="100" type="curve"/>
			<point x="427" y="100" type="line"/>
			<point x="241" y="685" type="line"/>
			<point x="136" y="685" type="line"/>
			<point x="40" y="0" type="line"/>
			<point x="116" y="0" type="line"/>
			<point x="166" y="354" type="line" smooth="yes"/>
			<point x="179" y="448"/>
			<point x="184" y="513"/>
			<point x="188" y="584" type="curve"/>
			<point x="195" y="584" type="line"/>
			<point x="381" y="0" type="line"/>
			<point x="408" y="0" type="line"/>
			<point x="406" y="-17" type="line" smooth="yes"/>
			<point x="393" y="-116"/>
			<point x="344" y="-145"/>
			<point x="269" y="-145" type="curve" smooth="yes"/>
			<point x="230" y="-145"/>
			<point x="195" y="-136"/>
			<point x="173" y="-127" type="curve"/>
			<point x="164" y="-191" type="line"/>
			<point x="188" y="-203"/>
			<point x="230" y="-212"/>
		</contour>
	</outline>
	<anchor name="top" x="410" y="720"/>
	<anchor name="bottom" x="263" y="0"/>
</glyph>
<glyph name="oe" format="2">
	<unicode hex="0153"/>
	<advance width="600"/>
	<outline>
		<contour>
			<point x="124" y="-14" type="curve" smooth="yes"/>
			<point x="185" y="-14"/>
			<point x="235" y="28"/>
			<point x="263" y="126" type="curve"/>
			<point x="275" y="30"/>
			<point x="327" y="-14"/>
			<point x="419" y="-14" type="curve" smooth="yes"/>
			<point x="473" y="-14"/>
			<point x="515" y="6"/>
			<point x="539" y="24" type="curve"/>
			<point x="549" y="93" type="line"/>
			<point x="511" y="65"/>
			<point x="471" y="53"/>
			<point x="433" y="53" type="curve" smooth="yes"/>
			<point x="354" y="53"/>
			<point x="319" y="104"/>
			<point x="335" y="242" type="curve"/>
			<point x="583" y="242" type="line"/>
			<point x="589" y="280" type="line" smooth="yes"/>
			<point x="608" y="423"/>
			<point x="580" y="537"/>
			<point x="463" y="537" type="curve" smooth="yes"/>
			<point x="407" y="537"/>
			<point x="360" y="505"/>
			<point x="326" y="439" type="curve"/>
			<point x="311" y="500"/>
			<point x="269" y="537"/>
			<point x="205" y="537" type="curve" smooth="yes"/>
			<point x="106" y="537"/>
			<point x="40" y="448"/>
			<point x="16" y="283" type="curve" smooth="yes"/>
			<point x="14" y="269" type="line" smooth="yes"/>
			<point x="-12" y="89"/>
			<point x="30" y="-14"/>
		</contour>
		<contour>
			<point x="456" y="474" type="curve" smooth="yes"/>
			<point x="519" y="474"/>
			<point x="530" y="396"/>
			<point x="517" y="297" type="curve"/>
			<point x="342" y="297" type="line"/>
			<point x="359" y="416"/>
			<point x="394" y="474"/>
		</contour>
		<contour>
			<point x="152" y="54" type="curve" smooth="yes"/>
			<point x="92" y="54"/>
			<point x="71" y="133"/>
			<point x="91" y="268" type="curve" smooth="yes"/>
			<point x="92" y="275" type="line" smooth="yes"/>
			<point x="111" y="413"/>
			<point x="145" y="473"/>
			<point x="203" y="473" type="curve" smooth="yes"/>
			<point x="264" y="473"/>
			<point x="283" y="399"/>
			<point x="263" y="257" type="curve" smooth="yes"/>
			<point x="262" y="250" type="line" smooth="yes"/>
			<point x="244" y="120"/>
			<point x="212" y="54"/>
		</contour>
	</outline>
</glyph>
<glyph name="scedilla" format="2">
	<unicode hex="015F"/>
	<advance width="600"/>
	<outline>
		<contour>
			<point x="235" y="-219" type="curve" smooth="yes"/>
			<point x="305" y="-219"/>
			<point x="349" y="-185"/>
			<point x="351" y="-124" type="curve" smooth="yes"/>
			<point x="352" y="-77"/>
			<point x="326" y="-51"/>
			<point x="273" y="-47" type="curve"/>
			<point x="294" y="-14" type="line"/>
			<point x="420" y="-7"/>
			<point x="492" y="56"/>
			<point x="492" y="159" type="curve" smooth="yes"/>
			<point x="492" y="260"/>
			<point x="415" y="279"/>
			<point x="312" y="300" type="curve" smooth="yes"/>
			<point x="230" y="318"/>
			<point x="191" y="327"/>
			<point x="191" y="380" type="curve" smooth="yes"/>
			<point x="191" y="437"/>
			<point x="237" y="471"/>
			<point x="317" y="471" type="curve" smooth="yes"/>
			<point x="387" y="471"/>
			<point x="475" y="447"/>
			<point x="523" y="405" type="curve"/>
			<point x="533" y="482" type="line"/>
			<point x="481" y="518"/>
			<point x="400" y="538"/>
			<point x="325" y="538" type="curve" smooth="yes"/>
			<point x="185" y="538"/>
			<point x="108" y="466"/>
			<point x="108" y="364" type="curve" smooth="yes"/>
			<point x="108" y="267"/>
			<point x="182" y="244"/>
			<point x="288" y="224" type="curve" smooth="yes"/>
			<point x="374" y="209"/>
			<point x="411" y="198"/>
			<point x="411" y="145" type="curve" smooth="yes"/>
			<point x="411" y="84"/>
			<point x="362" y="54"/>
			<point x="280" y="54" type="curve" smooth="yes"/>
			<point x="217" y="54"/>
			<point x="136" y="71"/>
			<point x="76" y="125" type="curve"/>
			<point x="66" y="49" type="line"/>
			<point x="105" y="17"/>
			<point x="168" y="-7"/>
			<point x="239" y="-13" type="curve"/>
			<point x="193" y="-91" type="line"/>
			<point x="205" y="-89"/>
			<point x="217" y="-87"/>
			<point x="230" y="-87" type="curve" smooth="yes"/>
			<point x="267" y="-87"/>
			<point x="289" y="-97"/>
			<point x="289" y="-124" type="curve" smooth="yes"/>
			<point x="289" y="-156"/>
			<point x="266" y="-168"/>
			<point x="230" y="-168" type="curve" smooth="yes"/>
			<point x="203" y="-168"/>
			<point x="176" y="-160"/>
			<point x="156" y="-148" type="curve"/>
			<point x="149" y="-198" type="line"/>
			<point x="168" y="-211"/>
			<point x="202" y="-219"/>
		</contour>
	</outline>
</glyph>
<glyph name="Uogonek" format="2">
	<unicode hex="0172"/>
	<advance width="600"/>
	<outline>
		<contour>
			<point x="287" y="-203" type="curve" smooth="yes"/>
			<point x="309" y="-203"/>
			<point x="333" y="-198"/>
			<point x="345" y="-193" type="curve"/>
			<point x="353" y="-134" type="line"/>
			<point x="343" y="-138"/>
			<point x="326" y="-141"/>
			<point x="309" y="-141" type="curve" smooth="yes"/>
			<point x="277" y="-141"/>
			<point x="254" y="-130"/>
			<point x="254" y="-100" type="curve" smooth="yes"/>
			<point x="254" y="-63"/>
			<point x="283" y="-28"/>
			<point x="363" y="0" type="curve"/>
			<point x="362" y="0" type="line"/>
			<point x="454" y="31"/>
			<point x="505" y="111"/>
			<point x="521" y="224" type="curve" smooth="yes"/>
			<point x="585" y="684" type="line"/>
			<point x="500" y="684" type="line"/>
			<point x="436" y="224" type="line" smooth="yes"/>
			<point x="422" y="126"/>
			<point x="379" y="58"/>
			<point x="279" y="58" type="curve" smooth="yes"/>
			<point x="179" y="58"/>
			<point x="141" y="135"/>
			<point x="156" y="240" type="curve" smooth="yes"/>
			<point x="219" y="684" type="line"/>
			<point x="133" y="684" type="line"/>
			<point x="72" y="242" type="line" smooth="yes"/>
			<point x="49" y="84"/>
			<point x="115" y="-10"/>
			<point x="260" y="-14" type="curve"/>
			<point x="208" y="-40"/>
			<point x="180" y="-78"/>
			<point x="180" y="-122" type="curve" smooth="yes"/>
			<point x="180" y="-180"/>
			<point x="221" y="-203"/>
		</contour>
	</outline>
</glyph>
<glyph name="caron" format="2">
	<unicode hex="02C7"/>
	<advance width="600"/>
	<outline>
		<contour>
			<point x="531" y="750" type="line"/>
			<point x="448" y="750" type="line"/>
			<point x="352" y="647" type="line"/>
			<point x="285" y="750" type="line"/>
			<point x="207" y="750" type="line"/>
			<point x="305" y="605" type="line"/>
			<point x="393" y="605" type="line"/>
		</contour>
	</outline>
	<anchor name="_top" x="337" y="523"/>
</glyph>
<glyph name="dotaccent" format="2">
	<unicode hex="02D9"/>
	<advance width="600"/>
	<outline>
		<contour>
			<point x="354" y="626" type="curve" smooth="yes"/>
			<point x="399" y="626"/>
			<point x="416" y="644"/>
			<point x="420" y="680" type="curve" smooth="yes"/>
			<point x="424" y="715"/>
			<point x="407" y="733"/>
			<point x="364" y="733" type="curve" smooth="yes"/>
			<point x="318" y="733"/>
			<point x="301" y="715"/>
			<point x="297" y="680" type="curve" smooth="yes"/>
			<point x="293" y="645"/>
			<point x="311" y="626"/>
		</contour>
	</outline>
	<anchor name="_top" x="337" y="523"/>
</glyph>
<glyph name="hungarumlaut" format="2">
	<unicode hex="02DD"/>
	<advance width="600"/>
	<outline>
		<contour>
			<point x="357" y="605" type="line"/>
			<point x="424" y="605" type="line"/>
			<point x="534" y="750" type="line"/>
			<point x="445" y="750" type="line"/>
		</contour>
		<contour>
			<point x="187" y="605" type="line"/>
			<point x="254" y="605" type="line"/>
			<point x="364" y="750" type="line"/>
			<point x="275" y="750" type="line"/>
		</contour>
	</outline>
	<anchor name="_top" x="294" y="523"/>
</glyph>
<glyph name="quoteleft" format="2">
	<unicode hex="2018"/>
	<advance width="600"/>
	<outline>
		<contour>
			<point x="361" y="469" type="line"/>
			<point x="454" y="750" type="line"/>
			<point x="394" y="750" type="line"/>
			<point x="247" y="469" type="line"/>
		</contour>
	</outline>
</glyph>
<glyph name="quotesinglbase" format="2">
	<unicode hex="201A"/>
	<advance width="600"/>
	<outline>
		<contour>
			<point x="248" y="115" type="line"/>
			<point x="155" y="-166" type="line"/>
			<point x="215" y="-166" type="line"/>
			<point x="362" y="115" type="line"/>
		</contour>
	</outline>
</glyph>
<glyph name="quotedblleft" format="2">
	<unicode hex="201C"/>
	<advance width="600"/>
	<outline>
		<contour>
			<point x="439" y="469" type="line"/>
			<point x="531" y="750" type="line"/>
			<point x="472" y="750" type="line"/>
			<point x="326" y="469" type="line"/>
		</contour>
		<contour>
			<point x="259" y="469" type="line"/>
			<point x="350" y="750" type="line"/>
			<point x="292" y="750" type="line"/>
			<point x="145" y="469" type="line"/>
		</contour>
	</outline>
</glyph>
<glyph name="dagger" format="2">
	<unicode hex="2020"/>
	<advance width="600"/>
	<outline>
		<contour>
			<point x="122" y="570" type="line"/>
			<point x="112" y="494" type="line"/>
			<point x="291" y="494" type="line"/>
			<point x="201" y="-143" type="line"/>
			<point x="284" y="-143" type="line"/>
			<point x="374" y="494" type="line"/>
			<point x="553" y="494" type="line"/>
			<point x="564" y="570" type="line"/>
			<point x="385" y="570" type="line"/>
			<point x="412" y="765" type="line"/>
			<point x="329" y="765" type="line"/>
			<point x="302" y="570" type="line"/>
		</contour>
	</outline>
</glyph>
<glyph name="daggerdbl" format="2">
	<unicode hex="2021"/>
	<advance width="600"/>
	<outline>
		<contour>
			<point x="72" y="205" type="line"/>
			<point x="61" y="132" type="line"/>
			<point x="240" y="132" type="line"/>
			<point x="201" y="-143" type="line"/>
			<point x="285" y="-143" type="line"/>
			<point x="323" y="132" type="line"/>
			<point x="502" y="132" type="line"/>
			<point x="513" y="205" type="line"/>
			<point x="334" y="205" type="line"/>
			<point x="375" y="501" type="line"/>
			<point x="554" y="501" type="line"/>
			<point x="565" y="574" type="line"/>
			<point x="385" y="574" type="line"/>
			<point x="412" y="765" type="line"/>
			<point x="329" y="765" type="line"/>
			<point x="302" y="574" type="line"/>
			<point x="124" y="574" type="line"/>
			<point x="113" y="501" type="line"/>
			<point x="292" y="501" type="line"/>
			<point x="250" y="205" type="line"/>
		</contour>
	</outline>
</glyph>
<glyph name="bullet" format="2">
	<unicode hex="2022"/>
	<advance width="600"/>
	<outline>
		<contour>
			<point x="296" y="160" type="curve" smooth="yes"/>
			<point x="384" y="160"/>
			<point x="417" y="205"/>
			<point x="426" y="284" type="curve" smooth="yes"/>
			<point x="436" y="358"/>
			<point x="410" y="418"/>
			<point x="313" y="418" type="curve" smooth="yes"/>
			<point x="225" y="418"/>
			<point x="191" y="373"/>
			<point x="181" y="294" type="curve" smooth="yes"/>
			<point x="171" y="220"/>
			<point x="198" y="160"/>
		</contour>
	</outline>
</glyph>
<glyph name="perthousand" format="2">
	<unicode hex="2030"/>
	<advance width="600"/>
	<outline>
		<contour>
			<point x="175" y="393" type="curve" smooth="yes"/>
			<point x="249" y="393"/>
			<point x="301" y="444"/>
			<point x="314" y="534" type="curve" smooth="yes"/>
			<point x="330" y="644"/>
			<point x="275" y="691"/>
			<point x="198" y="691" type="curve" smooth="yes"/>
			<point x="125" y="691"/>
			<point x="73" y="641"/>
			<point x="60" y="551" type="curve" smooth="yes"/>
			<point x="44" y="441"/>
			<point x="98" y="393"/>
		</contour>
		<contour>
			<point x="178" y="441" type="curve" smooth="yes"/>
			<point x="125" y="441"/>
			<point x="108" y="478"/>
			<point x="117" y="546" type="curve" smooth="yes"/>
			<point x="125" y="606"/>
			<point x="150" y="644"/>
			<point x="197" y="644" type="curve" smooth="yes"/>
			<point x="248" y="644"/>
			<point x="266" y="607"/>
			<point x="257" y="538" type="curve" smooth="yes"/>
			<point x="249" y="479"/>
			<point x="224" y="441"/>
		</contour>
		<contour>
			<point x="22" y="269" type="line"/>
			<point x="588" y="409" type="line"/>
			<point x="595" y="462" type="line"/>
			<point x="29" y="321" type="line"/>
		</contour>
		<contour>
			<point x="222" y="-7" type="curve" smooth="yes"/>
			<point x="265" y="-7"/>
			<point x="300" y="10"/>
			<point x="324" y="42" type="curve"/>
			<point x="344" y="9"/>
			<point x="380" y="-7"/>
			<point x="423" y="-7" type="curve" smooth="yes"/>
			<point x="496" y="-7"/>
			<point x="549" y="44"/>
			<point x="562" y="134" type="curve" smooth="yes"/>
			<point x="578" y="244"/>
			<point x="524" y="291"/>
			<point x="449" y="291" type="curve" smooth="yes"/>
			<point x="407" y="291"/>
			<point x="371" y="274"/>
			<point x="347" y="242" type="curve"/>
			<point x="326" y="275"/>
			<point x="291" y="291"/>
			<point x="248" y="291" type="curve" smooth="yes"/>
			<point x="174" y="291"/>
			<point x="122" y="241"/>
			<point x="109" y="151" type="curve" smooth="yes"/>
			<point x="93" y="41"/>
			<point x="147" y="-7"/>
		</contour>
		<contour>
			<point x="226" y="41" type="curve" smooth="yes"/>
			<point x="173" y="41"/>
			<point x="156" y="78"/>
			<point x="166" y="146" type="curve" smooth="yes"/>
			<point x="174" y="206"/>
			<point x="198" y="244"/>
			<point x="245" y="244" type="curve" smooth="yes"/>
			<point x="297" y="244"/>
			<point x="314" y="207"/>
			<point x="305" y="138" type="curve" smooth="yes"/>
			<point x="297" y="79"/>
			<point x="273" y="41"/>
		</contour>
		<contour>
			<point x="425" y="41" type="curve" smooth="yes"/>
			<point x="373" y="41"/>
			<point x="355" y="78"/>
			<point x="364" y="146" type="curve" smooth="yes"/>
			<point x="373" y="206"/>
			<point x="397" y="244"/>
			<point x="444" y="244" type="curve" smooth="yes"/>
			<point x="496" y="244"/>
			<point x="513" y="207"/>
			<point x="504" y="138" type="curve" smooth="yes"/>
			<point x="496" y="79"/>
			<point x="472" y="41"/>
		</contour>
	</outline>
</glyph>
<glyph name="guilsinglleft" format="2">
	<unicode hex="2039"/>
	<advance width="600"/>
	<outline>
		<contour>
			<point x="326" y="77" type="line"/>
			<point x="432" y="77" type="line"/>
			<point x="241" y="285" type="line"/>
			<point x="492" y="497" type="line"/>
			<point x="379" y="497" type="line"/>
			<point x="133" y="287" type="line"/>
		</contour>
	</outline>
</glyph>
<glyph name="guilsinglright" format="2">
	<unicode hex="203A"/>
	<advance width="600"/>
	<outline>
		<contour>
			<point x="115" y="78" type="line"/>
			<point x="230" y="78" type="line"/>
			<point x="475" y="287" type="line"/>
			<point x="279" y="498" type="line"/>
			<point x="175" y="498" type="line"/>
			<point x="366" y="291" type="line"/>
		</contour>
	</outline>
</glyph>
<glyph name="fraction" format="2">
	<unicode hex="2044"/>
	<advance width="600"/>
	<outline>
		<contour>
			<point x="411" y="417" type="line"/>
			<point x="480" y="417" type="line"/>
			<point x="633" y="684" type="line"/>
			<point x="548" y="684" type="line"/>
		</contour>
		<contour>
			<point x="-11" y="0" type="line"/>
			<point x="75" y="0" type="line"/>
			<point x="213" y="266" type="line"/>
			<point x="142" y="266" type="line"/>
		</contour>
	</outline>
</glyph>
<glyph name="servicemark" format="2">
	<unicode hex="2120"/>
	<advance width="600"/>
	<outline>
		<contour>
			<point x="155" y="337" type="curve" smooth="yes"/>
			<point x="228" y="337"/>
			<point x="282" y="380"/>
			<point x="282" y="450" type="curve" smooth="yes"/>
			<point x="282" y="508"/>
			<point x="245" y="521"/>
			<point x="189" y="536" type="curve" smooth="yes"/>
			<point x="141" y="549"/>
			<point x="123" y="557"/>
			<point x="123" y="589" type="curve" smooth="yes"/>
			<point x="123" y="625"/>
			<point x="147" y="648"/>
			<point x="194" y="648" type="curve" smooth="yes"/>
			<point x="241" y="648"/>
			<point x="276" y="631"/>
			<point x="299" y="610" type="curve"/>
			<point x="306" y="658" type="line"/>
			<point x="292" y="670"/>
			<point x="254" y="689"/>
			<point x="201" y="689" type="curve" smooth="yes"/>
			<point x="118" y="689"/>
			<point x="74" y="641"/>
			<point x="74" y="578" type="curve" smooth="yes"/>
			<point x="74" y="515"/>
			<point x="119" y="502"/>
			<point x="169" y="490" type="curve" smooth="yes"/>
			<point x="208" y="481"/>
			<point x="233" y="473"/>
			<point x="233" y="439" type="curve" smooth="yes"/>
			<point x="233" y="403"/>
			<point x="204" y="379"/>
			<point x="159" y="379" type="curve" smooth="yes"/>
			<point x="118" y="379"/>
			<point x="82" y="396"/>
			<point x="56" y="421" type="curve"/>
			<point x="48" y="372" type="line"/>
			<point x="63" y="359"/>
			<point x="102" y="337"/>
		</contour>
		<contour>
			<point x="305" y="342" type="line"/>
			<point x="351" y="342" type="line"/>
			<point x="375" y="517" type="line" smooth="yes"/>
			<point x="381" y="560"/>
			<point x="385" y="596"/>
			<point x="386" y="632" type="curve"/>
			<point x="390" y="632" type="line"/>
			<point x="421" y="434" type="line"/>
			<point x="470" y="434" type="line"/>
			<point x="558" y="632" type="line"/>
			<point x="562" y="632" type="line"/>
			<point x="553" y="592"/>
			<point x="546" y="554"/>
			<point x="541" y="517" type="curve" smooth="yes"/>
			<point x="517" y="342" type="line"/>
			<point x="562" y="342" type="line"/>
			<point x="610" y="684" type="line"/>
			<point x="537" y="684" type="line"/>
			<point x="453" y="487" type="line"/>
			<point x="451" y="487" type="line"/>
			<point x="424" y="684" type="line"/>
			<point x="353" y="684" type="line"/>
		</contour>
	</outline>
</glyph>
<glyph name="trademark" format="2">
	<unicode hex="2122"/>
	<advance width="600"/>
	<outline>
		<contour>
			<point x="305" y="342" type="line"/>
			<point x="351" y="342" type="line"/>
			<point x="375" y="517" type="line" smooth="yes"/>
			<point x="381" y="557"/>
			<point x="385" y="596"/>
			<point x="386" y="632" type="curve"/>
			<point x="390" y="632" type="line"/>
			<point x="421" y="434" type="line"/>
			<point x="470" y="434" type="line"/>
			<point x="558" y="632" type="line"/>
			<point x="562" y="632" type="line"/>
			<point x="554" y="597"/>
			<point x="547" y="557"/>
			<point x="541" y="517" type="curve" smooth="yes"/>
			<point x="517" y="342" type="line"/>
			<point x="562" y="342" type="line"/>
			<point x="610" y="684" type="line"/>
			<point x="537" y="684" type="line"/>
			<point x="453" y="487" type="line"/>
			<point x="451" y="487" type="line"/>
			<point x="424" y="684" type="line"/>
			<point x="353" y="684" type="line"/>
		</contour>
		<contour>
			<point x="126" y="342" type="line"/>
			<point x="177" y="342" type="line"/>
			<point x="219" y="640" type="line"/>
			<point x="313" y="640" type="line"/>
			<point x="319" y="684" type="line"/>
			<point x="77" y="684" type="line"/>
			<point x="71" y="640" type="line"/>
			<point x="168" y="640" type="line"/>
		</contour>
	</outline>
</glyph>
<glyph name="arrowleft" format="2">
	<unicode hex="2190"/>
	<advance width="600"/>
	<outline>
		<contour>
			<point x="323" y="134" type="line"/>
			<point x="158" y="324" type="line"/>
			<point x="567" y="324" type="line"/>
			<point x="577" y="396" type="line"/>
			<point x="168" y="396" type="line"/>
			<point x="385" y="585" type="line"/>
			<point x="291" y="585" type="line"/>
			<point x="35" y="360" type="line"/>
			<point x="229" y="134" type="line"/>
		</contour>
	</outline>
</glyph>
<glyph name="uni2196" format="2">
	<unicode hex="2196"/>
	<advance width="600"/>
	<outline>
		<contour>
			<point x="508" y="72" type="line"/>
			<point x="562" y="120" type="line"/>
			<point x="197" y="544" type="line"/>
			<point x="490" y="543" type="line"/>
			<point x="433" y="610" type="line"/>
			<point x="93" y="610" type="line"/>
			<point x="45" y="270" type="line"/>
			<point x="101" y="204" type="line"/>
			<point x="141" y="499" type="line"/>
		</contour>
	</outline>
</glyph>
<glyph name="uni2197" format="2">
	<unicode hex="2197"/>
	<advance width="600"/>
	<outline>
		<contour>
			<point x="45" y="71" type="line"/>
			<point x="521" y="490" type="line"/>
			<point x="480" y="203" type="line"/>
			<point x="557" y="270" type="line"/>
			<point x="605" y="610" type="line"/>
			<point x="264" y="610" type="line"/>
			<point x="189" y="544" type="line"/>
			<point x="477" y="546" type="line"/>
			<point x="-1" y="126" type="line"/>
		</contour>
	</outline>
</glyph>
<glyph name="increment" format="2">
	<unicode hex="2206"/>
	<advance width="600"/>
	<outline>
		<contour>
			<point x="-13" y="0" type="line"/>
			<point x="539" y="0" type="line"/>
			<point x="414" y="687" type="line"/>
			<point x="301" y="687" type="line"/>
		</contour>
		<contour>
			<point x="110" y="73" type="line"/>
			<point x="349" y="614" type="line"/>
			<point x="438" y="73" type="line"/>
		</contour>
	</outline>
</glyph>
<glyph name="approxequal" format="2">
	<unicode hex="2248"/>
	<advance width="600"/>
	<outline>
		<contour>
			<point x="194" y="391" type="curve" smooth="yes"/>
			<point x="261" y="391"/>
			<point x="340" y="335"/>
			<point x="434" y="335" type="curve" smooth="yes"/>
			<point x="476" y="335"/>
			<point x="520" y="351"/>
			<point x="540" y="376" type="curve"/>
			<point x="552" y="456" type="line"/>
			<point x="518" y="419"/>
			<point x="477" y="408"/>
			<point x="437" y="408" type="curve" smooth="yes"/>
			<point x="366" y="408"/>
			<point x="282" y="464"/>
			<point x="204" y="464" type="curve" smooth="yes"/>
			<point x="163" y="464"/>
			<point x="119" y="449"/>
			<point x="98" y="424" type="curve"/>
			<point x="87" y="343" type="line"/>
			<point x="116" y="376"/>
			<point x="158" y="391"/>
		</contour>
		<contour>
			<point x="165" y="179" type="curve" smooth="yes"/>
			<point x="232" y="179"/>
			<point x="311" y="123"/>
			<point x="405" y="123" type="curve" smooth="yes"/>
			<point x="447" y="123"/>
			<point x="490" y="139"/>
			<point x="511" y="164" type="curve"/>
			<point x="522" y="243" type="line"/>
			<point x="488" y="207"/>
			<point x="448" y="195"/>
			<point x="408" y="195" type="curve" smooth="yes"/>
			<point x="338" y="196"/>
			<point x="251" y="251"/>
			<point x="172" y="251" type="curve" smooth="yes"/>
			<point x="130" y="251"/>
			<point x="89" y="235"/>
			<point x="69" y="211" type="curve"/>
			<point x="57" y="131" type="line"/>
			<point x="86" y="164"/>
			<point x="128" y="179"/>
		</contour>
	</outline>
</glyph>
<glyph name="lessequal" format="2">
	<unicode hex="2264"/>
	<advance width="600"/>
	<outline>
		<contour>
			<point x="504" y="128" type="line"/>
			<point x="516" y="208" type="line"/>
			<point x="164" y="360" type="line"/>
			<point x="559" y="512" type="line"/>
			<point x="570" y="595" type="line"/>
			<point x="96" y="408" type="line"/>
			<point x="84" y="317" type="line"/>
		</contour>
		<contour>
			<point x="38" y="0" type="line"/>
			<point x="488" y="0" type="line"/>
			<point x="498" y="74" type="line"/>
			<point x="49" y="74" type="line"/>
		</contour>
	</outline>
</glyph>
<glyph name="lozenge" format="2">
	<unicode hex="25CA"/>
	<advance width="600"/>
	<outline>
		<contour>
			<point x="213" y="0" type="line"/>
			<point x="315" y="0" type="line"/>
			<point x="576" y="338" type="line"/>
			<point x="411" y="684" type="line"/>
			<point x="308" y="684" type="line"/>
			<point x="46" y="341" type="line"/>
		</contour>
		<contour>
			<point x="140" y="340" type="line"/>
			<point x="353" y="622" type="line"/>
			<point x="483" y="345" type="line"/>
			<point x="271" y="63" type="line"/>
		</contour>
	</outline>
</glyph>
<glyph name="uni263E" format="2">
	<unicode hex="263E"/>
	<advance width="600"/>
	<outline>
		<contour>
			<point x="127" y="354" type="curve" smooth="yes"/>
			<point x="127" y="191"/>
			<point x="260" y="58"/>
			<point x="423" y="58" type="curve" smooth="yes"/>
			<point x="488" y="58"/>
			<point x="550" y="79"/>
			<point x="601" y="115" type="curve"/>
			<point x="578" y="108"/>
			<point x="554" y="103"/>
			<point x="530" y="103" type="curve" smooth="yes"/>
			<point x="398" y="103"/>
			<point x="291" y="216"/>
			<point x="291" y="354" type="curve" smooth="yes"/>
			<point x="291" y="492"/>
			<point x="398" y="605"/>
			<point x="530" y="605" type="curve" smooth="yes"/>
			<point x="554" y="605"/>
			<point x="578" y="599"/>
			<point x="601" y="593" type="curve"/>
			<point x="550" y="629"/>
			<point x="488" y="650"/>
			<point x="423" y="650" type="curve" smooth="yes"/>
			<point x="260" y="650"/>
			<point x="127" y="517"/>
		</contour>
	</outline>
</glyph>
<glyph name="anglebracketleft" format="2">
	<unicode hex="3008"/>
	<advance width="600"/>
	<outline>
		<contour>
			<point x="378" y="-163" type="line"/>
			<point x="466" y="-163" type="line"/>
			<point x="230" y="312" type="line"/>
			<point x="603" y="792" type="line"/>
			<point x="509" y="792" type="line"/>
			<point x="141" y="316" type="line"/>
		</contour>
	</outline>
</glyph>
<glyph name="anglebracketright" format="2">
	<unicode hex="3009"/>
	<advance width="600"/>
	<outline>
		<contour>
			<point x="12" y="-163" type="line"/>
			<point x="108" y="-163" type="line"/>
			<point x="475" y="315" type="line"/>
			<point x="235" y="792" type="line"/>
			<point x="149" y="792" type="line"/>
			<point x="385" y="323" type="line"/>
		</contour>
	</outline>
</glyph>
<glyph name="Anocross" format="2">
	<advance width="600"/>
	<outline>
		<contour>
			<point x="-13" y="0" type="line"/>
			<point x="78" y="0" type="line"/>
			<point x="349" y="613" type="line"/>
			<point x="451" y="0" type="line"/>
			<point x="539" y="0" type="line"/>
			<point x="415" y="687" type="line"/>
			<point x="301" y="687" type="line"/>
		</contour>
	</outline>
	<anchor name="ogonek" x="539" y="0"/>
	<anchor name="bottom" x="277" y="0"/>
	<anchor name="top" x="358" y="684"/>
</glyph>
<glyph name="Lslashcomb" format="2">
	<advance width="600"/>
	<outline>
		<contour>
			<point x="26" y="394" type="line"/>
			<point x="17" y="325" type="line"/>
			<point x="382" y="463" type="line"/>
			<point x="391" y="532" type="line"/>
		</contour>
	</outline>
	<anchor name="_center" x="148" y="401"/>
</glyph>
<glyph name="ampersand_ampersand.cLig" format="2">
	<advance width="600"/>
	<outline>
		<contour>
			<point x="-310" y="-14" type="curve" smooth="yes"/>
			<point x="-224" y="-14"/>
			<point x="-149" y="23"/>
			<point x="-90" y="87" type="curve"/>
			<point x="-60" y="24"/>
			<point x="6" y="-14"/>
			<point x="98" y="-14" type="curve" smooth="yes"/>
			<point x="186" y="-14"/>
			<point x="259" y="19"/>
			<point x="317" y="75" type="curve"/>
			<point x="381" y="0" type="line"/>
			<point x="479" y="0" type="line"/>
			<point x="368" y="134" type="line"/>
			<point x="417" y="201"/>
			<point x="452" y="289"/>
			<point x="476" y="387" type="curve"/>
			<point x="402" y="387" type="line"/>
			<point x="383" y="305"/>
			<point x="357" y="238"/>
			<point x="324" y="186" type="curve"/>
			<point x="165" y="376" type="line" smooth="yes"/>
			<point x="127" y="421"/>
			<point x="105" y="457"/>
			<point x="106" y="508" type="curve" smooth="yes"/>
			<point x="107" y="580"/>
			<point x="152" y="627"/>
			<point x="231" y="627" type="curve" smooth="yes"/>
			<point x="292" y="627"/>
			<point x="357" y="599"/>
			<point x="397" y="565" type="curve"/>
			<point x="408" y="641" type="line"/>
			<point x="371" y="671"/>
			<point x="303" y="698"/>
			<point x="233" y="698" type="curve" smooth="yes"/>
			<point x="106" y="698"/>
			<point x="28" y="616"/>
			<point x="25" y="508" type="curve" smooth="yes"/>
			<point x="24" y="472"/>
			<point x="33" y="439"/>
			<point x="48" y="407" type="curve"/>
			<point x="-23" y="373"/>
			<point x="-91" y="309"/>
			<point x="-106" y="213" type="curve"/>
			<point x="-245" y="376" type="line" smooth="yes"/>
			<point x="-284" y="421"/>
			<point x="-305" y="457"/>
			<point x="-304" y="508" type="curve" smooth="yes"/>
			<point x="-303" y="580"/>
			<point x="-258" y="627"/>
			<point x="-180" y="627" type="curve" smooth="yes"/>
			<point x="-123" y="627"/>
			<point x="-62" y="601"/>
			<point x="-26" y="570" type="curve"/>
			<point x="-15" y="645" type="line"/>
			<point x="-50" y="673"/>
			<point x="-112" y="698"/>
			<point x="-179" y="698" type="curve" smooth="yes"/>
			<point x="-304" y="698"/>
			<point x="-382" y="616"/>
			<point x="-385" y="508" type="curve" smooth="yes"/>
			<point x="-387" y="472"/>
			<point x="-378" y="438"/>
			<point x="-362" y="406" type="curve"/>
			<point x="-441" y="369"/>
			<point x="-515" y="294"/>
			<point x="-518" y="181" type="curve" smooth="yes"/>
			<point x="-521" y="65"/>
			<point x="-443" y="-14"/>
		</contour>
		<contour>
			<point x="-30" y="186" type="curve" smooth="yes"/>
			<point x="-29" y="268"/>
			<point x="20" y="327"/>
			<point x="83" y="353" type="curve"/>
			<point x="89" y="345"/>
			<point x="95" y="337"/>
			<point x="102" y="330" type="curve" smooth="yes"/>
			<point x="276" y="124" type="line"/>
			<point x="231" y="78"/>
			<point x="176" y="55"/>
			<point x="114" y="55" type="curve" smooth="yes"/>
			<point x="15" y="55"/>
			<point x="-32" y="111"/>
		</contour>
		<contour>
			<point x="-439" y="186" type="curve" smooth="yes"/>
			<point x="-438" y="267"/>
			<point x="-390" y="326"/>
			<point x="-327" y="352" type="curve"/>
			<point x="-321" y="345"/>
			<point x="-315" y="338"/>
			<point x="-309" y="330" type="curve" smooth="yes"/>
			<point x="-134" y="132" type="line"/>
			<point x="-180" y="81"/>
			<point x="-236" y="55"/>
			<point x="-297" y="55" type="curve" smooth="yes"/>
			<point x="-395" y="55"/>
			<point x="-441" y="111"/>
		</contour>
	</outline>
</glyph>
<glyph name="ampersand_ampersand_ampersand.rem" format="2">
	<advance width="600"/>
	<outline>
		<contour>
			<point x="-855" y="-14" type="curve" smooth="yes"/>
			<point x="-758" y="-14"/>
			<point x="-672" y="25"/>
			<point x="-607" y="91" type="curve"/>
			<point x="-578" y="26"/>
			<point x="-510" y="-14"/>
			<point x="-412" y="-14" type="curve" smooth="yes"/>
			<point x="-314" y="-14"/>
			<point x="-229" y="25"/>
			<point x="-164" y="91" type="curve"/>
			<point x="-136" y="25"/>
			<point x="-67" y="-14"/>
			<point x="31" y="-14" type="curve" smooth="yes"/>
			<point x="126" y="-14"/>
			<point x="204" y="20"/>
			<point x="267" y="78" type="curve"/>
			<point x="335" y="0" type="line"/>
			<point x="434" y="0" type="line"/>
			<point x="318" y="135" type="line"/>
			<point x="369" y="203"/>
			<point x="407" y="289"/>
			<point x="432" y="387" type="curve"/>
			<point x="358" y="387" type="line"/>
			<point x="337" y="305"/>
			<point x="309" y="238"/>
			<point x="274" y="186" type="curve"/>
			<point x="111" y="376" type="line" smooth="yes"/>
			<point x="72" y="421"/>
			<point x="51" y="457"/>
			<point x="52" y="508" type="curve" smooth="yes"/>
			<point x="53" y="579"/>
			<point x="99" y="627"/>
			<point x="178" y="627" type="curve" smooth="yes"/>
			<point x="241" y="627"/>
			<point x="308" y="599"/>
			<point x="347" y="565" type="curve"/>
			<point x="358" y="641" type="line"/>
			<point x="321" y="671"/>
			<point x="251" y="698"/>
			<point x="180" y="698" type="curve" smooth="yes"/>
			<point x="54" y="698"/>
			<point x="-25" y="616"/>
			<point x="-29" y="508" type="curve" smooth="yes"/>
			<point x="-30" y="473"/>
			<point x="-22" y="440"/>
			<point x="-7" y="409" type="curve"/>
			<point x="-86" y="374"/>
			<point x="-162" y="303"/>
			<point x="-176" y="203" type="curve"/>
			<point x="-336" y="376" type="line" smooth="yes"/>
			<point x="-375" y="419"/>
			<point x="-396" y="457"/>
			<point x="-396" y="508" type="curve" smooth="yes"/>
			<point x="-394" y="579"/>
			<point x="-349" y="627"/>
			<point x="-271" y="627" type="curve" smooth="yes"/>
			<point x="-213" y="627"/>
			<point x="-153" y="601"/>
			<point x="-116" y="570" type="curve"/>
			<point x="-105" y="645" type="line"/>
			<point x="-140" y="673"/>
			<point x="-202" y="698"/>
			<point x="-269" y="698" type="curve" smooth="yes"/>
			<point x="-394" y="698"/>
			<point x="-473" y="616"/>
			<point x="-476" y="508" type="curve" smooth="yes"/>
			<point x="-478" y="472"/>
			<point x="-470" y="438"/>
			<point x="-454" y="407" type="curve"/>
			<point x="-532" y="373"/>
			<point x="-607" y="304"/>
			<point x="-621" y="203" type="curve"/>
			<point x="-779" y="376" type="line" smooth="yes"/>
			<point x="-819" y="419"/>
			<point x="-840" y="457"/>
			<point x="-839" y="508" type="curve" smooth="yes"/>
			<point x="-838" y="580"/>
			<point x="-792" y="627"/>
			<point x="-714" y="627" type="curve" smooth="yes"/>
			<point x="-657" y="627"/>
			<point x="-596" y="601"/>
			<point x="-560" y="570" type="curve"/>
			<point x="-547" y="645" type="line"/>
			<point x="-582" y="673"/>
			<point x="-646" y="698"/>
			<point x="-713" y="698" type="curve" smooth="yes"/>
			<point x="-838" y="698"/>
			<point x="-917" y="616"/>
			<point x="-920" y="508" type="curve" smooth="yes"/>
			<point x="-921" y="472"/>
			<point x="-913" y="438"/>
			<point x="-898" y="407" type="curve"/>
			<point x="-982" y="369"/>
			<point x="-1061" y="292"/>
			<point x="-1064" y="177" type="curve" smooth="yes"/>
			<point x="-1068" y="63"/>
			<point x="-988" y="-14"/>
		</contour>
		<contour>
			<point x="-100" y="180" type="curve" smooth="yes"/>
			<point x="-99" y="263"/>
			<point x="-44" y="327"/>
			<point x="28" y="353" type="curve"/>
			<point x="34" y="345"/>
			<point x="41" y="337"/>
			<point x="47" y="330" type="curve" smooth="yes"/>
			<point x="225" y="126" type="line"/>
			<point x="175" y="79"/>
			<point x="116" y="55"/>
			<point x="47" y="55" type="curve" smooth="yes"/>
			<point x="-55" y="55"/>
			<point x="-102" y="105"/>
		</contour>
		<contour>
			<point x="-544" y="182" type="curve" smooth="yes"/>
			<point x="-543" y="264"/>
			<point x="-490" y="326"/>
			<point x="-419" y="353" type="curve"/>
			<point x="-413" y="345"/>
			<point x="-407" y="338"/>
			<point x="-400" y="330" type="curve" smooth="yes"/>
			<point x="-212" y="133" type="line"/>
			<point x="-265" y="81"/>
			<point x="-329" y="55"/>
			<point x="-399" y="55" type="curve" smooth="yes"/>
			<point x="-499" y="55"/>
			<point x="-546" y="108"/>
		</contour>
		<contour>
			<point x="-986" y="182" type="curve" smooth="yes"/>
			<point x="-985" y="265"/>
			<point x="-932" y="326"/>
			<point x="-863" y="353" type="curve"/>
			<point x="-856" y="345"/>
			<point x="-850" y="338"/>
			<point x="-843" y="330" type="curve" smooth="yes"/>
			<point x="-655" y="133" type="line"/>
			<point x="-707" y="81"/>
			<point x="-771" y="55"/>
			<point x="-841" y="55" type="curve" smooth="yes"/>
			<point x="-939" y="55"/>
			<point x="-987" y="108"/>
		</contour>
	</outline>
</glyph>
<glyph name="asciicircum_equal.cLig" format="2">
	<advance width="600"/>
	<outline>
		<contour>
			<point x="-430" y="375" type="line"/>
			<point x="-347" y="375" type="line"/>
			<point x="-165" y="647" type="line"/>
			<point x="-65" y="375" type="line"/>
			<point x="-23" y="375" type="line"/>
			<point x="-25" y="364" type="line"/>
			<point x="425" y="364" type="line"/>
			<point x="435" y="438" type="line"/>
			<point x="-9" y="438" type="line"/>
			<point x="-118" y="717" type="line"/>
			<point x="-199" y="717" type="line"/>
		</contour>
		<contour>
			<point x="-55" y="152" type="line"/>
			<point x="395" y="152" type="line"/>
			<point x="405" y="226" type="line"/>
			<point x="-44" y="226" type="line"/>
		</contour>
	</outline>
</glyph>
<glyph name="asciitilde_asciitilde.cLig" format="2">
	<advance width="600"/>
	<outline>
		<contour>
			<point x="-99" y="214" type="curve"/>
			<point x="17" y="214"/>
			<point x="31" y="341"/>
			<point x="112" y="341" type="curve"/>
			<point x="194" y="341"/>
			<point x="195" y="214"/>
			<point x="322" y="214" type="curve"/>
			<point x="411" y="214"/>
			<point x="470" y="293"/>
			<point x="495" y="413" type="curve"/>
			<point x="423" y="413" type="line"/>
			<point x="404" y="338"/>
			<point x="374" y="292"/>
			<point x="323" y="292" type="curve"/>
			<point x="236" y="292"/>
			<point x="242" y="417"/>
			<point x="116" y="417" type="curve"/>
			<point x="-2" y="417"/>
			<point x="-15" y="291"/>
			<point x="-95" y="291" type="curve"/>
			<point x="-175" y="291"/>
			<point x="-172" y="417"/>
			<point x="-295" y="417" type="curve"/>
			<point x="-389" y="417"/>
			<point x="-453" y="340"/>
			<point x="-478" y="219" type="curve"/>
			<point x="-407" y="219" type="line"/>
			<point x="-387" y="295"/>
			<point x="-354" y="340"/>
			<point x="-299" y="340" type="curve"/>
			<point x="-213" y="340"/>
			<point x="-220" y="214"/>
		</contour>
	</outline>
</glyph>
<glyph name="asciitilde_at.cLig" format="2">
	<advance width="600"/>
	<outline>
		<contour>
			<point x="348" y="-15" type="curve"/>
			<point x="443" y="-15"/>
			<point x="503" y="78"/>
			<point x="530" y="263" type="curve" smooth="yes"/>
			<point x="532" y="277" type="line" smooth="yes"/>
			<point x="570" y="545"/>
			<point x="466" y="698"/>
			<point x="239" y="698" type="curve"/>
			<point x="13" y="698"/>
			<point x="-82" y="568"/>
			<point x="-147" y="382" type="curve" smooth="yes"/>
			<point x="-169" y="318"/>
			<point x="-180" y="283"/>
			<point x="-219" y="283" type="curve" smooth="yes"/>
			<point x="-283" y="283"/>
			<point x="-301" y="410"/>
			<point x="-403" y="410" type="curve" smooth="yes"/>
			<point x="-489" y="410"/>
			<point x="-528" y="337"/>
			<point x="-545" y="216" type="curve"/>
			<point x="-473" y="216" type="line"/>
			<point x="-462" y="296"/>
			<point x="-443" y="334"/>
			<point x="-401" y="334" type="curve" smooth="yes"/>
			<point x="-334" y="334"/>
			<point x="-317" y="205"/>
			<point x="-217" y="205" type="curve" smooth="yes"/>
			<point x="-146" y="205"/>
			<point x="-118" y="251"/>
			<point x="-81" y="363" type="curve" smooth="yes"/>
			<point x="-24" y="537"/>
			<point x="65" y="632"/>
			<point x="233" y="632" type="curve"/>
			<point x="430" y="632"/>
			<point x="492" y="495"/>
			<point x="462" y="282" type="curve" smooth="yes"/>
			<point x="461" y="275" type="line" smooth="yes"/>
			<point x="438" y="113"/>
			<point x="399" y="47"/>
			<point x="354" y="47" type="curve"/>
			<point x="318" y="47"/>
			<point x="308" y="69"/>
			<point x="317" y="131" type="curve" smooth="yes"/>
			<point x="367" y="482" type="line"/>
			<point x="299" y="482" type="line"/>
			<point x="286" y="390" type="line"/>
			<point x="269" y="457"/>
			<point x="232" y="492"/>
			<point x="168" y="492" type="curve" smooth="yes"/>
			<point x="84" y="492"/>
			<point x="21" y="421"/>
			<point x="1" y="282" type="curve" smooth="yes"/>
			<point x="-18" y="147"/>
			<point x="30" y="63"/>
			<point x="124" y="63" type="curve" smooth="yes"/>
			<point x="188" y="63"/>
			<point x="231" y="107"/>
			<point x="256" y="161" type="curve"/>
			<point x="250" y="126" type="line" smooth="yes"/>
			<point x="236" y="26"/>
			<point x="275" y="-15"/>
		</contour>
		<contour>
			<point x="152" y="124" type="curve" smooth="yes"/>
			<point x="88" y="124"/>
			<point x="57" y="182"/>
			<point x="71" y="281" type="curve" smooth="yes"/>
			<point x="85" y="384"/>
			<point x="127" y="430"/>
			<point x="185" y="430" type="curve" smooth="yes"/>
			<point x="244" y="430"/>
			<point x="284" y="375"/>
			<point x="269" y="275" type="curve" smooth="yes"/>
			<point x="255" y="178"/>
			<point x="216" y="124"/>
		</contour>
	</outline>
</glyph>
<glyph name="asciitilde_equal.cLig.x" format="2">
	<advance width="600"/>
	<outline>
		<contour>
			<point x="-309" y="336" type="line"/>
			<point x="-255" y="405"/>
			<point x="-196" y="430"/>
			<point x="-136" y="430" type="curve" smooth="yes"/>
			<point x="-29" y="430"/>
			<point x="33" y="323"/>
			<point x="164" y="323" type="curve" smooth="yes"/>
			<point x="239" y="323"/>
			<point x="301" y="352"/>
			<point x="340" y="401" type="curve"/>
			<point x="352" y="490" type="line"/>
			<point x="288" y="414"/>
			<point x="232" y="394"/>
			<point x="167" y="396" type="curve" smooth="yes"/>
			<point x="65" y="399"/>
			<point x="-1" y="503"/>
			<point x="-129" y="503" type="curve" smooth="yes"/>
			<point x="-195" y="503"/>
			<point x="-257" y="475"/>
			<point x="-296" y="425" type="curve"/>
		</contour>
		<contour>
			<point x="-333" y="163" type="line"/>
			<point x="307" y="163" type="line"/>
			<point x="317" y="237" type="line"/>
			<point x="-323" y="237" type="line"/>
		</contour>
	</outline>
</glyph>
<glyph name="asciitilde_hyphen.cLig" format="2">
	<advance width="600"/>
	<outline>
		<contour>
			<point x="399" y="350" type="line"/>
			<point x="14" y="350" type="line"/>
			<point x="4" y="305"/>
			<point x="-16" y="278"/>
			<point x="-55" y="278" type="curve" smooth="yes"/>
			<point x="-126" y="278"/>
			<point x="-142" y="408"/>
			<point x="-246" y="408" type="curve" smooth="yes"/>
			<point x="-318" y="408"/>
			<point x="-374" y="363"/>
			<point x="-393" y="221" type="curve"/>
			<point x="-321" y="221" type="line"/>
			<point x="-311" y="297"/>
			<point x="-290" y="331"/>
			<point x="-248" y="331" type="curve" smooth="yes"/>
			<point x="-181" y="331"/>
			<point x="-161" y="201"/>
			<point x="-54" y="201" type="curve" smooth="yes"/>
			<point x="-5" y="201"/>
			<point x="34" y="226"/>
			<point x="57" y="273" type="curve"/>
			<point x="388" y="273" type="line"/>
		</contour>
	</outline>
</glyph>
<glyph name="asterisk_asterisk_slash.rem" format="2">
	<advance width="600"/>
	<outline>
		<contour>
			<point x="463" y="792" type="line"/>
			<point x="-47" y="-163" type="line"/>
			<point x="41" y="-163" type="line"/>
			<point x="552" y="792" type="line"/>
		</contour>
		<contour>
			<point x="-656" y="163" type="line"/>
			<point x="-603" y="238" type="line"/>
			<point x="-776" y="320" type="line"/>
			<point x="-580" y="403" type="line"/>
			<point x="-612" y="477" type="line"/>
			<point x="-791" y="359" type="line"/>
			<point x="-743" y="560" type="line"/>
			<point x="-829" y="560" type="line"/>
			<point x="-836" y="357" type="line"/>
			<point x="-985" y="478" type="line"/>
			<point x="-1038" y="404" type="line"/>
			<point x="-864" y="321" type="line"/>
			<point x="-1062" y="238" type="line"/>
			<point x="-1030" y="163" type="line"/>
			<point x="-846" y="284" type="line"/>
			<point x="-896" y="79" type="line"/>
			<point x="-810" y="79" type="line"/>
			<point x="-803" y="281" type="line"/>
		</contour>
		<contour>
			<point x="-76" y="163" type="line"/>
			<point x="-23" y="238" type="line"/>
			<point x="-196" y="320" type="line"/>
			<point x="0" y="403" type="line"/>
			<point x="-32" y="477" type="line"/>
			<point x="-211" y="359" type="line"/>
			<point x="-163" y="560" type="line"/>
			<point x="-249" y="560" type="line"/>
			<point x="-256" y="357" type="line"/>
			<point x="-405" y="478" type="line"/>
			<point x="-458" y="404" type="line"/>
			<point x="-284" y="321" type="line"/>
			<point x="-482" y="238" type="line"/>
			<point x="-450" y="163" type="line"/>
			<point x="-266" y="284" type="line"/>
			<point x="-316" y="79" type="line"/>
			<point x="-230" y="79" type="line"/>
			<point x="-223" y="281" type="line"/>
		</contour>
	</outline>
</glyph>
<glyph name="asterisk_greater.cLig" format="2">
	<advance width="600"/>
	<outline>
		<contour>
			<point x="102" y="634" type="line"/>
			<point x="90" y="551" type="line"/>
			<point x="437" y="318" type="line"/>
			<point x="25" y="87" type="line"/>
			<point x="12" y="-5" type="line"/>
			<point x="493" y="269" type="line"/>
			<point x="506" y="361" type="line"/>
		</contour>
		<contour>
			<point x="-413" y="471" type="line"/>
			<point x="-467" y="397" type="line"/>
			<point x="-293" y="315" type="line"/>
			<point x="-490" y="232" type="line"/>
			<point x="-458" y="157" type="line"/>
			<point x="-278" y="275" type="line"/>
			<point x="-327" y="75" type="line"/>
			<point x="-241" y="75" type="line"/>
			<point x="-234" y="278" type="line"/>
			<point x="-85" y="156" type="line"/>
			<point x="-31" y="231" type="line"/>
			<point x="-206" y="314" type="line"/>
			<point x="-8" y="397" type="line"/>
			<point x="-40" y="471" type="line"/>
			<point x="-224" y="350" type="line"/>
			<point x="-173" y="555" type="line"/>
			<point x="-259" y="555" type="line"/>
			<point x="-267" y="353" type="line"/>
		</contour>
	</outline>
</glyph>
<glyph name="backslash_backslash_backslash.rem" format="2">
	<advance width="600"/>
	<outline>
		<contour>
			<point x="-709" y="-163" type="line"/>
			<point x="-628" y="-163" type="line"/>
			<point x="-876" y="792" type="line"/>
			<point x="-957" y="792" type="line"/>
		</contour>
		<contour>
			<point x="-209" y="-163" type="line"/>
			<point x="-128" y="-163" type="line"/>
			<point x="-376" y="792" type="line"/>
			<point x="-457" y="792" type="line"/>
		</contour>
		<contour>
			<point x="291" y="-163" type="line"/>
			<point x="372" y="-163" type="line"/>
			<point x="124" y="792" type="line"/>
			<point x="43" y="792" type="line"/>
		</contour>
	</outline>
</glyph>
<glyph name="bar_bar.cLig" format="2">
	<advance width="600"/>
	<outline>
		<contour>
			<point x="-205" y="793" type="line"/>
			<point x="-340" y="-162" type="line"/>
			<point x="-260" y="-162" type="line"/>
			<point x="-126" y="793" type="line"/>
		</contour>
		<contour>
			<point x="275" y="793" type="line"/>
			<point x="140" y="-162" type="line"/>
			<point x="220" y="-162" type="line"/>
			<point x="354" y="793" type="line"/>
		</contour>
	</outline>
</glyph>
<glyph name="bar_bar_bar_greater.cLig" format="2">
	<advance width="600"/>
	<outline>
		<contour>
			<point x="-350" y="-79" type="line"/>
			<point x="-270" y="-79" type="line"/>
			<point x="324" y="268" type="line"/>
			<point x="337" y="360" type="line"/>
			<point x="-160" y="708" type="line"/>
			<point x="-240" y="708" type="line"/>
		</contour>
		<contour>
			<point x="-926" y="-79" type="line"/>
			<point x="-846" y="-79" type="line"/>
			<point x="-736" y="708" type="line"/>
			<point x="-816" y="708" type="line"/>
		</contour>
		<contour>
			<point x="-1501" y="-79" type="line"/>
			<point x="-1422" y="-79" type="line"/>
			<point x="-1312" y="708" type="line"/>
			<point x="-1391" y="708" type="line"/>
		</contour>
		<contour>
			<point x="-174" y="622" type="line"/>
			<point x="264" y="318" type="line"/>
			<point x="-258" y="16" type="line"/>
		</contour>
	</outline>
</glyph>
<glyph name="bar_bar_equal.rem" format="2">
	<advance width="600"/>
	<outline>
		<contour>
			<point x="-893" y="684" type="line"/>
			<point x="-997" y="-55" type="line"/>
			<point x="-918" y="-55" type="line"/>
			<point x="-814" y="684" type="line"/>
		</contour>
		<contour>
			<point x="-510" y="684" type="line"/>
			<point x="-614" y="-55" type="line"/>
			<point x="-534" y="-55" type="line"/>
			<point x="-503" y="171" type="line"/>
			<point x="413" y="171" type="line"/>
			<point x="424" y="246" type="line"/>
			<point x="-492" y="246" type="line"/>
			<point x="-473" y="383" type="line"/>
			<point x="443" y="383" type="line"/>
			<point x="454" y="458" type="line"/>
			<point x="-462" y="458" type="line"/>
			<point x="-430" y="684" type="line"/>
		</contour>
	</outline>
</glyph>
<glyph name="bar_bar_greater.cLig" format="2">
	<advance width="600"/>
	<outline>
		<contour>
			<point x="-796" y="708" type="line"/>
			<point x="-906" y="-79" type="line"/>
			<point x="-826" y="-79" type="line"/>
			<point x="-716" y="708" type="line"/>
		</contour>
		<contour>
			<point x="-346" y="-79" type="line"/>
			<point x="-266" y="-79" type="line"/>
			<point x="328" y="268" type="line"/>
			<point x="341" y="360" type="line"/>
			<point x="-156" y="708" type="line"/>
			<point x="-236" y="708" type="line"/>
		</contour>
		<contour>
			<point x="-170" y="622" type="line"/>
			<point x="268" y="318" type="line"/>
			<point x="-254" y="16" type="line"/>
		</contour>
	</outline>
</glyph>
<glyph name="bar_bar_hyphen.fina" format="2">
	<advance width="600"/>
	<outline>
		<contour>
			<point x="225" y="-55" type="line"/>
			<point x="305" y="-55" type="line"/>
			<point x="409" y="684" type="line"/>
			<point x="329" y="684" type="line"/>
		</contour>
		<contour>
			<point x="-598" y="275" type="line"/>
			<point x="-108" y="275" type="line"/>
			<point x="-155" y="-55" type="line"/>
			<point x="-75" y="-55" type="line"/>
			<point x="29" y="684" type="line"/>
			<point x="-51" y="684" type="line"/>
			<point x="-98" y="352" type="line"/>
			<point x="-587" y="352" type="line"/>
		</contour>
	</outline>
</glyph>
<glyph name="bar_bar_hyphen.init" format="2">
	<advance width="600"/>
	<outline>
		<contour>
			<point x="-14" y="-55" type="line"/>
			<point x="66" y="-55" type="line"/>
			<point x="112" y="275" type="line"/>
			<point x="602" y="275" type="line"/>
			<point x="613" y="352" type="line"/>
			<point x="123" y="352" type="line"/>
			<point x="170" y="684" type="line"/>
			<point x="90" y="684" type="line"/>
		</contour>
		<contour>
			<point x="-394" y="-55" type="line"/>
			<point x="-314" y="-55" type="line"/>
			<point x="-210" y="684" type="line"/>
			<point x="-290" y="684" type="line"/>
		</contour>
	</outline>
</glyph>
<glyph name="bar_bar_hyphen.rem" format="2">
	<advance width="600"/>
	<outline>
		<contour>
			<point x="-614" y="-55" type="line"/>
			<point x="-534" y="-55" type="line"/>
			<point x="-488" y="275" type="line"/>
			<point x="429" y="275" type="line"/>
			<point x="439" y="352" type="line"/>
			<point x="-477" y="352" type="line"/>
			<point x="-430" y="684" type="line"/>
			<point x="-510" y="684" type="line"/>
		</contour>
		<contour>
			<point x="-997" y="-55" type="line"/>
			<point x="-918" y="-55" type="line"/>
			<point x="-814" y="684" type="line"/>
			<point x="-893" y="684" type="line"/>
		</contour>
	</outline>
</glyph>
<glyph name="bar_equal.fina" format="2">
	<advance width="600"/>
	<outline>
		<contour>
			<point x="-12" y="171" type="line"/>
			<point x="357" y="171" type="line"/>
			<point x="325" y="-55" type="line"/>
			<point x="405" y="-55" type="line"/>
			<point x="509" y="684" type="line"/>
			<point x="429" y="684" type="line"/>
			<point x="397" y="458" type="line"/>
			<point x="28" y="458" type="line"/>
			<point x="18" y="383" type="line"/>
			<point x="387" y="383" type="line"/>
			<point x="368" y="246" type="line"/>
			<point x="-2" y="246" type="line"/>
		</contour>
	</outline>
</glyph>
<glyph name="bar_equal.init" format="2">
	<advance width="600"/>
	<outline>
		<contour>
			<point x="208" y="684" type="line"/>
			<point x="104" y="-55" type="line"/>
			<point x="184" y="-55" type="line"/>
			<point x="216" y="171" type="line"/>
			<point x="587" y="171" type="line"/>
			<point x="597" y="246" type="line"/>
			<point x="226" y="246" type="line"/>
			<point x="246" y="383" type="line"/>
			<point x="617" y="383" type="line"/>
			<point x="627" y="458" type="line"/>
			<point x="256" y="458" type="line"/>
			<point x="288" y="684" type="line"/>
		</contour>
	</outline>
</glyph>
<glyph name="bar_greater.cLig" format="2">
	<advance width="600"/>
	<outline>
		<contour>
			<point x="-312" y="-79" type="line"/>
			<point x="-232" y="-79" type="line"/>
			<point x="362" y="268" type="line"/>
			<point x="374" y="360" type="line"/>
			<point x="-122" y="708" type="line"/>
			<point x="-202" y="708" type="line"/>
		</contour>
		<contour>
			<point x="-136" y="622" type="line"/>
			<point x="301" y="318" type="line"/>
			<point x="-221" y="16" type="line"/>
		</contour>
	</outline>
</glyph>
<glyph name="bar_hyphen.fina" format="2">
	<advance width="600"/>
	<outline>
		<contour>
			<point x="2" y="275" type="line"/>
			<point x="372" y="275" type="line"/>
			<point x="325" y="-55" type="line"/>
			<point x="405" y="-55" type="line"/>
			<point x="509" y="684" type="line"/>
			<point x="429" y="684" type="line"/>
			<point x="382" y="352" type="line"/>
			<point x="13" y="352" type="line"/>
		</contour>
	</outline>
</glyph>
<glyph name="bar_hyphen.init" format="2">
	<advance width="600"/>
	<outline>
		<contour>
			<point x="106" y="-55" type="line"/>
			<point x="186" y="-55" type="line"/>
			<point x="232" y="275" type="line"/>
			<point x="602" y="275" type="line"/>
			<point x="613" y="352" type="line"/>
			<point x="243" y="352" type="line"/>
			<point x="290" y="684" type="line"/>
			<point x="210" y="684" type="line"/>
		</contour>
	</outline>
</glyph>
<glyph name="bar_hyphen.rem" format="2">
	<advance width="600"/>
	<outline>
		<contour>
			<point x="-317" y="-57" type="line"/>
			<point x="-271" y="275" type="line"/>
			<point x="428" y="275" type="line"/>
			<point x="439" y="352" type="line"/>
			<point x="-260" y="352" type="line"/>
			<point x="-213" y="684" type="line"/>
			<point x="-293" y="684" type="line"/>
			<point x="-397" y="-57" type="line"/>
		</contour>
	</outline>
</glyph>
<glyph name="bar_hyphen_greater.rem" format="2">
	<advance width="600"/>
	<outline>
		<contour>
			<point x="-1063" y="0" type="line"/>
			<point x="-983" y="0" type="line"/>
			<point x="-944" y="276" type="line"/>
			<point x="-79" y="276" type="line"/>
			<point x="301" y="275" type="line"/>
			<point x="15" y="0" type="line"/>
			<point x="120" y="0" type="line"/>
			<point x="442" y="314" type="line"/>
			<point x="203" y="629" type="line"/>
			<point x="108" y="629" type="line"/>
			<point x="319" y="352" type="line"/>
			<point x="14" y="353" type="line"/>
			<point x="-934" y="353" type="line"/>
			<point x="-895" y="629" type="line"/>
			<point x="-975" y="629" type="line"/>
		</contour>
	</outline>
</glyph>
<glyph name="bar_underscore.med" format="2">
	<advance width="600"/>
	<outline>
		<contour>
			<point x="-51" y="-102" type="line"/>
			<point x="-61" y="-171" type="line"/>
			<point x="539" y="-171" type="line"/>
			<point x="549" y="-102" type="line"/>
			<point x="289" y="-102" type="line"/>
			<point x="414" y="792" type="line"/>
			<point x="335" y="792" type="line"/>
			<point x="209" y="-102" type="line"/>
		</contour>
	</outline>
</glyph>
<glyph name="braceleft_braceleft.cLig" format="2">
	<advance width="600"/>
	<outline>
		<contour>
			<point x="-113" y="-163" type="line"/>
			<point x="-104" y="-99" type="line"/>
			<point x="-226" y="-99" type="line" smooth="yes"/>
			<point x="-288" y="-99"/>
			<point x="-319" y="-75"/>
			<point x="-319" y="-26" type="curve" smooth="yes"/>
			<point x="-319" y="71"/>
			<point x="-182" y="115"/>
			<point x="-182" y="218" type="curve" smooth="yes"/>
			<point x="-182" y="268"/>
			<point x="-224" y="304"/>
			<point x="-274" y="313" type="curve"/>
			<point x="-221" y="321"/>
			<point x="-152" y="351"/>
			<point x="-152" y="432" type="curve" smooth="yes"/>
			<point x="-152" y="512"/>
			<point x="-225" y="575"/>
			<point x="-225" y="647" type="curve" smooth="yes"/>
			<point x="-225" y="709"/>
			<point x="-180" y="728"/>
			<point x="-114" y="728" type="curve" smooth="yes"/>
			<point x="220" y="728" type="line"/>
			<point x="170" y="713"/>
			<point x="147" y="682"/>
			<point x="147" y="636" type="curve" smooth="yes"/>
			<point x="147" y="559"/>
			<point x="221" y="496"/>
			<point x="221" y="427" type="curve" smooth="yes"/>
			<point x="221" y="384"/>
			<point x="191" y="352"/>
			<point x="132" y="352" type="curve" smooth="yes"/>
			<point x="42" y="352" type="line"/>
			<point x="31" y="275" type="line"/>
			<point x="115" y="275" type="line" smooth="yes"/>
			<point x="171" y="275"/>
			<point x="190" y="246"/>
			<point x="190" y="216" type="curve"/>
			<point x="190" y="138"/>
			<point x="50" y="86"/>
			<point x="50" y="-37" type="curve" smooth="yes"/>
			<point x="50" y="-105"/>
			<point x="92" y="-163"/>
			<point x="203" y="-163" type="curve" smooth="yes"/>
			<point x="381" y="-163" type="line"/>
			<point x="390" y="-99" type="line"/>
			<point x="230" y="-99" type="line" smooth="yes"/>
			<point x="168" y="-99"/>
			<point x="137" y="-75"/>
			<point x="137" y="-26" type="curve" smooth="yes"/>
			<point x="137" y="70"/>
			<point x="274" y="116"/>
			<point x="274" y="219" type="curve"/>
			<point x="274" y="269"/>
			<point x="233" y="304"/>
			<point x="182" y="313" type="curve"/>
			<point x="235" y="320"/>
			<point x="304" y="349"/>
			<point x="304" y="431" type="curve" smooth="yes"/>
			<point x="304" y="511"/>
			<point x="231" y="572"/>
			<point x="231" y="645" type="curve" smooth="yes"/>
			<point x="231" y="707"/>
			<point x="276" y="728"/>
			<point x="345" y="728" type="curve" smooth="yes"/>
			<point x="505" y="728" type="line"/>
			<point x="515" y="792" type="line"/>
			<point x="-135" y="792" type="line" smooth="yes"/>
			<point x="-246" y="792"/>
			<point x="-309" y="738"/>
			<point x="-309" y="654" type="curve" smooth="yes"/>
			<point x="-309" y="569"/>
			<point x="-235" y="500"/>
			<point x="-235" y="430" type="curve" smooth="yes"/>
			<point x="-235" y="387"/>
			<point x="-265" y="352"/>
			<point x="-320" y="352" type="curve" smooth="yes"/>
			<point x="-413" y="352" type="line"/>
			<point x="-424" y="275" type="line"/>
			<point x="-337" y="275" type="line" smooth="yes"/>
			<point x="-284" y="275"/>
			<point x="-267" y="244"/>
			<point x="-267" y="214" type="curve" smooth="yes"/>
			<point x="-267" y="137"/>
			<point x="-406" y="86"/>
			<point x="-406" y="-37" type="curve" smooth="yes"/>
			<point x="-406" y="-105"/>
			<point x="-364" y="-163"/>
			<point x="-253" y="-163" type="curve" smooth="yes"/>
		</contour>
	</outline>
</glyph>
<glyph name="braceleft_braceleft_numbersign.cLig" format="2">
	<advance width="600"/>
	<outline>
		<contour>
			<point x="-707" y="-163" type="line"/>
			<point x="-698" y="-99" type="line"/>
			<point x="-820" y="-99" type="line" smooth="yes"/>
			<point x="-882" y="-99"/>
			<point x="-913" y="-75"/>
			<point x="-913" y="-26" type="curve" smooth="yes"/>
			<point x="-913" y="71"/>
			<point x="-776" y="115"/>
			<point x="-776" y="218" type="curve" smooth="yes"/>
			<point x="-776" y="268"/>
			<point x="-818" y="304"/>
			<point x="-868" y="313" type="curve"/>
			<point x="-815" y="321"/>
			<point x="-746" y="351"/>
			<point x="-746" y="432" type="curve" smooth="yes"/>
			<point x="-746" y="512"/>
			<point x="-819" y="575"/>
			<point x="-819" y="647" type="curve" smooth="yes"/>
			<point x="-819" y="709"/>
			<point x="-774" y="728"/>
			<point x="-708" y="728" type="curve" smooth="yes"/>
			<point x="-374" y="728" type="line"/>
			<point x="-424" y="713"/>
			<point x="-447" y="682"/>
			<point x="-447" y="636" type="curve" smooth="yes"/>
			<point x="-447" y="559"/>
			<point x="-373" y="496"/>
			<point x="-373" y="427" type="curve" smooth="yes"/>
			<point x="-373" y="384"/>
			<point x="-403" y="352"/>
			<point x="-462" y="352" type="curve" smooth="yes"/>
			<point x="-552" y="352" type="line"/>
			<point x="-563" y="275" type="line"/>
			<point x="-479" y="275" type="line" smooth="yes"/>
			<point x="-423" y="275"/>
			<point x="-404" y="246"/>
			<point x="-404" y="216" type="curve"/>
			<point x="-404" y="138"/>
			<point x="-544" y="86"/>
			<point x="-544" y="-37" type="curve" smooth="yes"/>
			<point x="-544" y="-105"/>
			<point x="-502" y="-163"/>
			<point x="-391" y="-163" type="curve" smooth="yes"/>
			<point x="-213" y="-163" type="line"/>
			<point x="-204" y="-99" type="line"/>
			<point x="-364" y="-99" type="line" smooth="yes"/>
			<point x="-426" y="-99"/>
			<point x="-457" y="-75"/>
			<point x="-457" y="-26" type="curve" smooth="yes"/>
			<point x="-457" y="70"/>
			<point x="-320" y="116"/>
			<point x="-320" y="219" type="curve"/>
			<point x="-320" y="269"/>
			<point x="-361" y="304"/>
			<point x="-412" y="313" type="curve"/>
			<point x="-359" y="320"/>
			<point x="-290" y="349"/>
			<point x="-290" y="431" type="curve" smooth="yes"/>
			<point x="-290" y="511"/>
			<point x="-363" y="572"/>
			<point x="-363" y="645" type="curve" smooth="yes"/>
			<point x="-363" y="707"/>
			<point x="-318" y="728"/>
			<point x="-249" y="728" type="curve" smooth="yes"/>
			<point x="-89" y="728" type="line"/>
			<point x="-79" y="792" type="line"/>
			<point x="-729" y="792" type="line" smooth="yes"/>
			<point x="-840" y="792"/>
			<point x="-903" y="738"/>
			<point x="-903" y="654" type="curve" smooth="yes"/>
			<point x="-903" y="569"/>
			<point x="-829" y="500"/>
			<point x="-829" y="430" type="curve" smooth="yes"/>
			<point x="-829" y="387"/>
			<point x="-859" y="352"/>
			<point x="-914" y="352" type="curve" smooth="yes"/>
			<point x="-1007" y="352" type="line"/>
			<point x="-1018" y="275" type="line"/>
			<point x="-931" y="275" type="line" smooth="yes"/>
			<point x="-878" y="275"/>
			<point x="-861" y="244"/>
			<point x="-861" y="214" type="curve" smooth="yes"/>
			<point x="-861" y="137"/>
			<point x="-1000" y="86"/>
			<point x="-1000" y="-37" type="curve" smooth="yes"/>
			<point x="-1000" y="-105"/>
			<point x="-958" y="-163"/>
			<point x="-847" y="-163" type="curve" smooth="yes"/>
		</contour>
		<contour>
			<point x="-139" y="236" type="line"/>
			<point x="-149" y="168" type="line"/>
			<point x="-15" y="168" type="line"/>
			<point x="-55" y="0" type="line"/>
			<point x="17" y="0" type="line"/>
			<point x="57" y="168" type="line"/>
			<point x="198" y="168" type="line"/>
			<point x="158" y="0" type="line"/>
			<point x="228" y="0" type="line"/>
			<point x="268" y="168" type="line"/>
			<point x="383" y="168" type="line"/>
			<point x="392" y="236" type="line"/>
			<point x="284" y="236" type="line"/>
			<point x="337" y="459" type="line"/>
			<point x="448" y="459" type="line"/>
			<point x="457" y="528" type="line"/>
			<point x="353" y="528" type="line"/>
			<point x="390" y="684" type="line"/>
			<point x="318" y="684" type="line"/>
			<point x="282" y="528" type="line"/>
			<point x="141" y="528" type="line"/>
			<point x="177" y="684" type="line"/>
			<point x="107" y="684" type="line"/>
			<point x="70" y="528" type="line"/>
			<point x="-98" y="528" type="line"/>
			<point x="-108" y="459" type="line"/>
			<point x="54" y="459" type="line"/>
			<point x="1" y="236" type="line"/>
		</contour>
		<contour>
			<point x="73" y="236" type="line"/>
			<point x="125" y="459" type="line"/>
			<point x="266" y="459" type="line"/>
			<point x="214" y="236" type="line"/>
		</contour>
	</outline>
</glyph>
<glyph name="braceright_numbersign.cLig" format="2">
	<advance width="600"/>
	<outline>
		<contour>
			<point x="-550" y="-163" type="line"/>
			<point x="-395" y="-163" type="line" smooth="yes"/>
			<point x="-283" y="-163"/>
			<point x="-221" y="-109"/>
			<point x="-221" y="-25" type="curve" smooth="yes"/>
			<point x="-221" y="60"/>
			<point x="-294" y="129"/>
			<point x="-294" y="199" type="curve" smooth="yes"/>
			<point x="-294" y="242"/>
			<point x="-264" y="277"/>
			<point x="-208" y="277" type="curve" smooth="yes"/>
			<point x="-143" y="277" type="line"/>
			<point x="-132" y="354" type="line"/>
			<point x="-191" y="354" type="line" smooth="yes"/>
			<point x="-244" y="354"/>
			<point x="-262" y="385"/>
			<point x="-262" y="414" type="curve" smooth="yes"/>
			<point x="-262" y="492"/>
			<point x="-122" y="543"/>
			<point x="-122" y="666" type="curve" smooth="yes"/>
			<point x="-122" y="734"/>
			<point x="-165" y="792"/>
			<point x="-276" y="792" type="curve" smooth="yes"/>
			<point x="-416" y="792" type="line"/>
			<point x="-425" y="728" type="line"/>
			<point x="-303" y="728" type="line" smooth="yes"/>
			<point x="-241" y="728"/>
			<point x="-209" y="704"/>
			<point x="-209" y="655" type="curve" smooth="yes"/>
			<point x="-209" y="558"/>
			<point x="-347" y="514"/>
			<point x="-347" y="411" type="curve" smooth="yes"/>
			<point x="-347" y="360"/>
			<point x="-306" y="324"/>
			<point x="-255" y="315" type="curve"/>
			<point x="-306" y="308"/>
			<point x="-378" y="280"/>
			<point x="-378" y="197" type="curve" smooth="yes"/>
			<point x="-378" y="116"/>
			<point x="-304" y="54"/>
			<point x="-304" y="-18" type="curve" smooth="yes"/>
			<point x="-304" y="-80"/>
			<point x="-349" y="-99"/>
			<point x="-414" y="-99" type="curve" smooth="yes"/>
			<point x="-540" y="-99" type="line"/>
		</contour>
		<contour>
			<point x="-55" y="236" type="line"/>
			<point x="-65" y="168" type="line"/>
			<point x="69" y="168" type="line"/>
			<point x="29" y="0" type="line"/>
			<point x="102" y="0" type="line"/>
			<point x="141" y="168" type="line"/>
			<point x="282" y="168" type="line"/>
			<point x="243" y="0" type="line"/>
			<point x="312" y="0" type="line"/>
			<point x="352" y="168" type="line"/>
			<point x="467" y="168" type="line"/>
			<point x="477" y="236" type="line"/>
			<point x="368" y="236" type="line"/>
			<point x="421" y="459" type="line"/>
			<point x="532" y="459" type="line"/>
			<point x="542" y="528" type="line"/>
			<point x="437" y="528" type="line"/>
			<point x="474" y="684" type="line"/>
			<point x="403" y="684" type="line"/>
			<point x="366" y="528" type="line"/>
			<point x="225" y="528" type="line"/>
			<point x="262" y="684" type="line"/>
			<point x="191" y="684" type="line"/>
			<point x="154" y="528" type="line"/>
			<point x="-14" y="528" type="line"/>
			<point x="-23" y="459" type="line"/>
			<point x="138" y="459" type="line"/>
			<point x="85" y="236" type="line"/>
		</contour>
		<contour>
			<point x="157" y="236" type="line"/>
			<point x="209" y="459" type="line"/>
			<point x="350" y="459" type="line"/>
			<point x="298" y="236" type="line"/>
		</contour>
	</outline>
</glyph>
<glyph name="bracketleft_bracketleft.cLig" format="2">
	<advance width="600"/>
	<outline>
		<contour>
			<point x="367" y="-99" type="line"/>
			<point x="125" y="-99" type="line"/>
			<point x="241" y="728" type="line"/>
			<point x="484" y="728" type="line"/>
			<point x="493" y="792" type="line"/>
			<point x="171" y="792" type="line"/>
			<point x="36" y="-163" type="line"/>
			<point x="358" y="-163" type="line"/>
		</contour>
		<contour>
			<point x="-41" y="-99" type="line"/>
			<point x="-346" y="-99" type="line"/>
			<point x="-230" y="728" type="line"/>
			<point x="76" y="728" type="line"/>
			<point x="84" y="792" type="line"/>
			<point x="-300" y="792" type="line"/>
			<point x="-435" y="-163" type="line"/>
			<point x="-51" y="-163" type="line"/>
		</contour>
	</outline>
</glyph>
<glyph name="bracketleft_numbersign.cLig" format="2">
	<advance width="600"/>
	<outline>
		<contour>
			<point x="-105" y="236" type="line"/>
			<point x="-115" y="168" type="line"/>
			<point x="19" y="168" type="line"/>
			<point x="-21" y="0" type="line"/>
			<point x="51" y="0" type="line"/>
			<point x="91" y="168" type="line"/>
			<point x="232" y="168" type="line"/>
			<point x="192" y="0" type="line"/>
			<point x="262" y="0" type="line"/>
			<point x="302" y="168" type="line"/>
			<point x="417" y="168" type="line"/>
			<point x="426" y="236" type="line"/>
			<point x="318" y="236" type="line"/>
			<point x="371" y="459" type="line"/>
			<point x="482" y="459" type="line"/>
			<point x="491" y="528" type="line"/>
			<point x="387" y="528" type="line"/>
			<point x="424" y="684" type="line"/>
			<point x="352" y="684" type="line"/>
			<point x="316" y="528" type="line"/>
			<point x="175" y="528" type="line"/>
			<point x="211" y="684" type="line"/>
			<point x="141" y="684" type="line"/>
			<point x="104" y="528" type="line"/>
			<point x="-64" y="528" type="line"/>
			<point x="-74" y="459" type="line"/>
			<point x="88" y="459" type="line"/>
			<point x="35" y="236" type="line"/>
		</contour>
		<contour>
			<point x="107" y="236" type="line"/>
			<point x="159" y="459" type="line"/>
			<point x="300" y="459" type="line"/>
			<point x="248" y="236" type="line"/>
		</contour>
		<contour>
			<point x="-169" y="-99" type="line"/>
			<point x="-374" y="-99" type="line"/>
			<point x="-258" y="728" type="line"/>
			<point x="-53" y="728" type="line"/>
			<point x="-44" y="792" type="line"/>
			<point x="-328" y="792" type="line"/>
			<point x="-463" y="-163" type="line"/>
			<point x="-179" y="-163" type="line"/>
		</contour>
	</outline>
</glyph>
<glyph name="breve.cap" format="2">
	<advance width="600"/>
	<outline>
		<contour>
			<point x="370" y="741" type="curve" smooth="yes"/>
			<point x="470" y="741"/>
			<point x="516" y="781"/>
			<point x="532" y="884" type="curve"/>
			<point x="466" y="884" type="line"/>
			<point x="456" y="816"/>
			<point x="434" y="790"/>
			<point x="374" y="790" type="curve" smooth="yes"/>
			<point x="316" y="790"/>
			<point x="299" y="826"/>
			<point x="308" y="884" type="curve"/>
			<point x="243" y="884" type="line"/>
			<point x="227" y="783"/>
			<point x="279" y="741"/>
		</contour>
	</outline>
	<anchor name="_top" x="360" y="684"/>
</glyph>
<glyph name="caron.cap" format="2">
	<advance width="600"/>
	<outline>
		<contour>
			<point x="551" y="884" type="line"/>
			<point x="467" y="884" type="line"/>
			<point x="371" y="789" type="line"/>
			<point x="302" y="884" type="line"/>
			<point x="223" y="884" type="line"/>
			<point x="325" y="748" type="line"/>
			<point x="407" y="748" type="line"/>
		</contour>
	</outline>
	<anchor name="_top" x="357" y="684"/>
</glyph>
<glyph name="circumflex.cap" format="2">
	<advance width="600"/>
	<outline>
		<contour>
			<point x="204" y="748" type="line"/>
			<point x="288" y="748" type="line"/>
			<point x="385" y="843" type="line"/>
			<point x="454" y="748" type="line"/>
			<point x="532" y="748" type="line"/>
			<point x="430" y="884" type="line"/>
			<point x="347" y="884" type="line"/>
		</contour>
	</outline>
	<anchor name="_top" x="362" y="684"/>
</glyph>
<glyph name="colon_colon_equal.cLig" format="2">
	<advance width="600"/>
	<outline>
		<contour>
			<point x="-855" y="382" type="curve" smooth="yes"/>
			<point x="-806" y="382"/>
			<point x="-784" y="403"/>
			<point x="-779" y="443" type="curve" smooth="yes"/>
			<point x="-772" y="488"/>
			<point x="-791" y="515"/>
			<point x="-846" y="515" type="curve" smooth="yes"/>
			<point x="-896" y="515"/>
			<point x="-918" y="494"/>
			<point x="-923" y="453" type="curve" smooth="yes"/>
			<point x="-930" y="408"/>
			<point x="-911" y="382"/>
		</contour>
		<contour>
			<point x="-488" y="382" type="curve" smooth="yes"/>
			<point x="-439" y="382"/>
			<point x="-417" y="403"/>
			<point x="-412" y="443" type="curve" smooth="yes"/>
			<point x="-405" y="488"/>
			<point x="-424" y="515"/>
			<point x="-479" y="515" type="curve" smooth="yes"/>
			<point x="-529" y="515"/>
			<point x="-551" y="494"/>
			<point x="-556" y="453" type="curve" smooth="yes"/>
			<point x="-563" y="408"/>
			<point x="-544" y="382"/>
		</contour>
		<contour>
			<point x="-173" y="375" type="line"/>
			<point x="363" y="375" type="line"/>
			<point x="373" y="450" type="line"/>
			<point x="-162" y="450" type="line"/>
		</contour>
		<contour>
			<point x="-202" y="163" type="line"/>
			<point x="333" y="163" type="line"/>
			<point x="344" y="237" type="line"/>
			<point x="-192" y="237" type="line"/>
		</contour>
		<contour>
			<point x="-895" y="95" type="curve" smooth="yes"/>
			<point x="-846" y="95"/>
			<point x="-824" y="116"/>
			<point x="-819" y="156" type="curve" smooth="yes"/>
			<point x="-812" y="201"/>
			<point x="-831" y="228"/>
			<point x="-886" y="228" type="curve" smooth="yes"/>
			<point x="-936" y="228"/>
			<point x="-958" y="207"/>
			<point x="-963" y="166" type="curve" smooth="yes"/>
			<point x="-970" y="121"/>
			<point x="-951" y="95"/>
		</contour>
		<contour>
			<point x="-528" y="95" type="curve" smooth="yes"/>
			<point x="-479" y="95"/>
			<point x="-457" y="116"/>
			<point x="-452" y="156" type="curve" smooth="yes"/>
			<point x="-445" y="201"/>
			<point x="-464" y="228"/>
			<point x="-519" y="228" type="curve" smooth="yes"/>
			<point x="-569" y="228"/>
			<point x="-591" y="207"/>
			<point x="-596" y="166" type="curve" smooth="yes"/>
			<point x="-603" y="121"/>
			<point x="-584" y="95"/>
		</contour>
	</outline>
</glyph>
<glyph name="colon_equal.med" format="2">
	<advance width="600"/>
	<outline>
		<contour>
			<point x="322" y="382" type="curve" smooth="yes"/>
			<point x="371" y="382"/>
			<point x="393" y="403"/>
			<point x="398" y="443" type="curve" smooth="yes"/>
			<point x="405" y="488"/>
			<point x="386" y="515"/>
			<point x="331" y="515" type="curve" smooth="yes"/>
			<point x="281" y="515"/>
			<point x="259" y="494"/>
			<point x="254" y="453" type="curve" smooth="yes"/>
			<point x="247" y="408"/>
			<point x="266" y="382"/>
		</contour>
		<contour>
			<point x="511" y="384" type="line"/>
			<point x="617" y="384" type="line"/>
			<point x="627" y="458" type="line"/>
			<point x="522" y="458" type="line"/>
		</contour>
		<contour>
			<point x="17" y="384" type="line"/>
			<point x="123" y="384" type="line"/>
			<point x="133" y="458" type="line"/>
			<point x="27" y="458" type="line"/>
		</contour>
		<contour>
			<point x="482" y="172" type="line"/>
			<point x="587" y="172" type="line"/>
			<point x="598" y="247" type="line"/>
			<point x="492" y="247" type="line"/>
		</contour>
		<contour>
			<point x="-12" y="172" type="line"/>
			<point x="93" y="172" type="line"/>
			<point x="103" y="247" type="line"/>
			<point x="-2" y="247" type="line"/>
		</contour>
		<contour>
			<point x="283" y="95" type="curve" smooth="yes"/>
			<point x="332" y="95"/>
			<point x="354" y="116"/>
			<point x="359" y="156" type="curve" smooth="yes"/>
			<point x="366" y="201"/>
			<point x="347" y="228"/>
			<point x="292" y="228" type="curve" smooth="yes"/>
			<point x="242" y="228"/>
			<point x="220" y="207"/>
			<point x="215" y="166" type="curve" smooth="yes"/>
			<point x="208" y="121"/>
			<point x="227" y="95"/>
		</contour>
	</outline>
</glyph>
<glyph name="cordinal" format="2">
	<advance width="600"/>
	<outline>
		<contour>
			<point x="375" y="225" type="curve" smooth="yes"/>
			<point x="418" y="225"/>
			<point x="453" y="233"/>
			<point x="477" y="243" type="curve"/>
			<point x="484" y="302" type="line"/>
			<point x="463" y="293"/>
			<point x="427" y="283"/>
			<point x="386" y="283" type="curve" smooth="yes"/>
			<point x="274" y="283"/>
			<point x="204" y="354"/>
			<point x="222" y="478" type="curve" smooth="yes"/>
			<point x="237" y="582"/>
			<point x="305" y="637"/>
			<point x="401" y="637" type="curve" smooth="yes"/>
			<point x="452" y="637"/>
			<point x="499" y="623"/>
			<point x="527" y="606" type="curve"/>
			<point x="535" y="666" type="line"/>
			<point x="509" y="682"/>
			<point x="456" y="695"/>
			<point x="397" y="695" type="curve" smooth="yes"/>
			<point x="261" y="695"/>
			<point x="167" y="615"/>
			<point x="149" y="484" type="curve" smooth="yes"/>
			<point x="125" y="320"/>
			<point x="226" y="225"/>
		</contour>
	</outline>
</glyph>
<glyph name="dieresis.cap" format="2">
	<advance width="600"/>
	<outline>
		<contour>
			<point x="477" y="861" type="curve" smooth="yes"/>
			<point x="436" y="861"/>
			<point x="422" y="844"/>
			<point x="418" y="813" type="curve" smooth="yes"/>
			<point x="413" y="782"/>
			<point x="426" y="762"/>
			<point x="468" y="762" type="curve" smooth="yes"/>
			<point x="509" y="762"/>
			<point x="522" y="779"/>
			<point x="527" y="809" type="curve" smooth="yes"/>
			<point x="531" y="842"/>
			<point x="518" y="861"/>
		</contour>
		<contour>
			<point x="278" y="762" type="curve" smooth="yes"/>
			<point x="320" y="762"/>
			<point x="332" y="779"/>
			<point x="337" y="810" type="curve" smooth="yes"/>
			<point x="341" y="841"/>
			<point x="329" y="861"/>
			<point x="287" y="861" type="curve" smooth="yes"/>
			<point x="246" y="861"/>
			<point x="232" y="844"/>
			<point x="228" y="813" type="curve" smooth="yes"/>
			<point x="224" y="782"/>
			<point x="236" y="762"/>
		</contour>
	</outline>
	<anchor name="_top" x="360" y="684"/>
</glyph>
<glyph name="eight.den" format="2">
	<advance width="600"/>
	<outline>
		<contour>
			<point x="271" y="-8" type="curve" smooth="yes"/>
			<point x="376" y="-8"/>
			<point x="436" y="42"/>
			<point x="436" y="119" type="curve" smooth="yes"/>
			<point x="436" y="168"/>
			<point x="405" y="197"/>
			<point x="357" y="208" type="curve"/>
			<point x="420" y="221"/>
			<point x="457" y="255"/>
			<point x="457" y="318" type="curve" smooth="yes"/>
			<point x="457" y="383"/>
			<point x="402" y="418"/>
			<point x="312" y="418" type="curve" smooth="yes"/>
			<point x="218" y="418"/>
			<point x="160" y="376"/>
			<point x="160" y="300" type="curve" smooth="yes"/>
			<point x="160" y="253"/>
			<point x="187" y="224"/>
			<point x="232" y="212" type="curve"/>
			<point x="164" y="206"/>
			<point x="122" y="165"/>
			<point x="122" y="100" type="curve" smooth="yes"/>
			<point x="122" y="24"/>
			<point x="187" y="-8"/>
		</contour>
		<contour>
			<point x="303" y="233" type="curve" smooth="yes"/>
			<point x="253" y="233"/>
			<point x="221" y="257"/>
			<point x="221" y="297" type="curve" smooth="yes"/>
			<point x="221" y="346"/>
			<point x="251" y="371"/>
			<point x="311" y="371" type="curve" smooth="yes"/>
			<point x="361" y="371"/>
			<point x="395" y="353"/>
			<point x="395" y="310" type="curve" smooth="yes"/>
			<point x="395" y="260"/>
			<point x="362" y="233"/>
		</contour>
		<contour>
			<point x="274" y="40" type="curve" smooth="yes"/>
			<point x="225" y="40"/>
			<point x="185" y="60"/>
			<point x="185" y="108" type="curve" smooth="yes"/>
			<point x="185" y="159"/>
			<point x="218" y="185"/>
			<point x="283" y="185" type="curve" smooth="yes"/>
			<point x="341" y="185"/>
			<point x="371" y="165"/>
			<point x="371" y="123" type="curve" smooth="yes"/>
			<point x="371" y="71"/>
			<point x="337" y="40"/>
		</contour>
	</outline>
</glyph>
<glyph name="eight.numr" format="2">
	<advance width="600"/>
	<outline>
		<contour>
			<point x="321" y="366" type="curve" smooth="yes"/>
			<point x="408" y="366"/>
			<point x="462" y="408"/>
			<point x="462" y="474" type="curve" smooth="yes"/>
			<point x="462" y="514"/>
			<point x="436" y="538"/>
			<point x="396" y="546" type="curve"/>
			<point x="450" y="558"/>
			<point x="482" y="588"/>
			<point x="482" y="640" type="curve" smooth="yes"/>
			<point x="482" y="695"/>
			<point x="435" y="724"/>
			<point x="360" y="724" type="curve" smooth="yes"/>
			<point x="280" y="724"/>
			<point x="229" y="688"/>
			<point x="229" y="623" type="curve" smooth="yes"/>
			<point x="229" y="585"/>
			<point x="255" y="560"/>
			<point x="288" y="550" type="curve"/>
			<point x="232" y="543"/>
			<point x="195" y="507"/>
			<point x="195" y="454" type="curve" smooth="yes"/>
			<point x="195" y="390"/>
			<point x="251" y="366"/>
		</contour>
		<contour>
			<point x="350" y="571" type="curve" smooth="yes"/>
			<point x="307" y="571"/>
			<point x="284" y="592"/>
			<point x="284" y="623" type="curve" smooth="yes"/>
			<point x="284" y="664"/>
			<point x="310" y="682"/>
			<point x="358" y="682" type="curve" smooth="yes"/>
			<point x="398" y="682"/>
			<point x="427" y="671"/>
			<point x="427" y="634" type="curve" smooth="yes"/>
			<point x="427" y="595"/>
			<point x="398" y="571"/>
		</contour>
		<contour>
			<point x="323" y="408" type="curve" smooth="yes"/>
			<point x="283" y="408"/>
			<point x="252" y="422"/>
			<point x="252" y="461" type="curve" smooth="yes"/>
			<point x="252" y="503"/>
			<point x="279" y="526"/>
			<point x="333" y="526" type="curve" smooth="yes"/>
			<point x="381" y="526"/>
			<point x="405" y="509"/>
			<point x="405" y="476" type="curve" smooth="yes"/>
			<point x="405" y="432"/>
			<point x="376" y="408"/>
		</contour>
	</outline>
</glyph>
<glyph name="equal.den" format="2">
	<advance width="600"/>
	<outline>
		<contour>
			<point x="152" y="279" type="line"/>
			<point x="144" y="228" type="line"/>
			<point x="446" y="228" type="line"/>
			<point x="454" y="279" type="line"/>
		</contour>
		<contour>
			<point x="133" y="148" type="line"/>
			<point x="126" y="97" type="line"/>
			<point x="428" y="97" type="line"/>
			<point x="435" y="148" type="line"/>
		</contour>
	</outline>
</glyph>
<glyph name="equal.init" format="2">
	<advance width="600"/>
	<outline>
		<contour>
			<point x="190" y="383" type="line"/>
			<point x="617" y="383" type="line"/>
			<point x="627" y="458" type="line"/>
			<point x="201" y="458" type="line"/>
		</contour>
		<contour>
			<point x="160" y="171" type="line"/>
			<point x="587" y="171" type="line"/>
			<point x="597" y="246" type="line"/>
			<point x="171" y="246" type="line"/>
		</contour>
	</outline>
</glyph>
<glyph name="equal.med" format="2">
	<advance width="600"/>
	<outline>
		<contour>
			<point x="17" y="383" type="line"/>
			<point x="617" y="383" type="line"/>
			<point x="627" y="458" type="line"/>
			<point x="28" y="458" type="line"/>
		</contour>
		<contour>
			<point x="-12" y="171" type="line"/>
			<point x="587" y="171" type="line"/>
			<point x="597" y="246" type="line"/>
			<point x="-2" y="246" type="line"/>
		</contour>
	</outline>
</glyph>
<glyph name="equal_colon_equal.rem" format="2">
	<advance width="600"/>
	<outline>
		<contour>
			<point x="-278" y="382" type="curve" smooth="yes"/>
			<point x="-229" y="382"/>
			<point x="-207" y="403"/>
			<point x="-202" y="443" type="curve" smooth="yes"/>
			<point x="-195" y="488"/>
			<point x="-214" y="515"/>
			<point x="-269" y="515" type="curve" smooth="yes"/>
			<point x="-319" y="515"/>
			<point x="-341" y="494"/>
			<point x="-346" y="453" type="curve" smooth="yes"/>
			<point x="-353" y="408"/>
			<point x="-334" y="382"/>
		</contour>
		<contour>
			<point x="-42" y="375" type="line"/>
			<point x="442" y="375" type="line"/>
			<point x="452" y="450" type="line"/>
			<point x="-32" y="450" type="line"/>
		</contour>
		<contour>
			<point x="-1011" y="375" type="line"/>
			<point x="-527" y="375" type="line"/>
			<point x="-516" y="450" type="line"/>
			<point x="-1000" y="450" type="line"/>
		</contour>
		<contour>
			<point x="-1040" y="163" type="line"/>
			<point x="-556" y="163" type="line"/>
			<point x="-546" y="237" type="line"/>
			<point x="-1030" y="237" type="line"/>
		</contour>
		<contour>
			<point x="-72" y="163" type="line"/>
			<point x="412" y="163" type="line"/>
			<point x="423" y="237" type="line"/>
			<point x="-61" y="237" type="line"/>
		</contour>
		<contour>
			<point x="-318" y="95" type="curve" smooth="yes"/>
			<point x="-269" y="95"/>
			<point x="-247" y="116"/>
			<point x="-242" y="156" type="curve" smooth="yes"/>
			<point x="-235" y="201"/>
			<point x="-254" y="228"/>
			<point x="-309" y="228" type="curve" smooth="yes"/>
			<point x="-359" y="228"/>
			<point x="-381" y="207"/>
			<point x="-386" y="166" type="curve" smooth="yes"/>
			<point x="-393" y="121"/>
			<point x="-374" y="95"/>
		</contour>
	</outline>
</glyph>
<glyph name="equal_equal.cLig" format="2">
	<advance width="600"/>
	<outline>
		<contour>
			<point x="-412" y="364" type="line"/>
			<point x="441" y="364" type="line"/>
			<point x="451" y="438" type="line"/>
			<point x="-401" y="438" type="line"/>
		</contour>
		<contour>
			<point x="-442" y="152" type="line"/>
			<point x="411" y="152" type="line"/>
			<point x="421" y="226" type="line"/>
			<point x="-431" y="226" type="line"/>
		</contour>
	</outline>
</glyph>
<glyph name="equal_greater.rem" format="2">
	<advance width="600"/>
	<outline>
		<contour>
			<point x="-439" y="171" type="line"/>
			<point x="235" y="171" type="line"/>
			<point x="59" y="0" type="line"/>
			<point x="163" y="0" type="line"/>
			<point x="482" y="312" type="line"/>
			<point x="245" y="629" type="line"/>
			<point x="151" y="629" type="line"/>
			<point x="279" y="458" type="line"/>
			<point x="-398" y="458" type="line"/>
			<point x="-409" y="383" type="line"/>
			<point x="335" y="383" type="line"/>
			<point x="385" y="317" type="line"/>
			<point x="311" y="246" type="line"/>
			<point x="-428" y="246" type="line"/>
		</contour>
	</outline>
</glyph>
<glyph name="equal_greater_greater.rem" format="2">
	<advance width="600"/>
	<outline>
		<contour>
			<point x="44" y="0" type="line"/>
			<point x="150" y="0" type="line"/>
			<point x="468" y="314" type="line"/>
			<point x="228" y="629" type="line"/>
			<point x="132" y="629" type="line"/>
			<point x="368" y="318" type="line"/>
		</contour>
		<contour>
			<point x="-1039" y="171" type="line"/>
			<point x="-155" y="171" type="line"/>
			<point x="-331" y="0" type="line"/>
			<point x="-227" y="0" type="line"/>
			<point x="92" y="312" type="line"/>
			<point x="-145" y="629" type="line"/>
			<point x="-239" y="629" type="line"/>
			<point x="-111" y="458" type="line"/>
			<point x="-998" y="458" type="line"/>
			<point x="-1009" y="383" type="line"/>
			<point x="-55" y="383" type="line"/>
			<point x="-5" y="317" type="line"/>
			<point x="-79" y="246" type="line"/>
			<point x="-1028" y="246" type="line"/>
		</contour>
	</outline>
</glyph>
<glyph name="equal_less.rem" format="2">
	<advance width="600"/>
	<outline>
		<contour>
			<point x="424" y="246" type="line"/>
			<point x="-320" y="246" type="line"/>
			<point x="-370" y="312" type="line"/>
			<point x="-296" y="383" type="line"/>
			<point x="443" y="383" type="line"/>
			<point x="454" y="458" type="line"/>
			<point x="-220" y="458" type="line"/>
			<point x="-44" y="629" type="line"/>
			<point x="-148" y="629" type="line"/>
			<point x="-467" y="317" type="line"/>
			<point x="-230" y="0" type="line"/>
			<point x="-136" y="0" type="line"/>
			<point x="-264" y="171" type="line"/>
			<point x="413" y="171" type="line"/>
		</contour>
	</outline>
</glyph>
<glyph name="equal_slash_equal.rem" format="2">
	<advance width="600"/>
	<outline>
		<contour>
			<point x="-1041" y="152" type="line"/>
			<point x="-446" y="152" type="line"/>
			<point x="-619" y="-74" type="line"/>
			<point x="-533" y="-74" type="line"/>
			<point x="-360" y="152" type="line"/>
			<point x="411" y="152" type="line"/>
			<point x="421" y="226" type="line"/>
			<point x="-304" y="226" type="line"/>
			<point x="-198" y="364" type="line"/>
			<point x="441" y="364" type="line"/>
			<point x="451" y="438" type="line"/>
			<point x="-141" y="438" type="line"/>
			<point x="21" y="650" type="line"/>
			<point x="-65" y="650" type="line"/>
			<point x="-227" y="438" type="line"/>
			<point x="-1000" y="438" type="line"/>
			<point x="-1011" y="364" type="line"/>
			<point x="-284" y="364" type="line"/>
			<point x="-390" y="226" type="line"/>
			<point x="-1030" y="226" type="line"/>
		</contour>
	</outline>
</glyph>
<glyph name="exclam_equal.med" format="2">
	<advance width="600"/>
	<outline>
		<contour>
			<point x="259" y="198" type="line"/>
			<point x="320" y="198" type="line"/>
			<point x="384" y="538" type="line"/>
			<point x="405" y="684" type="line"/>
			<point x="311" y="684" type="line"/>
			<point x="291" y="539" type="line"/>
		</contour>
		<contour>
			<point x="511" y="384" type="line"/>
			<point x="617" y="384" type="line"/>
			<point x="627" y="458" type="line"/>
			<point x="521" y="458" type="line"/>
		</contour>
		<contour>
			<point x="17" y="384" type="line"/>
			<point x="122" y="384" type="line"/>
			<point x="133" y="458" type="line"/>
			<point x="27" y="458" type="line"/>
		</contour>
		<contour>
			<point x="481" y="172" type="line"/>
			<point x="587" y="172" type="line"/>
			<point x="598" y="247" type="line"/>
			<point x="492" y="247" type="line"/>
		</contour>
		<contour>
			<point x="-13" y="172" type="line"/>
			<point x="93" y="172" type="line"/>
			<point x="103" y="247" type="line"/>
			<point x="-2" y="247" type="line"/>
		</contour>
		<contour>
			<point x="267" y="-12" type="curve" smooth="yes"/>
			<point x="312" y="-12"/>
			<point x="331" y="6"/>
			<point x="336" y="44" type="curve" smooth="yes"/>
			<point x="341" y="84"/>
			<point x="323" y="108"/>
			<point x="274" y="108" type="curve" smooth="yes"/>
			<point x="228" y="108"/>
			<point x="209" y="89"/>
			<point x="204" y="52" type="curve" smooth="yes"/>
			<point x="199" y="11"/>
			<point x="217" y="-12"/>
		</contour>
	</outline>
</glyph>
<glyph name="exclam_equal_equal.cLig" format="2">
	<advance width="600"/>
	<outline>
		<contour>
			<point x="-1078" y="79" type="line"/>
			<point x="-507" y="79" type="line"/>
			<point x="-620" y="-75" type="line"/>
			<point x="-534" y="-75" type="line"/>
			<point x="-422" y="79" type="line"/>
			<point x="421" y="79" type="line"/>
			<point x="431" y="150" type="line"/>
			<point x="-370" y="150" type="line"/>
			<point x="-274" y="281" type="line"/>
			<point x="449" y="281" type="line"/>
			<point x="460" y="353" type="line"/>
			<point x="-222" y="353" type="line"/>
			<point x="-127" y="484" type="line"/>
			<point x="479" y="484" type="line"/>
			<point x="488" y="555" type="line"/>
			<point x="-74" y="555" type="line"/>
			<point x="20" y="685" type="line"/>
			<point x="-66" y="685" type="line"/>
			<point x="-160" y="555" type="line"/>
			<point x="-1011" y="555" type="line"/>
			<point x="-1021" y="484" type="line"/>
			<point x="-212" y="484" type="line"/>
			<point x="-308" y="353" type="line"/>
			<point x="-1039" y="353" type="line"/>
			<point x="-1050" y="281" type="line"/>
			<point x="-360" y="281" type="line"/>
			<point x="-455" y="150" type="line"/>
			<point x="-1068" y="150" type="line"/>
		</contour>
	</outline>
</glyph>
<glyph name="exclam_exclam_period.cLig" format="2">
	<advance width="600"/>
	<outline>
		<contour>
			<point x="-829" y="198" type="line"/>
			<point x="-768" y="198" type="line"/>
			<point x="-704" y="538" type="line"/>
			<point x="-683" y="684" type="line"/>
			<point x="-777" y="684" type="line"/>
			<point x="-797" y="539" type="line"/>
		</contour>
		<contour>
			<point x="-821" y="-12" type="curve" smooth="yes"/>
			<point x="-776" y="-12"/>
			<point x="-757" y="6"/>
			<point x="-752" y="44" type="curve" smooth="yes"/>
			<point x="-747" y="84"/>
			<point x="-765" y="108"/>
			<point x="-814" y="108" type="curve" smooth="yes"/>
			<point x="-860" y="108"/>
			<point x="-879" y="89"/>
			<point x="-884" y="52" type="curve" smooth="yes"/>
			<point x="-889" y="11"/>
			<point x="-871" y="-12"/>
		</contour>
		<contour>
			<point x="-340" y="198" type="line"/>
			<point x="-279" y="198" type="line"/>
			<point x="-215" y="538" type="line"/>
			<point x="-194" y="684" type="line"/>
			<point x="-288" y="684" type="line"/>
			<point x="-308" y="539" type="line"/>
		</contour>
		<contour>
			<point x="-332" y="-12" type="curve" smooth="yes"/>
			<point x="-287" y="-12"/>
			<point x="-268" y="6"/>
			<point x="-263" y="44" type="curve" smooth="yes"/>
			<point x="-258" y="84"/>
			<point x="-276" y="108"/>
			<point x="-325" y="108" type="curve" smooth="yes"/>
			<point x="-371" y="108"/>
			<point x="-390" y="89"/>
			<point x="-395" y="52" type="curve" smooth="yes"/>
			<point x="-400" y="11"/>
			<point x="-382" y="-12"/>
		</contour>
		<contour>
			<point x="158" y="-12" type="curve" smooth="yes"/>
			<point x="207" y="-12"/>
			<point x="229" y="9"/>
			<point x="234" y="49" type="curve" smooth="yes"/>
			<point x="241" y="94"/>
			<point x="222" y="121"/>
			<point x="167" y="121" type="curve" smooth="yes"/>
			<point x="117" y="121"/>
			<point x="95" y="100"/>
			<point x="90" y="59" type="curve" smooth="yes"/>
			<point x="83" y="14"/>
			<point x="102" y="-12"/>
		</contour>
	</outline>
</glyph>
<glyph name="five.den" format="2">
	<advance width="600"/>
	<outline>
		<contour>
			<point x="263" y="-8" type="curve" smooth="yes"/>
			<point x="363" y="-8"/>
			<point x="426" y="52"/>
			<point x="425" y="144" type="curve" smooth="yes"/>
			<point x="423" y="218"/>
			<point x="379" y="250"/>
			<point x="295" y="250" type="curve" smooth="yes"/>
			<point x="270" y="250"/>
			<point x="248" y="248"/>
			<point x="227" y="243" type="curve"/>
			<point x="243" y="359" type="line"/>
			<point x="446" y="359" type="line"/>
			<point x="453" y="410" type="line"/>
			<point x="194" y="410" type="line"/>
			<point x="161" y="183" type="line"/>
			<point x="195" y="195"/>
			<point x="227" y="203"/>
			<point x="267" y="203" type="curve" smooth="yes"/>
			<point x="333" y="203"/>
			<point x="361" y="182"/>
			<point x="362" y="137" type="curve" smooth="yes"/>
			<point x="364" y="84"/>
			<point x="329" y="44"/>
			<point x="262" y="44" type="curve" smooth="yes"/>
			<point x="219" y="44"/>
			<point x="175" y="58"/>
			<point x="135" y="93" type="curve"/>
			<point x="128" y="38" type="line"/>
			<point x="158" y="11"/>
			<point x="205" y="-8"/>
		</contour>
	</outline>
</glyph>
<glyph name="five.numr" format="2">
	<advance width="600"/>
	<outline>
		<contour>
			<point x="316" y="366" type="curve" smooth="yes"/>
			<point x="401" y="366"/>
			<point x="454" y="420"/>
			<point x="452" y="495" type="curve" smooth="yes"/>
			<point x="452" y="553"/>
			<point x="417" y="582"/>
			<point x="344" y="582" type="curve" smooth="yes"/>
			<point x="323" y="582"/>
			<point x="305" y="580"/>
			<point x="289" y="577" type="curve"/>
			<point x="302" y="672" type="line"/>
			<point x="469" y="672" type="line"/>
			<point x="475" y="718" type="line"/>
			<point x="257" y="718" type="line"/>
			<point x="230" y="525" type="line"/>
			<point x="265" y="537"/>
			<point x="290" y="541"/>
			<point x="318" y="541" type="curve" smooth="yes"/>
			<point x="375" y="541"/>
			<point x="395" y="524"/>
			<point x="396" y="487" type="curve" smooth="yes"/>
			<point x="397" y="441"/>
			<point x="368" y="412"/>
			<point x="315" y="412" type="curve" smooth="yes"/>
			<point x="279" y="412"/>
			<point x="241" y="423"/>
			<point x="208" y="452" type="curve"/>
			<point x="201" y="403" type="line"/>
			<point x="228" y="380"/>
			<point x="268" y="366"/>
		</contour>
	</outline>
</glyph>
<glyph name="four.den" format="2">
	<advance width="600"/>
	<outline>
		<contour>
			<point x="310" y="0" type="line"/>
			<point x="371" y="0" type="line"/>
			<point x="383" y="82" type="line"/>
			<point x="431" y="82" type="line"/>
			<point x="438" y="134" type="line"/>
			<point x="390" y="134" type="line"/>
			<point x="429" y="411" type="line"/>
			<point x="339" y="411" type="line"/>
			<point x="119" y="134" type="line"/>
			<point x="112" y="83" type="line"/>
			<point x="322" y="83" type="line"/>
		</contour>
		<contour>
			<point x="183" y="134" type="line"/>
			<point x="362" y="363" type="line"/>
			<point x="329" y="134" type="line"/>
		</contour>
	</outline>
</glyph>
<glyph name="four.numr" format="2">
	<advance width="600"/>
	<outline>
		<contour>
			<point x="353" y="372" type="line"/>
			<point x="408" y="372" type="line"/>
			<point x="418" y="440" type="line"/>
			<point x="457" y="440" type="line"/>
			<point x="464" y="486" type="line"/>
			<point x="424" y="486" type="line"/>
			<point x="457" y="718" type="line"/>
			<point x="375" y="718" type="line"/>
			<point x="193" y="486" type="line"/>
			<point x="187" y="440" type="line"/>
			<point x="363" y="440" type="line"/>
		</contour>
		<contour>
			<point x="250" y="486" type="line"/>
			<point x="395" y="674" type="line"/>
			<point x="369" y="486" type="line"/>
		</contour>
	</outline>
</glyph>
<glyph name="g.ss01" format="2">
	<advance width="600"/>
	<outline>
		<contour>
			<point x="227" y="-204" type="curve" smooth="yes"/>
			<point x="358" y="-204"/>
			<point x="451" y="-138"/>
			<point x="472" y="19" type="curve" smooth="yes"/>
			<point x="544" y="523" type="line"/>
			<point x="379" y="523" type="line" smooth="yes"/>
			<point x="205" y="523"/>
			<point x="94" y="432"/>
			<point x="71" y="272" type="curve" smooth="yes"/>
			<point x="69" y="258" type="line" smooth="yes"/>
			<point x="46" y="100"/>
			<point x="112" y="5"/>
			<point x="234" y="5" type="curve" smooth="yes"/>
			<point x="302" y="5"/>
			<point x="364" y="38"/>
			<point x="404" y="120" type="curve"/>
			<point x="391" y="34" type="line" smooth="yes"/>
			<point x="375" y="-83"/>
			<point x="324" y="-135"/>
			<point x="225" y="-135" type="curve" smooth="yes"/>
			<point x="155" y="-135"/>
			<point x="98" y="-105"/>
			<point x="57" y="-70" type="curve"/>
			<point x="46" y="-144" type="line"/>
			<point x="80" y="-173"/>
			<point x="143" y="-204"/>
		</contour>
		<contour>
			<point x="269" y="73" type="curve" smooth="yes"/>
			<point x="182" y="73"/>
			<point x="139" y="143"/>
			<point x="156" y="262" type="curve" smooth="yes"/>
			<point x="157" y="269" type="line" smooth="yes"/>
			<point x="174" y="395"/>
			<point x="248" y="454"/>
			<point x="370" y="454" type="curve" smooth="yes"/>
			<point x="451" y="454" type="line"/>
			<point x="420" y="238" type="line" smooth="yes"/>
			<point x="406" y="144"/>
			<point x="352" y="73"/>
		</contour>
	</outline>
	<anchor name="top" x="361" y="523"/>
</glyph>
<glyph name="greater_equal.cLig" format="2">
	<advance width="600"/>
	<outline>
		<contour>
			<point x="-301" y="182" type="line"/>
			<point x="327" y="416" type="line"/>
			<point x="341" y="508" type="line"/>
			<point x="-222" y="742" type="line"/>
			<point x="-234" y="664" type="line"/>
			<point x="262" y="465" type="line"/>
			<point x="-289" y="267" type="line"/>
		</contour>
		<contour>
			<point x="-335" y="-62" type="line"/>
			<point x="293" y="171" type="line"/>
			<point x="304" y="250" type="line"/>
			<point x="-324" y="17" type="line"/>
		</contour>
	</outline>
</glyph>
<glyph name="greater_equal.fina" format="2">
	<advance width="600"/>
	<outline>
		<contour>
			<point x="-12" y="171" type="line"/>
			<point x="283" y="171" type="line"/>
			<point x="107" y="0" type="line"/>
			<point x="211" y="0" type="line"/>
			<point x="530" y="312" type="line"/>
			<point x="293" y="629" type="line"/>
			<point x="199" y="629" type="line"/>
			<point x="327" y="458" type="line"/>
			<point x="28" y="458" type="line"/>
			<point x="17" y="383" type="line"/>
			<point x="383" y="383" type="line"/>
			<point x="433" y="317" type="line"/>
			<point x="359" y="246" type="line"/>
			<point x="-2" y="246" type="line"/>
		</contour>
	</outline>
</glyph>
<glyph name="greater_equal.rem" format="2">
	<advance width="600"/>
	<outline>
		<contour>
			<point x="-257" y="383" type="line"/>
			<point x="467" y="383" type="line"/>
			<point x="478" y="458" type="line"/>
			<point x="-216" y="458" type="line"/>
			<point x="-343" y="629" type="line"/>
			<point x="-437" y="629" type="line"/>
		</contour>
		<contour>
			<point x="-522" y="0" type="line"/>
			<point x="-418" y="0" type="line"/>
			<point x="-245" y="171" type="line"/>
			<point x="437" y="171" type="line"/>
			<point x="448" y="246" type="line"/>
			<point x="-275" y="246" type="line"/>
		</contour>
	</outline>
</glyph>
<glyph name="greater_greater.cLig" format="2">
	<advance width="600"/>
	<outline>
		<contour>
			<point x="-535" y="40" type="line"/>
			<point x="-56" y="256" type="line"/>
			<point x="-43" y="348" type="line"/>
			<point x="-461" y="565" type="line"/>
			<point x="-473" y="483" type="line"/>
			<point x="-121" y="305" type="line"/>
			<point x="-523" y="129" type="line"/>
		</contour>
		<contour>
			<point x="35" y="40" type="line"/>
			<point x="514" y="256" type="line"/>
			<point x="527" y="348" type="line"/>
			<point x="109" y="565" type="line"/>
			<point x="97" y="483" type="line"/>
			<point x="449" y="305" type="line"/>
			<point x="47" y="129" type="line"/>
		</contour>
	</outline>
</glyph>
<glyph name="greater_greater_equal.fina" format="2">
	<advance width="600"/>
	<outline>
		<contour>
			<point x="59" y="0" type="line"/>
			<point x="165" y="0" type="line"/>
			<point x="483" y="314" type="line"/>
			<point x="243" y="629" type="line"/>
			<point x="147" y="629" type="line"/>
			<point x="383" y="318" type="line"/>
		</contour>
		<contour>
			<point x="-612" y="171" type="line"/>
			<point x="-140" y="171" type="line"/>
			<point x="-316" y="0" type="line"/>
			<point x="-212" y="0" type="line"/>
			<point x="107" y="312" type="line"/>
			<point x="-130" y="629" type="line"/>
			<point x="-224" y="629" type="line"/>
			<point x="-96" y="458" type="line"/>
			<point x="-572" y="458" type="line"/>
			<point x="-582" y="383" type="line"/>
			<point x="-40" y="383" type="line"/>
			<point x="10" y="317" type="line"/>
			<point x="-64" y="246" type="line"/>
			<point x="-602" y="246" type="line"/>
		</contour>
	</outline>
</glyph>
<glyph name="greater_greater_greater.cLig" format="2">
	<advance width="600"/>
	<outline>
		<contour>
			<point x="-1135" y="40" type="line"/>
			<point x="-656" y="256" type="line"/>
			<point x="-643" y="348" type="line"/>
			<point x="-1061" y="565" type="line"/>
			<point x="-1073" y="483" type="line"/>
			<point x="-721" y="305" type="line"/>
			<point x="-1123" y="129" type="line"/>
		</contour>
		<contour>
			<point x="-551" y="40" type="line"/>
			<point x="-72" y="256" type="line"/>
			<point x="-59" y="348" type="line"/>
			<point x="-477" y="565" type="line"/>
			<point x="-489" y="483" type="line"/>
			<point x="-137" y="305" type="line"/>
			<point x="-539" y="129" type="line"/>
		</contour>
		<contour>
			<point x="33" y="40" type="line"/>
			<point x="512" y="256" type="line"/>
			<point x="525" y="348" type="line"/>
			<point x="107" y="565" type="line"/>
			<point x="95" y="483" type="line"/>
			<point x="447" y="305" type="line"/>
			<point x="45" y="129" type="line"/>
		</contour>
	</outline>
</glyph>
<glyph name="greater_greater_hyphen.fina" format="2">
	<advance width="600"/>
	<outline>
		<contour>
			<point x="60" y="0" type="line"/>
			<point x="167" y="0" type="line"/>
			<point x="484" y="314" type="line"/>
			<point x="241" y="629" type="line"/>
			<point x="145" y="629" type="line"/>
			<point x="384" y="320" type="line"/>
		</contour>
		<contour>
			<point x="-587" y="353" type="line"/>
			<point x="-598" y="276" type="line"/>
			<point x="-406" y="276" type="line"/>
			<point x="-26" y="275" type="line"/>
			<point x="-312" y="0" type="line"/>
			<point x="-207" y="0" type="line"/>
			<point x="115" y="314" type="line"/>
			<point x="-124" y="629" type="line"/>
			<point x="-219" y="629" type="line"/>
			<point x="-8" y="352" type="line"/>
			<point x="-161" y="353" type="line"/>
		</contour>
	</outline>
</glyph>
<glyph name="greater_greater_hyphen.med" format="2">
	<advance width="600"/>
	<outline>
		<contour>
			<point x="-107" y="0" type="line"/>
			<point x="0" y="0" type="line"/>
			<point x="280" y="276" type="line"/>
			<point x="601" y="276" type="line"/>
			<point x="613" y="353" type="line"/>
			<point x="288" y="353" type="line"/>
			<point x="75" y="629" type="line"/>
			<point x="-21" y="629" type="line"/>
			<point x="217" y="319" type="line"/>
		</contour>
		<contour>
			<point x="-391" y="629" type="line"/>
			<point x="-181" y="353" type="line"/>
			<point x="-587" y="353" type="line"/>
			<point x="-598" y="276" type="line"/>
			<point x="-579" y="276" type="line"/>
			<point x="-198" y="275" type="line"/>
			<point x="-484" y="0" type="line"/>
			<point x="-380" y="0" type="line"/>
			<point x="-57" y="314" type="line"/>
			<point x="-296" y="629" type="line"/>
		</contour>
	</outline>
</glyph>
<glyph name="greater_greater_hyphen.rem" format="2">
	<advance width="600"/>
	<outline>
		<contour>
			<point x="-1095" y="0" type="line"/>
			<point x="-989" y="0" type="line"/>
			<point x="-673" y="314" type="line"/>
			<point x="-914" y="629" type="line"/>
			<point x="-1009" y="629" type="line"/>
			<point x="-773" y="319" type="line"/>
		</contour>
		<contour>
			<point x="-716" y="0" type="line"/>
			<point x="-610" y="0" type="line"/>
			<point x="-331" y="276" type="line"/>
			<point x="477" y="276" type="line"/>
			<point x="488" y="353" type="line"/>
			<point x="-323" y="353" type="line"/>
			<point x="-536" y="629" type="line"/>
			<point x="-631" y="629" type="line"/>
			<point x="-393" y="320" type="line"/>
		</contour>
	</outline>
</glyph>
<glyph name="greater_hyphen.fina" format="2">
	<advance width="600"/>
	<outline>
		<contour>
			<point x="189" y="629" type="line"/>
			<point x="400" y="352" type="line"/>
			<point x="13" y="353" type="line"/>
			<point x="2" y="276" type="line"/>
			<point x="383" y="275" type="line"/>
			<point x="96" y="0" type="line"/>
			<point x="201" y="0" type="line"/>
			<point x="523" y="314" type="line"/>
			<point x="285" y="629" type="line"/>
		</contour>
	</outline>
</glyph>
<glyph name="greater_hyphen.init" format="2">
	<advance width="600"/>
	<outline>
		<contour>
			<point x="50" y="0" type="line"/>
			<point x="156" y="0" type="line"/>
			<point x="435" y="276" type="line"/>
			<point x="602" y="276" type="line"/>
			<point x="613" y="353" type="line"/>
			<point x="444" y="353" type="line"/>
			<point x="230" y="629" type="line"/>
			<point x="135" y="629" type="line"/>
			<point x="373" y="320" type="line"/>
		</contour>
	</outline>
</glyph>
<glyph name="greater_hyphen.rem" format="2">
	<advance width="600"/>
	<outline>
		<contour>
			<point x="-512" y="0" type="line"/>
			<point x="-406" y="0" type="line"/>
			<point x="-127" y="276" type="line"/>
			<point x="466" y="276" type="line"/>
			<point x="477" y="353" type="line"/>
			<point x="-118" y="353" type="line"/>
			<point x="-332" y="629" type="line"/>
			<point x="-427" y="629" type="line"/>
			<point x="-189" y="320" type="line"/>
		</contour>
	</outline>
</glyph>
<glyph name="hungarumlaut.cap" format="2">
	<advance width="600"/>
	<outline>
		<contour>
			<point x="366" y="748" type="line"/>
			<point x="429" y="748" type="line"/>
			<point x="531" y="884" type="line"/>
			<point x="446" y="884" type="line"/>
		</contour>
		<contour>
			<point x="224" y="748" type="line"/>
			<point x="288" y="748" type="line"/>
			<point x="389" y="884" type="line"/>
			<point x="304" y="884" type="line"/>
		</contour>
	</outline>
	<anchor name="_top" x="317" y="684"/>
</glyph>
<glyph name="hyphen.med" format="2">
	<advance width="600"/>
	<outline>
		<contour>
			<point x="613" y="353" type="line"/>
			<point x="13" y="353" type="line"/>
			<point x="2" y="276" type="line"/>
			<point x="602" y="276" type="line"/>
		</contour>
	</outline>
</glyph>
<glyph name="hyphen_asciitilde.cLig" format="2">
	<advance width="600"/>
	<outline>
		<contour>
			<point x="-393" y="273" type="line"/>
			<point x="-8" y="273" type="line"/>
			<point x="2" y="318"/>
			<point x="22" y="345"/>
			<point x="61" y="345" type="curve" smooth="yes"/>
			<point x="132" y="345"/>
			<point x="148" y="215"/>
			<point x="252" y="215" type="curve" smooth="yes"/>
			<point x="324" y="215"/>
			<point x="380" y="260"/>
			<point x="399" y="402" type="curve"/>
			<point x="327" y="402" type="line"/>
			<point x="317" y="326"/>
			<point x="296" y="292"/>
			<point x="254" y="292" type="curve" smooth="yes"/>
			<point x="187" y="292"/>
			<point x="167" y="422"/>
			<point x="60" y="422" type="curve" smooth="yes"/>
			<point x="11" y="422"/>
			<point x="-28" y="397"/>
			<point x="-51" y="350" type="curve"/>
			<point x="-382" y="350" type="line"/>
		</contour>
	</outline>
</glyph>
<glyph name="hyphen_braceright.rem" format="2">
	<advance width="600"/>
	<outline>
		<contour>
			<point x="-45" y="-163" type="line"/>
			<point x="111" y="-163" type="line" smooth="yes"/>
			<point x="222" y="-163"/>
			<point x="284" y="-108"/>
			<point x="284" y="-24" type="curve" smooth="yes"/>
			<point x="284" y="59"/>
			<point x="211" y="136"/>
			<point x="211" y="201" type="curve" smooth="yes"/>
			<point x="211" y="246"/>
			<point x="243" y="277"/>
			<point x="309" y="277" type="curve" smooth="yes"/>
			<point x="382" y="277" type="line"/>
			<point x="393" y="354" type="line"/>
			<point x="307" y="354" type="line" smooth="yes"/>
			<point x="262" y="354"/>
			<point x="243" y="382"/>
			<point x="243" y="413" type="curve" smooth="yes"/>
			<point x="243" y="490"/>
			<point x="383" y="545"/>
			<point x="383" y="666" type="curve" smooth="yes"/>
			<point x="383" y="733"/>
			<point x="340" y="792"/>
			<point x="229" y="792" type="curve" smooth="yes"/>
			<point x="90" y="792" type="line"/>
			<point x="81" y="728" type="line"/>
			<point x="203" y="728" type="line" smooth="yes"/>
			<point x="264" y="728"/>
			<point x="297" y="704"/>
			<point x="297" y="655" type="curve" smooth="yes"/>
			<point x="297" y="560"/>
			<point x="159" y="513"/>
			<point x="159" y="415" type="curve" smooth="yes"/>
			<point x="159" y="378"/>
			<point x="182" y="361"/>
			<point x="211" y="351" type="curve"/>
			<point x="-413" y="351" type="line"/>
			<point x="-424" y="278" type="line"/>
			<point x="198" y="278" type="line"/>
			<point x="160" y="266"/>
			<point x="127" y="242"/>
			<point x="127" y="194" type="curve" smooth="yes"/>
			<point x="127" y="126"/>
			<point x="201" y="54"/>
			<point x="201" y="-18" type="curve" smooth="yes"/>
			<point x="201" y="-80"/>
			<point x="157" y="-99"/>
			<point x="91" y="-99" type="curve" smooth="yes"/>
			<point x="-35" y="-99" type="line"/>
		</contour>
	</outline>
</glyph>
<glyph name="hyphen_hyphen_greater.rem" format="2">
	<advance width="600"/>
	<outline>
		<contour>
			<point x="-1014" y="353" type="line"/>
			<point x="-1024" y="276" type="line"/>
			<point x="-80" y="276" type="line"/>
			<point x="300" y="275" type="line"/>
			<point x="14" y="0" type="line"/>
			<point x="119" y="0" type="line"/>
			<point x="441" y="314" type="line"/>
			<point x="202" y="629" type="line"/>
			<point x="107" y="629" type="line"/>
			<point x="318" y="352" type="line"/>
			<point x="13" y="353" type="line"/>
		</contour>
	</outline>
</glyph>
<glyph name="hyphen_less.rem" format="2">
	<advance width="600"/>
	<outline>
		<contour>
			<point x="519" y="629" type="line"/>
			<point x="413" y="629" type="line"/>
			<point x="134" y="353" type="line"/>
			<point x="-459" y="353" type="line"/>
			<point x="-470" y="276" type="line"/>
			<point x="125" y="276" type="line"/>
			<point x="339" y="0" type="line"/>
			<point x="434" y="0" type="line"/>
			<point x="196" y="309" type="line"/>
		</contour>
	</outline>
</glyph>
<glyph name="k.ss01" format="2">
	<advance width="600"/>
	<outline>
		<contour>
			<point x="75" y="0" type="line"/>
			<point x="158" y="0" type="line"/>
			<point x="176" y="129" type="line"/>
			<point x="290" y="248" type="line"/>
			<point x="407" y="0" type="line"/>
			<point x="498" y="0" type="line"/>
			<point x="358" y="300" type="line"/>
			<point x="564" y="524" type="line"/>
			<point x="464" y="524" type="line"/>
			<point x="188" y="221" type="line"/>
			<point x="262" y="739" type="line"/>
			<point x="179" y="739" type="line"/>
		</contour>
	</outline>
	<anchor name="bottom" x="275" y="0"/>
</glyph>
<glyph name="less_asciitilde.cLig" format="2">
	<advance width="600"/>
	<outline>
		<contour>
			<point x="-268" y="276" type="line"/>
			<point x="117" y="276" type="line"/>
			<point x="127" y="321"/>
			<point x="147" y="348"/>
			<point x="186" y="348" type="curve" smooth="yes"/>
			<point x="257" y="348"/>
			<point x="273" y="218"/>
			<point x="377" y="218" type="curve" smooth="yes"/>
			<point x="449" y="218"/>
			<point x="505" y="263"/>
			<point x="524" y="405" type="curve"/>
			<point x="452" y="405" type="line"/>
			<point x="442" y="329"/>
			<point x="421" y="295"/>
			<point x="379" y="295" type="curve" smooth="yes"/>
			<point x="312" y="295"/>
			<point x="292" y="425"/>
			<point x="185" y="425" type="curve" smooth="yes"/>
			<point x="136" y="425"/>
			<point x="97" y="400"/>
			<point x="74" y="353" type="curve"/>
			<point x="35" y="353" type="line"/>
			<point x="-346" y="354" type="line"/>
			<point x="-59" y="629" type="line"/>
			<point x="-164" y="629" type="line"/>
			<point x="-486" y="315" type="line"/>
			<point x="-248" y="0" type="line"/>
			<point x="-152" y="0" type="line"/>
			<point x="-363" y="277" type="line"/>
			<point x="-268" y="277" type="line"/>
		</contour>
	</outline>
</glyph>
<glyph name="less_asciitilde_greater.cLig" format="2">
	<advance width="600"/>
	<outline>
		<contour>
			<point x="-858" y="0" type="line"/>
			<point x="-760" y="0" type="line"/>
			<point x="-973" y="276" type="line"/>
			<point x="-524" y="276" type="line"/>
			<point x="-510" y="318"/>
			<point x="-481" y="363"/>
			<point x="-430" y="363" type="curve" smooth="yes"/>
			<point x="-329" y="363"/>
			<point x="-301" y="190"/>
			<point x="-166" y="190" type="curve" smooth="yes"/>
			<point x="-100" y="190"/>
			<point x="-54" y="233"/>
			<point x="-35" y="276" type="curve"/>
			<point x="372" y="276" type="line"/>
			<point x="84" y="0" type="line"/>
			<point x="187" y="0" type="line"/>
			<point x="510" y="314" type="line"/>
			<point x="272" y="629" type="line"/>
			<point x="178" y="629" type="line"/>
			<point x="388" y="353" type="line"/>
			<point x="-72" y="353" type="line"/>
			<point x="-85" y="312"/>
			<point x="-114" y="267"/>
			<point x="-165" y="267" type="curve" smooth="yes"/>
			<point x="-265" y="267"/>
			<point x="-298" y="440"/>
			<point x="-429" y="440" type="curve" smooth="yes"/>
			<point x="-496" y="440"/>
			<point x="-541" y="395"/>
			<point x="-561" y="353" type="curve"/>
			<point x="-957" y="353" type="line"/>
			<point x="-671" y="629" type="line"/>
			<point x="-773" y="629" type="line"/>
			<point x="-1097" y="315" type="line"/>
		</contour>
	</outline>
</glyph>
<glyph name="less_bar_bar_bar.cLig" format="2">
	<advance width="600"/>
	<outline>
		<contour>
			<point x="-836" y="708" type="line"/>
			<point x="-916" y="708" type="line"/>
			<point x="-1510" y="361" type="line"/>
			<point x="-1523" y="269" type="line"/>
			<point x="-1026" y="-79" type="line"/>
			<point x="-946" y="-79" type="line"/>
		</contour>
		<contour>
			<point x="-260" y="708" type="line"/>
			<point x="-340" y="708" type="line"/>
			<point x="-450" y="-79" type="line"/>
			<point x="-370" y="-79" type="line"/>
		</contour>
		<contour>
			<point x="315" y="708" type="line"/>
			<point x="236" y="708" type="line"/>
			<point x="126" y="-79" type="line"/>
			<point x="205" y="-79" type="line"/>
		</contour>
		<contour>
			<point x="-1012" y="7" type="line"/>
			<point x="-1450" y="311" type="line"/>
			<point x="-928" y="613" type="line"/>
		</contour>
	</outline>
</glyph>
<glyph name="less_bar_greater.cLig" format="2">
	<advance width="600"/>
	<outline>
		<contour>
			<point x="-401" y="-162" type="line"/>
			<point x="-321" y="-162" type="line"/>
			<point x="-187" y="792" type="line"/>
			<point x="-267" y="792" type="line"/>
		</contour>
		<contour>
			<point x="-144" y="-77" type="line"/>
			<point x="451" y="273" type="line"/>
			<point x="463" y="358" type="line"/>
			<point x="-34" y="709" type="line"/>
			<point x="-45" y="619" type="line"/>
			<point x="381" y="319" type="line"/>
			<point x="-131" y="20" type="line"/>
		</contour>
		<contour>
			<point x="-551" y="-78" type="line"/>
			<point x="-540" y="12" type="line"/>
			<point x="-967" y="311" type="line"/>
			<point x="-454" y="611" type="line"/>
			<point x="-441" y="708" type="line"/>
			<point x="-1036" y="356" type="line"/>
			<point x="-1048" y="271" type="line"/>
		</contour>
	</outline>
</glyph>
<glyph name="less_colon.cLig.x" format="2">
	<advance width="600"/>
	<outline>
		<contour>
			<point x="-46" y="-5" type="line"/>
			<point x="-33" y="79" type="line"/>
			<point x="-377" y="312" type="line"/>
			<point x="32" y="541" type="line"/>
			<point x="45" y="634" type="line"/>
			<point x="-437" y="361" type="line"/>
			<point x="-450" y="268" type="line"/>
		</contour>
		<contour>
			<point x="340" y="446" type="curve" smooth="yes"/>
			<point x="389" y="446"/>
			<point x="411" y="467"/>
			<point x="416" y="507" type="curve" smooth="yes"/>
			<point x="423" y="552"/>
			<point x="404" y="579"/>
			<point x="349" y="579" type="curve" smooth="yes"/>
			<point x="299" y="579"/>
			<point x="277" y="558"/>
			<point x="272" y="517" type="curve" smooth="yes"/>
			<point x="265" y="472"/>
			<point x="284" y="446"/>
		</contour>
		<contour>
			<point x="284" y="46" type="curve" smooth="yes"/>
			<point x="333" y="46"/>
			<point x="355" y="67"/>
			<point x="360" y="107" type="curve" smooth="yes"/>
			<point x="367" y="152"/>
			<point x="348" y="179"/>
			<point x="293" y="179" type="curve" smooth="yes"/>
			<point x="243" y="179"/>
			<point x="221" y="158"/>
			<point x="216" y="117" type="curve" smooth="yes"/>
			<point x="209" y="72"/>
			<point x="228" y="46"/>
		</contour>
	</outline>
</glyph>
<glyph name="less_dollar.cLig" format="2">
	<advance width="600"/>
	<outline>
		<contour>
			<point x="112" y="-93" type="line"/>
			<point x="177" y="-93" type="line"/>
			<point x="202" y="-11" type="line"/>
			<point x="217" y="-11"/>
			<point x="232" y="-12"/>
			<point x="248" y="-12" type="curve" smooth="yes"/>
			<point x="398" y="-12"/>
			<point x="502" y="69"/>
			<point x="502" y="207" type="curve" smooth="yes"/>
			<point x="502" y="317"/>
			<point x="428" y="348"/>
			<point x="314" y="376" type="curve"/>
			<point x="386" y="617" type="line"/>
			<point x="442" y="605"/>
			<point x="495" y="581"/>
			<point x="533" y="547" type="curve"/>
			<point x="544" y="624" type="line"/>
			<point x="509" y="651"/>
			<point x="464" y="672"/>
			<point x="411" y="685" type="curve"/>
			<point x="437" y="774" type="line"/>
			<point x="372" y="774" type="line"/>
			<point x="348" y="694" type="line"/>
			<point x="334" y="695"/>
			<point x="320" y="696"/>
			<point x="306" y="696" type="curve" smooth="yes"/>
			<point x="150" y="696"/>
			<point x="57" y="614"/>
			<point x="57" y="484" type="curve" smooth="yes"/>
			<point x="57" y="364"/>
			<point x="142" y="331"/>
			<point x="236" y="309" type="curve"/>
			<point x="164" y="65" type="line"/>
			<point x="94" y="74"/>
			<point x="21" y="96"/>
			<point x="-58" y="134" type="curve" smooth="yes"/>
			<point x="-428" y="313" type="line"/>
			<point x="-49" y="492" type="line"/>
			<point x="-36" y="583" type="line"/>
			<point x="-489" y="361" type="line"/>
			<point x="-502" y="268" type="line"/>
			<point x="-100" y="69" type="line" smooth="yes"/>
			<point x="-18" y="29"/>
			<point x="59" y="6"/>
			<point x="138" y="-5" type="curve"/>
		</contour>
		<contour>
			<point x="142" y="495" type="curve" smooth="yes"/>
			<point x="142" y="577"/>
			<point x="201" y="626"/>
			<point x="303" y="626" type="curve" smooth="yes"/>
			<point x="312" y="626"/>
			<point x="321" y="626"/>
			<point x="331" y="625" type="curve"/>
			<point x="260" y="389" type="line"/>
			<point x="186" y="408"/>
			<point x="142" y="427"/>
		</contour>
		<contour>
			<point x="417" y="193" type="curve" smooth="yes"/>
			<point x="417" y="109"/>
			<point x="350" y="59"/>
			<point x="249" y="59" type="curve" smooth="yes"/>
			<point x="220" y="59" type="line"/>
			<point x="290" y="297" type="line"/>
			<point x="368" y="280"/>
			<point x="417" y="264"/>
		</contour>
	</outline>
</glyph>
<glyph name="less_equal.rem" format="2">
	<advance width="600"/>
	<outline>
		<contour>
			<point x="537" y="629" type="line"/>
			<point x="433" y="629" type="line"/>
			<point x="260" y="458" type="line"/>
			<point x="-422" y="458" type="line"/>
			<point x="-433" y="383" type="line"/>
			<point x="290" y="383" type="line"/>
		</contour>
		<contour>
			<point x="272" y="246" type="line"/>
			<point x="-452" y="246" type="line"/>
			<point x="-463" y="171" type="line"/>
			<point x="231" y="171" type="line"/>
			<point x="358" y="0" type="line"/>
			<point x="452" y="0" type="line"/>
		</contour>
	</outline>
</glyph>
